solid 
   facet normal 1.000000e+000 0.000000e+000 0.000000e+000
      outer loop
         vertex 2.000000e+001 1.000000e+000 -2.000000e+000
         vertex 2.000000e+001 3.000000e+000 -2.000000e+000
         vertex 2.000000e+001 1.000000e+000 0.000000e+000
      endloop
   endfacet
   facet normal 1.000000e+000 -0.000000e+000 0.000000e+000
      outer loop
         vertex 2.000000e+001 3.000000e+000 3.250000e+001
         vertex 2.000000e+001 1.000000e+000 3.250000e+001
         vertex 2.000000e+001 1.000000e+000 3.050000e+001
      endloop
   endfacet
   facet normal 1.000000e+000 0.000000e+000 -0.000000e+000
      outer loop
         vertex 2.000000e+001 1.000000e+000 0.000000e+000
         vertex 2.000000e+001 3.000000e+000 -2.000000e+000
         vertex 2.000000e+001 3.000000e+000 3.250000e+001
      endloop
   endfacet
   facet normal 1.000000e+000 0.000000e+000 0.000000e+000
      outer loop
         vertex 2.000000e+001 1.000000e+000 3.050000e+001
         vertex 2.000000e+001 1.000000e+000 0.000000e+000
         vertex 2.000000e+001 3.000000e+000 3.250000e+001
      endloop
   endfacet
   facet normal 6.887495e-001 7.249994e-001 0.000000e+000
      outer loop
         vertex 2.000000e+001 3.000000e+000 -2.000000e+000
         vertex 1.347111e-015 2.200000e+001 -2.000000e+000
         vertex 2.000000e+001 3.000000e+000 3.250000e+001
      endloop
   endfacet
   facet normal 6.887495e-001 7.249994e-001 0.000000e+000
      outer loop
         vertex 0.000000e+000 2.200000e+001 3.250000e+001
         vertex 2.000000e+001 3.000000e+000 3.250000e+001
         vertex 1.347111e-015 2.200000e+001 -2.000000e+000
      endloop
   endfacet
   facet normal 0.000000e+000 1.000000e+000 0.000000e+000
      outer loop
         vertex 1.347111e-015 2.200000e+001 -2.000000e+000
         vertex -2.000000e+000 2.200000e+001 -2.000000e+000
         vertex 0.000000e+000 2.200000e+001 3.250000e+001
      endloop
   endfacet
   facet normal 0.000000e+000 1.000000e+000 0.000000e+000
      outer loop
         vertex -2.000000e+000 2.200000e+001 3.250000e+001
         vertex 0.000000e+000 2.200000e+001 3.250000e+001
         vertex -2.000000e+000 2.200000e+001 -2.000000e+000
      endloop
   endfacet
   facet normal -1.000000e+000 0.000000e+000 0.000000e+000
      outer loop
         vertex -2.000000e+000 2.200000e+001 -2.000000e+000
         vertex -2.000000e+000 -1.500000e+000 -2.000000e+000
         vertex -2.000000e+000 2.000000e+001 0.000000e+000
      endloop
   endfacet
   facet normal -1.000000e+000 -0.000000e+000 0.000000e+000
      outer loop
         vertex -2.000000e+000 -1.500000e+000 3.250000e+001
         vertex -2.000000e+000 2.200000e+001 3.250000e+001
         vertex -2.000000e+000 2.000000e+001 3.050000e+001
      endloop
   endfacet
   facet normal -1.000000e+000 -0.000000e+000 0.000000e+000
      outer loop
         vertex -2.000000e+000 -5.000000e-001 0.000000e+000
         vertex -2.000000e+000 2.000000e+001 0.000000e+000
         vertex -2.000000e+000 -1.500000e+000 -2.000000e+000
      endloop
   endfacet
   facet normal -1.000000e+000 0.000000e+000 0.000000e+000
      outer loop
         vertex -2.000000e+000 2.000000e+001 3.050000e+001
         vertex -2.000000e+000 -5.000000e-001 3.050000e+001
         vertex -2.000000e+000 -1.500000e+000 3.250000e+001
      endloop
   endfacet
   facet normal -1.000000e+000 0.000000e+000 0.000000e+000
      outer loop
         vertex -2.000000e+000 2.200000e+001 -2.000000e+000
         vertex -2.000000e+000 2.000000e+001 0.000000e+000
         vertex -2.000000e+000 2.200000e+001 3.250000e+001
      endloop
   endfacet
   facet normal -1.000000e+000 -0.000000e+000 0.000000e+000
      outer loop
         vertex -2.000000e+000 -1.500000e+000 3.250000e+001
         vertex -2.000000e+000 -5.000000e-001 3.050000e+001
         vertex -2.000000e+000 -1.500000e+000 -2.000000e+000
      endloop
   endfacet
   facet normal -1.000000e+000 0.000000e+000 0.000000e+000
      outer loop
         vertex -2.000000e+000 2.000000e+001 0.000000e+000
         vertex -2.000000e+000 2.000000e+001 3.050000e+001
         vertex -2.000000e+000 2.200000e+001 3.250000e+001
      endloop
   endfacet
   facet normal -1.000000e+000 0.000000e+000 0.000000e+000
      outer loop
         vertex -2.000000e+000 -5.000000e-001 0.000000e+000
         vertex -2.000000e+000 -1.500000e+000 -2.000000e+000
         vertex -2.000000e+000 -5.000000e-001 3.050000e+001
      endloop
   endfacet
   facet normal 0.000000e+000 -1.000000e+000 -0.000000e+000
      outer loop
         vertex 1.500000e+001 -1.500000e+000 -2.000000e+000
         vertex 1.500000e+001 -1.500000e+000 0.000000e+000
         vertex -2.000000e+000 -1.500000e+000 -2.000000e+000
      endloop
   endfacet
   facet normal -0.000000e+000 -1.000000e+000 -0.000000e+000
      outer loop
         vertex 1.500000e+001 -1.500000e+000 3.050000e+001
         vertex 1.500000e+001 -1.500000e+000 3.250000e+001
         vertex -2.000000e+000 -1.500000e+000 3.250000e+001
      endloop
   endfacet
   facet normal -0.000000e+000 -1.000000e+000 0.000000e+000
      outer loop
         vertex -2.000000e+000 -1.500000e+000 -2.000000e+000
         vertex 1.500000e+001 -1.500000e+000 0.000000e+000
         vertex 1.500000e+001 -1.500000e+000 3.050000e+001
      endloop
   endfacet
   facet normal 0.000000e+000 -1.000000e+000 0.000000e+000
      outer loop
         vertex -2.000000e+000 -1.500000e+000 3.250000e+001
         vertex -2.000000e+000 -1.500000e+000 -2.000000e+000
         vertex 1.500000e+001 -1.500000e+000 3.050000e+001
      endloop
   endfacet
   facet normal -6.887495e-001 -7.249994e-001 0.000000e+000
      outer loop
         vertex 1.224647e-015 2.000000e+001 3.050000e+001
         vertex 1.224647e-015 2.000000e+001 0.000000e+000
         vertex 2.000000e+001 1.000000e+000 3.050000e+001
      endloop
   endfacet
   facet normal -6.887495e-001 -7.249994e-001 -0.000000e+000
      outer loop
         vertex 2.000000e+001 1.000000e+000 0.000000e+000
         vertex 2.000000e+001 1.000000e+000 3.050000e+001
         vertex 1.224647e-015 2.000000e+001 0.000000e+000
      endloop
   endfacet
   facet normal 0.000000e+000 -1.000000e+000 0.000000e+000
      outer loop
         vertex -2.000000e+000 2.000000e+001 3.050000e+001
         vertex -2.000000e+000 2.000000e+001 0.000000e+000
         vertex 1.224647e-015 2.000000e+001 0.000000e+000
      endloop
   endfacet
   facet normal 0.000000e+000 -1.000000e+000 0.000000e+000
      outer loop
         vertex 1.224647e-015 2.000000e+001 3.050000e+001
         vertex -2.000000e+000 2.000000e+001 3.050000e+001
         vertex 1.224647e-015 2.000000e+001 0.000000e+000
      endloop
   endfacet
   facet normal 1.000000e+000 0.000000e+000 0.000000e+000
      outer loop
         vertex 1.500000e+001 -1.500000e+000 3.050000e+001
         vertex 1.500000e+001 -1.500000e+000 0.000000e+000
         vertex 1.500000e+001 0.000000e+000 0.000000e+000
      endloop
   endfacet
   facet normal 1.000000e+000 -0.000000e+000 0.000000e+000
      outer loop
         vertex 1.500000e+001 0.000000e+000 3.050000e+001
         vertex 1.500000e+001 -1.500000e+000 3.050000e+001
         vertex 1.500000e+001 0.000000e+000 0.000000e+000
      endloop
   endfacet
   facet normal 0.000000e+000 1.000000e+000 -0.000000e+000
      outer loop
         vertex 1.500000e+001 0.000000e+000 3.050000e+001
         vertex 1.500000e+001 0.000000e+000 0.000000e+000
         vertex 5.000000e-001 0.000000e+000 0.000000e+000
      endloop
   endfacet
   facet normal 0.000000e+000 1.000000e+000 0.000000e+000
      outer loop
         vertex 5.000000e-001 0.000000e+000 3.050000e+001
         vertex 1.500000e+001 0.000000e+000 3.050000e+001
         vertex 5.000000e-001 0.000000e+000 0.000000e+000
      endloop
   endfacet
   facet normal -7.071068e-001 7.071068e-001 0.000000e+000
      outer loop
         vertex 5.000000e-001 0.000000e+000 3.050000e+001
         vertex 5.000000e-001 0.000000e+000 0.000000e+000
         vertex -3.061617e-017 -5.000000e-001 0.000000e+000
      endloop
   endfacet
   facet normal -7.071068e-001 7.071068e-001 0.000000e+000
      outer loop
         vertex -3.061617e-017 -5.000000e-001 3.050000e+001
         vertex 5.000000e-001 0.000000e+000 3.050000e+001
         vertex -3.061617e-017 -5.000000e-001 0.000000e+000
      endloop
   endfacet
   facet normal 0.000000e+000 1.000000e+000 -0.000000e+000
      outer loop
         vertex -3.061617e-017 -5.000000e-001 3.050000e+001
         vertex -3.061617e-017 -5.000000e-001 0.000000e+000
         vertex -2.000000e+000 -5.000000e-001 0.000000e+000
      endloop
   endfacet
   facet normal 0.000000e+000 1.000000e+000 0.000000e+000
      outer loop
         vertex -2.000000e+000 -5.000000e-001 3.050000e+001
         vertex -3.061617e-017 -5.000000e-001 3.050000e+001
         vertex -2.000000e+000 -5.000000e-001 0.000000e+000
      endloop
   endfacet
   facet normal 0.000000e+000 0.000000e+000 1.000000e+000
      outer loop
         vertex 5.000000e-001 0.000000e+000 0.000000e+000
         vertex -2.000000e+000 2.000000e+001 0.000000e+000
         vertex -2.000000e+000 -5.000000e-001 0.000000e+000
      endloop
   endfacet
   facet normal 0.000000e+000 0.000000e+000 1.000000e+000
      outer loop
         vertex 1.500000e+001 0.000000e+000 0.000000e+000
         vertex 2.000000e+001 1.000000e+000 0.000000e+000
         vertex 1.224647e-015 2.000000e+001 0.000000e+000
      endloop
   endfacet
   facet normal -0.000000e+000 0.000000e+000 1.000000e+000
      outer loop
         vertex 2.000000e+001 1.000000e+000 0.000000e+000
         vertex 1.500000e+001 0.000000e+000 0.000000e+000
         vertex 1.500000e+001 -1.500000e+000 0.000000e+000
      endloop
   endfacet
   facet normal 0.000000e+000 0.000000e+000 1.000000e+000
      outer loop
         vertex 5.000000e-001 0.000000e+000 0.000000e+000
         vertex -2.000000e+000 -5.000000e-001 0.000000e+000
         vertex -3.061617e-017 -5.000000e-001 0.000000e+000
      endloop
   endfacet
   facet normal 0.000000e+000 0.000000e+000 1.000000e+000
      outer loop
         vertex 5.000000e-001 0.000000e+000 0.000000e+000
         vertex 1.224647e-015 2.000000e+001 0.000000e+000
         vertex -2.000000e+000 2.000000e+001 0.000000e+000
      endloop
   endfacet
   facet normal 0.000000e+000 0.000000e+000 1.000000e+000
      outer loop
         vertex 5.000000e-001 0.000000e+000 0.000000e+000
         vertex 1.500000e+001 0.000000e+000 0.000000e+000
         vertex 1.224647e-015 2.000000e+001 0.000000e+000
      endloop
   endfacet
   facet normal 0.000000e+000 0.000000e+000 1.000000e+000
      outer loop
         vertex -2.000000e+000 2.200000e+001 3.250000e+001
         vertex -2.000000e+000 -1.500000e+000 3.250000e+001
         vertex 0.000000e+000 2.200000e+001 3.250000e+001
      endloop
   endfacet
   facet normal 0.000000e+000 -0.000000e+000 1.000000e+000
      outer loop
         vertex 1.500000e+001 -1.500000e+000 3.250000e+001
         vertex 2.000000e+001 1.000000e+000 3.250000e+001
         vertex 2.000000e+001 3.000000e+000 3.250000e+001
      endloop
   endfacet
   facet normal 0.000000e+000 0.000000e+000 1.000000e+000
      outer loop
         vertex 0.000000e+000 2.200000e+001 3.250000e+001
         vertex -2.000000e+000 -1.500000e+000 3.250000e+001
         vertex 1.500000e+001 -1.500000e+000 3.250000e+001
      endloop
   endfacet
   facet normal 0.000000e+000 0.000000e+000 1.000000e+000
      outer loop
         vertex 2.000000e+001 3.000000e+000 3.250000e+001
         vertex 0.000000e+000 2.200000e+001 3.250000e+001
         vertex 1.500000e+001 -1.500000e+000 3.250000e+001
      endloop
   endfacet
   facet normal 4.472136e-001 -8.944272e-001 0.000000e+000
      outer loop
         vertex 1.500000e+001 -1.500000e+000 3.250000e+001
         vertex 1.500000e+001 -1.500000e+000 3.050000e+001
         vertex 2.000000e+001 1.000000e+000 3.050000e+001
      endloop
   endfacet
   facet normal 4.472136e-001 -8.944272e-001 0.000000e+000
      outer loop
         vertex 2.000000e+001 1.000000e+000 3.250000e+001
         vertex 1.500000e+001 -1.500000e+000 3.250000e+001
         vertex 2.000000e+001 1.000000e+000 3.050000e+001
      endloop
   endfacet
   facet normal 4.472136e-001 -8.944272e-001 0.000000e+000
      outer loop
         vertex 2.000000e+001 1.000000e+000 -2.000000e+000
         vertex 2.000000e+001 1.000000e+000 0.000000e+000
         vertex 1.500000e+001 -1.500000e+000 0.000000e+000
      endloop
   endfacet
   facet normal 4.472136e-001 -8.944272e-001 0.000000e+000
      outer loop
         vertex 1.500000e+001 -1.500000e+000 -2.000000e+000
         vertex 2.000000e+001 1.000000e+000 -2.000000e+000
         vertex 1.500000e+001 -1.500000e+000 0.000000e+000
      endloop
   endfacet
   facet normal -0.000000e+000 0.000000e+000 -1.000000e+000
      outer loop
         vertex 2.000000e+001 3.000000e+000 -2.000000e+000
         vertex 2.000000e+001 1.000000e+000 -2.000000e+000
         vertex 1.500000e+001 -1.500000e+000 -2.000000e+000
      endloop
   endfacet
   facet normal 0.000000e+000 0.000000e+000 -1.000000e+000
      outer loop
         vertex -2.000000e+000 -1.500000e+000 -2.000000e+000
         vertex -2.000000e+000 2.200000e+001 -2.000000e+000
         vertex 1.347111e-015 2.200000e+001 -2.000000e+000
      endloop
   endfacet
   facet normal 0.000000e+000 0.000000e+000 -1.000000e+000
      outer loop
         vertex 2.000000e+001 3.000000e+000 -2.000000e+000
         vertex 1.500000e+001 -1.500000e+000 -2.000000e+000
         vertex 1.347111e-015 2.200000e+001 -2.000000e+000
      endloop
   endfacet
   facet normal 0.000000e+000 0.000000e+000 -1.000000e+000
      outer loop
         vertex 1.500000e+001 -1.500000e+000 -2.000000e+000
         vertex -2.000000e+000 -1.500000e+000 -2.000000e+000
         vertex 1.347111e-015 2.200000e+001 -2.000000e+000
      endloop
   endfacet
   facet normal 0.000000e+000 0.000000e+000 -1.000000e+000
      outer loop
         vertex 5.000000e-001 0.000000e+000 3.050000e+001
         vertex -2.000000e+000 2.000000e+001 3.050000e+001
         vertex 1.224647e-015 2.000000e+001 3.050000e+001
      endloop
   endfacet
   facet normal 0.000000e+000 0.000000e+000 -1.000000e+000
      outer loop
         vertex 5.000000e-001 0.000000e+000 3.050000e+001
         vertex -3.061617e-017 -5.000000e-001 3.050000e+001
         vertex -2.000000e+000 -5.000000e-001 3.050000e+001
      endloop
   endfacet
   facet normal 0.000000e+000 0.000000e+000 -1.000000e+000
      outer loop
         vertex 2.000000e+001 1.000000e+000 3.050000e+001
         vertex 1.500000e+001 -1.500000e+000 3.050000e+001
         vertex 1.500000e+001 0.000000e+000 3.050000e+001
      endloop
   endfacet
   facet normal 0.000000e+000 0.000000e+000 -1.000000e+000
      outer loop
         vertex 1.500000e+001 0.000000e+000 3.050000e+001
         vertex 5.000000e-001 0.000000e+000 3.050000e+001
         vertex 1.224647e-015 2.000000e+001 3.050000e+001
      endloop
   endfacet
   facet normal -0.000000e+000 0.000000e+000 -1.000000e+000
      outer loop
         vertex 1.224647e-015 2.000000e+001 3.050000e+001
         vertex 2.000000e+001 1.000000e+000 3.050000e+001
         vertex 1.500000e+001 0.000000e+000 3.050000e+001
      endloop
   endfacet
   facet normal 0.000000e+000 0.000000e+000 -1.000000e+000
      outer loop
         vertex 5.000000e-001 0.000000e+000 3.050000e+001
         vertex -2.000000e+000 -5.000000e-001 3.050000e+001
         vertex -2.000000e+000 2.000000e+001 3.050000e+001
      endloop
   endfacet
endsolid
