solid 
   facet normal 0.000000e+000 -1.000000e+000 0.000000e+000
      outer loop
         vertex -3.000000e+001 -1.700000e+001 -2.000000e+001
         vertex 0.000000e+000 -1.700000e+001 -2.000000e+001
         vertex -2.000000e+000 -1.700000e+001 -1.800000e+001
      endloop
   endfacet
   facet normal 0.000000e+000 -1.000000e+000 0.000000e+000
      outer loop
         vertex 0.000000e+000 -1.700000e+001 -3.303190e-016
         vertex -3.000000e+001 -1.700000e+001 -3.303190e-016
         vertex -2.000000e+000 -1.700000e+001 -2.000000e+000
      endloop
   endfacet
   facet normal 0.000000e+000 -1.000000e+000 -0.000000e+000
      outer loop
         vertex -2.000000e+000 -1.700000e+001 -1.800000e+001
         vertex -2.800000e+001 -1.700000e+001 -1.800000e+001
         vertex -3.000000e+001 -1.700000e+001 -2.000000e+001
      endloop
   endfacet
   facet normal 0.000000e+000 -1.000000e+000 0.000000e+000
      outer loop
         vertex -2.800000e+001 -1.700000e+001 -2.000000e+000
         vertex -2.000000e+000 -1.700000e+001 -2.000000e+000
         vertex -3.000000e+001 -1.700000e+001 -3.303190e-016
      endloop
   endfacet
   facet normal 0.000000e+000 -1.000000e+000 0.000000e+000
      outer loop
         vertex -2.000000e+000 -1.700000e+001 -1.800000e+001
         vertex 0.000000e+000 -1.700000e+001 -2.000000e+001
         vertex 0.000000e+000 -1.700000e+001 -3.303190e-016
      endloop
   endfacet
   facet normal 0.000000e+000 -1.000000e+000 0.000000e+000
      outer loop
         vertex -2.800000e+001 -1.700000e+001 -2.000000e+000
         vertex -3.000000e+001 -1.700000e+001 -3.303190e-016
         vertex -3.000000e+001 -1.700000e+001 -2.000000e+001
      endloop
   endfacet
   facet normal 0.000000e+000 -1.000000e+000 -0.000000e+000
      outer loop
         vertex -2.800000e+001 -1.700000e+001 -1.800000e+001
         vertex -2.800000e+001 -1.700000e+001 -2.000000e+000
         vertex -3.000000e+001 -1.700000e+001 -2.000000e+001
      endloop
   endfacet
   facet normal 0.000000e+000 -1.000000e+000 0.000000e+000
      outer loop
         vertex 0.000000e+000 -1.700000e+001 -3.303190e-016
         vertex -2.000000e+000 -1.700000e+001 -2.000000e+000
         vertex -2.000000e+000 -1.700000e+001 -1.800000e+001
      endloop
   endfacet
   facet normal -0.000000e+000 0.000000e+000 -1.000000e+000
      outer loop
         vertex -3.000000e+001 0.000000e+000 -2.000000e+001
         vertex 0.000000e+000 0.000000e+000 -2.000000e+001
         vertex -5.000000e+000 -1.000000e+000 -2.000000e+001
      endloop
   endfacet
   facet normal 0.000000e+000 0.000000e+000 -1.000000e+000
      outer loop
         vertex 0.000000e+000 -1.700000e+001 -2.000000e+001
         vertex -3.000000e+001 -1.700000e+001 -2.000000e+001
         vertex -5.000000e+000 -5.000000e+000 -2.000000e+001
      endloop
   endfacet
   facet normal 0.000000e+000 0.000000e+000 -1.000000e+000
      outer loop
         vertex -5.000000e+000 -5.000000e+000 -2.000000e+001
         vertex -5.000000e+000 -1.000000e+000 -2.000000e+001
         vertex 0.000000e+000 0.000000e+000 -2.000000e+001
      endloop
   endfacet
   facet normal 0.000000e+000 0.000000e+000 -1.000000e+000
      outer loop
         vertex -2.500000e+001 -1.000000e+000 -2.000000e+001
         vertex -2.500000e+001 -5.000000e+000 -2.000000e+001
         vertex -3.000000e+001 0.000000e+000 -2.000000e+001
      endloop
   endfacet
   facet normal 0.000000e+000 0.000000e+000 -1.000000e+000
      outer loop
         vertex -3.000000e+001 0.000000e+000 -2.000000e+001
         vertex -5.000000e+000 -1.000000e+000 -2.000000e+001
         vertex -2.500000e+001 -1.000000e+000 -2.000000e+001
      endloop
   endfacet
   facet normal 0.000000e+000 -0.000000e+000 -1.000000e+000
      outer loop
         vertex -5.000000e+000 -5.000000e+000 -2.000000e+001
         vertex 0.000000e+000 0.000000e+000 -2.000000e+001
         vertex 0.000000e+000 -1.700000e+001 -2.000000e+001
      endloop
   endfacet
   facet normal 0.000000e+000 0.000000e+000 -1.000000e+000
      outer loop
         vertex -3.000000e+001 -1.700000e+001 -2.000000e+001
         vertex -3.000000e+001 0.000000e+000 -2.000000e+001
         vertex -2.500000e+001 -5.000000e+000 -2.000000e+001
      endloop
   endfacet
   facet normal 0.000000e+000 0.000000e+000 -1.000000e+000
      outer loop
         vertex -5.000000e+000 -5.000000e+000 -2.000000e+001
         vertex -3.000000e+001 -1.700000e+001 -2.000000e+001
         vertex -2.500000e+001 -5.000000e+000 -2.000000e+001
      endloop
   endfacet
   facet normal -1.000000e+000 0.000000e+000 0.000000e+000
      outer loop
         vertex -5.000000e+000 -6.000000e+000 -1.800000e+001
         vertex -5.000000e+000 -7.000000e+000 -1.800000e+001
         vertex -5.000000e+000 -3.420678e+000 -1.394756e+001
      endloop
   endfacet
   facet normal -1.000000e+000 -0.000000e+000 0.000000e+000
      outer loop
         vertex -5.000000e+000 -7.000000e+000 -9.000000e+000
         vertex -5.000000e+000 -5.091770e+000 -1.134687e+001
         vertex -5.000000e+000 -7.000000e+000 -1.800000e+001
      endloop
   endfacet
   facet normal -1.000000e+000 -0.000000e+000 0.000000e+000
      outer loop
         vertex -5.000000e+000 -1.977369e+000 -1.684174e+001
         vertex -5.000000e+000 -1.500000e+000 -1.800000e+001
         vertex -5.000000e+000 -5.000000e+000 -2.000000e+001
      endloop
   endfacet
   facet normal -1.000000e+000 0.000000e+000 0.000000e+000
      outer loop
         vertex -5.000000e+000 -1.000000e+000 -2.000000e+001
         vertex -5.000000e+000 -5.000000e+000 -2.000000e+001
         vertex -5.000000e+000 -1.500000e+000 -1.800000e+001
      endloop
   endfacet
   facet normal -1.000000e+000 0.000000e+000 0.000000e+000
      outer loop
         vertex -5.000000e+000 -3.420678e+000 -1.394756e+001
         vertex -5.000000e+000 -7.000000e+000 -1.800000e+001
         vertex -5.000000e+000 -5.091770e+000 -1.134687e+001
      endloop
   endfacet
   facet normal -1.000000e+000 -0.000000e+000 0.000000e+000
      outer loop
         vertex -5.000000e+000 -3.420678e+000 -1.394756e+001
         vertex -5.000000e+000 -1.977369e+000 -1.684174e+001
         vertex -5.000000e+000 -6.000000e+000 -1.800000e+001
      endloop
   endfacet
   facet normal -1.000000e+000 0.000000e+000 0.000000e+000
      outer loop
         vertex -5.000000e+000 -1.977369e+000 -1.684174e+001
         vertex -5.000000e+000 -5.000000e+000 -2.000000e+001
         vertex -5.000000e+000 -6.000000e+000 -1.800000e+001
      endloop
   endfacet
   facet normal 1.000000e+000 0.000000e+000 0.000000e+000
      outer loop
         vertex -2.500000e+001 -7.000000e+000 -1.800000e+001
         vertex -2.500000e+001 -5.091770e+000 -1.134687e+001
         vertex -2.500000e+001 -7.000000e+000 -9.000000e+000
      endloop
   endfacet
   facet normal 1.000000e+000 0.000000e+000 0.000000e+000
      outer loop
         vertex -2.500000e+001 -6.000000e+000 -1.800000e+001
         vertex -2.500000e+001 -1.977369e+000 -1.684174e+001
         vertex -2.500000e+001 -3.420678e+000 -1.394756e+001
      endloop
   endfacet
   facet normal 1.000000e+000 0.000000e+000 0.000000e+000
      outer loop
         vertex -2.500000e+001 -5.000000e+000 -2.000000e+001
         vertex -2.500000e+001 -1.000000e+000 -2.000000e+001
         vertex -2.500000e+001 -1.500000e+000 -1.800000e+001
      endloop
   endfacet
   facet normal 1.000000e+000 0.000000e+000 0.000000e+000
      outer loop
         vertex -2.500000e+001 -3.420678e+000 -1.394756e+001
         vertex -2.500000e+001 -7.000000e+000 -1.800000e+001
         vertex -2.500000e+001 -6.000000e+000 -1.800000e+001
      endloop
   endfacet
   facet normal 1.000000e+000 0.000000e+000 0.000000e+000
      outer loop
         vertex -2.500000e+001 -5.000000e+000 -2.000000e+001
         vertex -2.500000e+001 -1.977369e+000 -1.684174e+001
         vertex -2.500000e+001 -6.000000e+000 -1.800000e+001
      endloop
   endfacet
   facet normal 1.000000e+000 0.000000e+000 0.000000e+000
      outer loop
         vertex -2.500000e+001 -1.500000e+000 -1.800000e+001
         vertex -2.500000e+001 -1.977369e+000 -1.684174e+001
         vertex -2.500000e+001 -5.000000e+000 -2.000000e+001
      endloop
   endfacet
   facet normal 1.000000e+000 0.000000e+000 0.000000e+000
      outer loop
         vertex -2.500000e+001 -7.000000e+000 -1.800000e+001
         vertex -2.500000e+001 -3.420678e+000 -1.394756e+001
         vertex -2.500000e+001 -5.091770e+000 -1.134687e+001
      endloop
   endfacet
   facet normal 0.000000e+000 8.944272e-001 4.472136e-001
      outer loop
         vertex -2.500000e+001 -6.000000e+000 -1.800000e+001
         vertex -5.000000e+000 -6.000000e+000 -1.800000e+001
         vertex -5.000000e+000 -5.000000e+000 -2.000000e+001
      endloop
   endfacet
   facet normal 0.000000e+000 8.944272e-001 4.472136e-001
      outer loop
         vertex -2.500000e+001 -6.000000e+000 -1.800000e+001
         vertex -5.000000e+000 -5.000000e+000 -2.000000e+001
         vertex -2.500000e+001 -5.000000e+000 -2.000000e+001
      endloop
   endfacet
   facet normal 0.000000e+000 -9.701425e-001 -2.425356e-001
      outer loop
         vertex -5.000000e+000 -1.500000e+000 -1.800000e+001
         vertex -2.500000e+001 -1.500000e+000 -1.800000e+001
         vertex -2.500000e+001 -1.000000e+000 -2.000000e+001
      endloop
   endfacet
   facet normal 0.000000e+000 -9.701425e-001 -2.425356e-001
      outer loop
         vertex -5.000000e+000 -1.500000e+000 -1.800000e+001
         vertex -2.500000e+001 -1.000000e+000 -2.000000e+001
         vertex -5.000000e+000 -1.000000e+000 -2.000000e+001
      endloop
   endfacet
   facet normal -0.000000e+000 -4.232456e-001 -9.060150e-001
      outer loop
         vertex -2.747134e+001 -1.523780e+001 -2.823214e+000
         vertex -2.000000e+000 -1.700000e+001 -2.000000e+000
         vertex -2.800000e+001 -1.700000e+001 -2.000000e+000
      endloop
   endfacet
   facet normal -0.000000e+000 -4.771150e-001 -8.788408e-001
      outer loop
         vertex -2.695985e+001 -1.353283e+001 -3.748828e+000
         vertex -3.040152e+000 -1.353283e+001 -3.748828e+000
         vertex -2.528661e+000 -1.523780e+001 -2.823214e+000
      endloop
   endfacet
   facet normal 0.000000e+000 -5.836257e-001 -8.120228e-001
      outer loop
         vertex -2.648873e+001 -1.196244e+001 -4.733325e+000
         vertex -3.947679e+000 -1.050774e+001 -5.778867e+000
         vertex -3.511267e+000 -1.196244e+001 -4.733325e+000
      endloop
   endfacet
   facet normal -0.000000e+000 -6.672667e-001 -7.448189e-001
      outer loop
         vertex -2.551739e+001 -8.724645e+000 -7.273282e+000
         vertex -4.482606e+000 -8.724645e+000 -7.273282e+000
         vertex -4.363554e+000 -9.121485e+000 -6.917761e+000
      endloop
   endfacet
   facet normal -0.000000e+000 -7.368906e-001 -6.760121e-001
      outer loop
         vertex -2.500000e+001 -7.000000e+000 -9.000000e+000
         vertex -5.000000e+000 -7.000000e+000 -9.000000e+000
         vertex -4.964964e+000 -7.116785e+000 -8.872698e+000
      endloop
   endfacet
   facet normal -0.000000e+000 -8.412933e-001 -5.405790e-001
      outer loop
         vertex -2.500000e+001 -3.420678e+000 -1.394756e+001
         vertex -5.000000e+000 -3.420678e+000 -1.394756e+001
         vertex -5.000000e+000 -5.091770e+000 -1.134687e+001
      endloop
   endfacet
   facet normal -0.000000e+000 -9.245549e-001 -3.810488e-001
      outer loop
         vertex -2.500000e+001 -1.500000e+000 -1.800000e+001
         vertex -5.000000e+000 -1.500000e+000 -1.800000e+001
         vertex -5.000000e+000 -1.977369e+000 -1.684174e+001
      endloop
   endfacet
   facet normal 0.000000e+000 -8.948941e-001 -4.462785e-001
      outer loop
         vertex -5.000000e+000 -3.420678e+000 -1.394756e+001
         vertex -2.500000e+001 -3.420678e+000 -1.394756e+001
         vertex -2.500000e+001 -1.977369e+000 -1.684174e+001
      endloop
   endfacet
   facet normal 0.000000e+000 -7.758881e-001 -6.308705e-001
      outer loop
         vertex -5.000000e+000 -7.000000e+000 -9.000000e+000
         vertex -2.500000e+001 -7.000000e+000 -9.000000e+000
         vertex -2.500000e+001 -5.091770e+000 -1.134687e+001
      endloop
   endfacet
   facet normal 0.000000e+000 -7.052428e-001 -7.089658e-001
      outer loop
         vertex -4.482606e+000 -8.724645e+000 -7.273282e+000
         vertex -2.551739e+001 -8.724645e+000 -7.273282e+000
         vertex -2.503504e+001 -7.116785e+000 -8.872698e+000
      endloop
   endfacet
   facet normal 0.000000e+000 -6.348018e-001 -7.726750e-001
      outer loop
         vertex -4.363554e+000 -9.121485e+000 -6.917761e+000
         vertex -2.605232e+001 -1.050774e+001 -5.778867e+000
         vertex -2.563645e+001 -9.121485e+000 -6.917761e+000
      endloop
   endfacet
   facet normal 0.000000e+000 -5.311650e-001 -8.472684e-001
      outer loop
         vertex -3.040152e+000 -1.353283e+001 -3.748828e+000
         vertex -2.695985e+001 -1.353283e+001 -3.748828e+000
         vertex -2.648873e+001 -1.196244e+001 -4.733325e+000
      endloop
   endfacet
   facet normal 0.000000e+000 -4.232456e-001 -9.060150e-001
      outer loop
         vertex -2.528661e+000 -1.523780e+001 -2.823214e+000
         vertex -2.000000e+000 -1.700000e+001 -2.000000e+000
         vertex -2.747134e+001 -1.523780e+001 -2.823214e+000
      endloop
   endfacet
   facet normal -0.000000e+000 -5.836257e-001 -8.120228e-001
      outer loop
         vertex -2.605232e+001 -1.050774e+001 -5.778867e+000
         vertex -3.947679e+000 -1.050774e+001 -5.778867e+000
         vertex -2.648873e+001 -1.196244e+001 -4.733325e+000
      endloop
   endfacet
   facet normal 0.000000e+000 -8.412933e-001 -5.405790e-001
      outer loop
         vertex -2.500000e+001 -5.091770e+000 -1.134687e+001
         vertex -2.500000e+001 -3.420678e+000 -1.394756e+001
         vertex -5.000000e+000 -5.091770e+000 -1.134687e+001
      endloop
   endfacet
   facet normal 0.000000e+000 -7.758881e-001 -6.308705e-001
      outer loop
         vertex -5.000000e+000 -5.091770e+000 -1.134687e+001
         vertex -5.000000e+000 -7.000000e+000 -9.000000e+000
         vertex -2.500000e+001 -5.091770e+000 -1.134687e+001
      endloop
   endfacet
   facet normal 0.000000e+000 -6.348018e-001 -7.726750e-001
      outer loop
         vertex -3.947679e+000 -1.050774e+001 -5.778867e+000
         vertex -2.605232e+001 -1.050774e+001 -5.778867e+000
         vertex -4.363554e+000 -9.121485e+000 -6.917761e+000
      endloop
   endfacet
   facet normal -0.000000e+000 -5.311650e-001 -8.472684e-001
      outer loop
         vertex -2.648873e+001 -1.196244e+001 -4.733325e+000
         vertex -3.511267e+000 -1.196244e+001 -4.733325e+000
         vertex -3.040152e+000 -1.353283e+001 -3.748828e+000
      endloop
   endfacet
   facet normal -0.000000e+000 -8.948941e-001 -4.462785e-001
      outer loop
         vertex -2.500000e+001 -1.977369e+000 -1.684174e+001
         vertex -5.000000e+000 -1.977369e+000 -1.684174e+001
         vertex -5.000000e+000 -3.420678e+000 -1.394756e+001
      endloop
   endfacet
   facet normal 0.000000e+000 -7.368906e-001 -6.760121e-001
      outer loop
         vertex -4.964964e+000 -7.116785e+000 -8.872698e+000
         vertex -2.503504e+001 -7.116785e+000 -8.872698e+000
         vertex -2.500000e+001 -7.000000e+000 -9.000000e+000
      endloop
   endfacet
   facet normal 0.000000e+000 -4.771150e-001 -8.788408e-001
      outer loop
         vertex -2.528661e+000 -1.523780e+001 -2.823214e+000
         vertex -2.747134e+001 -1.523780e+001 -2.823214e+000
         vertex -2.695985e+001 -1.353283e+001 -3.748828e+000
      endloop
   endfacet
   facet normal 0.000000e+000 -9.245549e-001 -3.810488e-001
      outer loop
         vertex -2.500000e+001 -1.977369e+000 -1.684174e+001
         vertex -2.500000e+001 -1.500000e+000 -1.800000e+001
         vertex -5.000000e+000 -1.977369e+000 -1.684174e+001
      endloop
   endfacet
   facet normal 0.000000e+000 -7.052428e-001 -7.089658e-001
      outer loop
         vertex -4.482606e+000 -8.724645e+000 -7.273282e+000
         vertex -2.503504e+001 -7.116785e+000 -8.872698e+000
         vertex -4.964964e+000 -7.116785e+000 -8.872698e+000
      endloop
   endfacet
   facet normal 0.000000e+000 -6.672667e-001 -7.448189e-001
      outer loop
         vertex -4.363554e+000 -9.121485e+000 -6.917761e+000
         vertex -2.563645e+001 -9.121485e+000 -6.917761e+000
         vertex -2.551739e+001 -8.724645e+000 -7.273282e+000
      endloop
   endfacet
   facet normal -0.000000e+000 0.000000e+000 1.000000e+000
      outer loop
         vertex -5.000000e+000 -6.000000e+000 -1.800000e+001
         vertex -2.500000e+001 -6.000000e+000 -1.800000e+001
         vertex -2.500000e+001 -7.000000e+000 -1.800000e+001
      endloop
   endfacet
   facet normal 0.000000e+000 0.000000e+000 1.000000e+000
      outer loop
         vertex -2.500000e+001 -7.000000e+000 -1.800000e+001
         vertex -2.000000e+000 -1.700000e+001 -1.800000e+001
         vertex -5.000000e+000 -7.000000e+000 -1.800000e+001
      endloop
   endfacet
   facet normal 0.000000e+000 0.000000e+000 1.000000e+000
      outer loop
         vertex -2.000000e+000 -1.700000e+001 -1.800000e+001
         vertex -2.500000e+001 -7.000000e+000 -1.800000e+001
         vertex -2.800000e+001 -1.700000e+001 -1.800000e+001
      endloop
   endfacet
   facet normal 0.000000e+000 -0.000000e+000 1.000000e+000
      outer loop
         vertex -2.500000e+001 -7.000000e+000 -1.800000e+001
         vertex -5.000000e+000 -7.000000e+000 -1.800000e+001
         vertex -5.000000e+000 -6.000000e+000 -1.800000e+001
      endloop
   endfacet
   facet normal 1.000000e+000 0.000000e+000 0.000000e+000
      outer loop
         vertex 0.000000e+000 -1.082278e+000 -1.716134e+001
         vertex 0.000000e+000 -1.700000e+001 -2.000000e+001
         vertex 0.000000e+000 0.000000e+000 -2.000000e+001
      endloop
   endfacet
   facet normal 1.000000e+000 0.000000e+000 0.000000e+000
      outer loop
         vertex 0.000000e+000 -1.700000e+001 -2.000000e+001
         vertex 0.000000e+000 -1.556476e+001 -2.676934e-001
         vertex 0.000000e+000 -1.700000e+001 -3.303190e-016
      endloop
   endfacet
   facet normal 1.000000e+000 0.000000e+000 0.000000e+000
      outer loop
         vertex 0.000000e+000 -1.700000e+001 -2.000000e+001
         vertex 0.000000e+000 -1.141649e+001 -2.157415e+000
         vertex 0.000000e+000 -1.278925e+001 -1.333812e+000
      endloop
   endfacet
   facet normal 1.000000e+000 0.000000e+000 0.000000e+000
      outer loop
         vertex 0.000000e+000 -1.700000e+001 -2.000000e+001
         vertex 0.000000e+000 -8.634509e+000 -4.517706e+000
         vertex 0.000000e+000 -1.003537e+001 -3.206637e+000
      endloop
   endfacet
   facet normal 1.000000e+000 0.000000e+000 0.000000e+000
      outer loop
         vertex 0.000000e+000 -1.700000e+001 -2.000000e+001
         vertex 0.000000e+000 -5.737967e+000 -8.127872e+000
         vertex 0.000000e+000 -7.204491e+000 -6.138031e+000
      endloop
   endfacet
   facet normal 1.000000e+000 0.000000e+000 0.000000e+000
      outer loop
         vertex 0.000000e+000 -1.700000e+001 -2.000000e+001
         vertex 0.000000e+000 -2.677764e+000 -1.353545e+001
         vertex 0.000000e+000 -4.229874e+000 -1.056258e+001
      endloop
   endfacet
   facet normal 1.000000e+000 0.000000e+000 0.000000e+000
      outer loop
         vertex 0.000000e+000 -2.677764e+000 -1.353545e+001
         vertex 0.000000e+000 -1.700000e+001 -2.000000e+001
         vertex 0.000000e+000 -1.082278e+000 -1.716134e+001
      endloop
   endfacet
   facet normal 1.000000e+000 0.000000e+000 0.000000e+000
      outer loop
         vertex 0.000000e+000 -1.003537e+001 -3.206637e+000
         vertex 0.000000e+000 -1.141649e+001 -2.157415e+000
         vertex 0.000000e+000 -1.700000e+001 -2.000000e+001
      endloop
   endfacet
   facet normal 1.000000e+000 0.000000e+000 0.000000e+000
      outer loop
         vertex 0.000000e+000 -4.229874e+000 -1.056258e+001
         vertex 0.000000e+000 -5.737967e+000 -8.127872e+000
         vertex 0.000000e+000 -1.700000e+001 -2.000000e+001
      endloop
   endfacet
   facet normal 1.000000e+000 0.000000e+000 0.000000e+000
      outer loop
         vertex 0.000000e+000 -1.700000e+001 -2.000000e+001
         vertex 0.000000e+000 -1.416693e+001 -7.095797e-001
         vertex 0.000000e+000 -1.556476e+001 -2.676934e-001
      endloop
   endfacet
   facet normal 1.000000e+000 0.000000e+000 0.000000e+000
      outer loop
         vertex 0.000000e+000 -1.700000e+001 -2.000000e+001
         vertex 0.000000e+000 -7.204491e+000 -6.138031e+000
         vertex 0.000000e+000 -8.634509e+000 -4.517706e+000
      endloop
   endfacet
   facet normal 1.000000e+000 0.000000e+000 0.000000e+000
      outer loop
         vertex 0.000000e+000 -1.278925e+001 -1.333812e+000
         vertex 0.000000e+000 -1.416693e+001 -7.095797e-001
         vertex 0.000000e+000 -1.700000e+001 -2.000000e+001
      endloop
   endfacet
   facet normal 0.000000e+000 1.833533e-001 9.830471e-001
      outer loop
         vertex -3.000000e+001 -1.700000e+001 -3.303190e-016
         vertex 0.000000e+000 -1.700000e+001 -3.303190e-016
         vertex 0.000000e+000 -1.556476e+001 -2.676934e-001
      endloop
   endfacet
   facet normal 0.000000e+000 4.127141e-001 9.108606e-001
      outer loop
         vertex 0.000000e+000 -1.416693e+001 -7.095797e-001
         vertex 0.000000e+000 -1.278925e+001 -1.333812e+000
         vertex -3.000000e+001 -1.278925e+001 -1.333812e+000
      endloop
   endfacet
   facet normal 0.000000e+000 6.049253e-001 7.962822e-001
      outer loop
         vertex 0.000000e+000 -1.141649e+001 -2.157415e+000
         vertex 0.000000e+000 -1.003537e+001 -3.206637e+000
         vertex -3.000000e+001 -1.003537e+001 -3.206637e+000
      endloop
   endfacet
   facet normal 0.000000e+000 7.497643e-001 6.617049e-001
      outer loop
         vertex 0.000000e+000 -8.634509e+000 -4.517706e+000
         vertex 0.000000e+000 -7.204491e+000 -6.138031e+000
         vertex -3.000000e+001 -7.204491e+000 -6.138031e+000
      endloop
   endfacet
   facet normal 0.000000e+000 8.501257e-001 5.265798e-001
      outer loop
         vertex 0.000000e+000 -5.737967e+000 -8.127872e+000
         vertex 0.000000e+000 -4.229874e+000 -1.056258e+001
         vertex -3.000000e+001 -4.229874e+000 -1.056258e+001
      endloop
   endfacet
   facet normal 0.000000e+000 9.153060e-001 4.027590e-001
      outer loop
         vertex 0.000000e+000 -2.677764e+000 -1.353545e+001
         vertex 0.000000e+000 -1.082278e+000 -1.716134e+001
         vertex -3.000000e+001 -1.082278e+000 -1.716134e+001
      endloop
   endfacet
   facet normal -0.000000e+000 9.343909e-001 3.562493e-001
      outer loop
         vertex 0.000000e+000 0.000000e+000 -2.000000e+001
         vertex -3.000000e+001 0.000000e+000 -2.000000e+001
         vertex 0.000000e+000 -1.082278e+000 -1.716134e+001
      endloop
   endfacet
   facet normal -0.000000e+000 8.864569e-001 4.628112e-001
      outer loop
         vertex -3.000000e+001 -2.677764e+000 -1.353545e+001
         vertex -3.000000e+001 -4.229874e+000 -1.056258e+001
         vertex 0.000000e+000 -4.229874e+000 -1.056258e+001
      endloop
   endfacet
   facet normal -0.000000e+000 8.049932e-001 5.932841e-001
      outer loop
         vertex -3.000000e+001 -5.737967e+000 -8.127872e+000
         vertex -3.000000e+001 -7.204491e+000 -6.138031e+000
         vertex 0.000000e+000 -7.204491e+000 -6.138031e+000
      endloop
   endfacet
   facet normal -0.000000e+000 6.833202e-001 7.301188e-001
      outer loop
         vertex -3.000000e+001 -8.634509e+000 -4.517706e+000
         vertex -3.000000e+001 -1.003537e+001 -3.206637e+000
         vertex 0.000000e+000 -1.003537e+001 -3.206637e+000
      endloop
   endfacet
   facet normal -0.000000e+000 5.144717e-001 8.575073e-001
      outer loop
         vertex -3.000000e+001 -1.141649e+001 -2.157415e+000
         vertex -3.000000e+001 -1.278925e+001 -1.333812e+000
         vertex 0.000000e+000 -1.278925e+001 -1.333812e+000
      endloop
   endfacet
   facet normal -0.000000e+000 3.014206e-001 9.534913e-001
      outer loop
         vertex -3.000000e+001 -1.416693e+001 -7.095797e-001
         vertex -3.000000e+001 -1.556476e+001 -2.676934e-001
         vertex 0.000000e+000 -1.556476e+001 -2.676934e-001
      endloop
   endfacet
   facet normal 0.000000e+000 1.833533e-001 9.830471e-001
      outer loop
         vertex -3.000000e+001 -1.700000e+001 -3.303190e-016
         vertex 0.000000e+000 -1.556476e+001 -2.676934e-001
         vertex -3.000000e+001 -1.556476e+001 -2.676934e-001
      endloop
   endfacet
   facet normal 0.000000e+000 7.497643e-001 6.617049e-001
      outer loop
         vertex 0.000000e+000 -8.634509e+000 -4.517706e+000
         vertex -3.000000e+001 -7.204491e+000 -6.138031e+000
         vertex -3.000000e+001 -8.634509e+000 -4.517706e+000
      endloop
   endfacet
   facet normal 0.000000e+000 9.343909e-001 3.562493e-001
      outer loop
         vertex -3.000000e+001 -1.082278e+000 -1.716134e+001
         vertex 0.000000e+000 -1.082278e+000 -1.716134e+001
         vertex -3.000000e+001 0.000000e+000 -2.000000e+001
      endloop
   endfacet
   facet normal 0.000000e+000 6.833202e-001 7.301188e-001
      outer loop
         vertex -3.000000e+001 -8.634509e+000 -4.517706e+000
         vertex 0.000000e+000 -1.003537e+001 -3.206637e+000
         vertex 0.000000e+000 -8.634509e+000 -4.517706e+000
      endloop
   endfacet
   facet normal 0.000000e+000 3.014206e-001 9.534913e-001
      outer loop
         vertex 0.000000e+000 -1.556476e+001 -2.676934e-001
         vertex 0.000000e+000 -1.416693e+001 -7.095797e-001
         vertex -3.000000e+001 -1.416693e+001 -7.095797e-001
      endloop
   endfacet
   facet normal 0.000000e+000 8.049932e-001 5.932841e-001
      outer loop
         vertex 0.000000e+000 -7.204491e+000 -6.138031e+000
         vertex 0.000000e+000 -5.737967e+000 -8.127872e+000
         vertex -3.000000e+001 -5.737967e+000 -8.127872e+000
      endloop
   endfacet
   facet normal -0.000000e+000 9.153060e-001 4.027590e-001
      outer loop
         vertex -3.000000e+001 -1.082278e+000 -1.716134e+001
         vertex -3.000000e+001 -2.677764e+000 -1.353545e+001
         vertex 0.000000e+000 -2.677764e+000 -1.353545e+001
      endloop
   endfacet
   facet normal -0.000000e+000 6.049253e-001 7.962822e-001
      outer loop
         vertex -3.000000e+001 -1.003537e+001 -3.206637e+000
         vertex -3.000000e+001 -1.141649e+001 -2.157415e+000
         vertex 0.000000e+000 -1.141649e+001 -2.157415e+000
      endloop
   endfacet
   facet normal 0.000000e+000 4.127141e-001 9.108606e-001
      outer loop
         vertex 0.000000e+000 -1.416693e+001 -7.095797e-001
         vertex -3.000000e+001 -1.278925e+001 -1.333812e+000
         vertex -3.000000e+001 -1.416693e+001 -7.095797e-001
      endloop
   endfacet
   facet normal 0.000000e+000 5.144717e-001 8.575073e-001
      outer loop
         vertex -3.000000e+001 -1.141649e+001 -2.157415e+000
         vertex 0.000000e+000 -1.278925e+001 -1.333812e+000
         vertex 0.000000e+000 -1.141649e+001 -2.157415e+000
      endloop
   endfacet
   facet normal 0.000000e+000 8.864569e-001 4.628112e-001
      outer loop
         vertex 0.000000e+000 -4.229874e+000 -1.056258e+001
         vertex 0.000000e+000 -2.677764e+000 -1.353545e+001
         vertex -3.000000e+001 -2.677764e+000 -1.353545e+001
      endloop
   endfacet
   facet normal 0.000000e+000 8.501257e-001 5.265798e-001
      outer loop
         vertex 0.000000e+000 -5.737967e+000 -8.127872e+000
         vertex -3.000000e+001 -4.229874e+000 -1.056258e+001
         vertex -3.000000e+001 -5.737967e+000 -8.127872e+000
      endloop
   endfacet
   facet normal -1.000000e+000 0.000000e+000 0.000000e+000
      outer loop
         vertex -3.000000e+001 -1.082278e+000 -1.716134e+001
         vertex -3.000000e+001 0.000000e+000 -2.000000e+001
         vertex -3.000000e+001 -1.700000e+001 -2.000000e+001
      endloop
   endfacet
   facet normal -1.000000e+000 -0.000000e+000 0.000000e+000
      outer loop
         vertex -3.000000e+001 -1.700000e+001 -3.303190e-016
         vertex -3.000000e+001 -1.556476e+001 -2.676934e-001
         vertex -3.000000e+001 -1.700000e+001 -2.000000e+001
      endloop
   endfacet
   facet normal -1.000000e+000 -0.000000e+000 0.000000e+000
      outer loop
         vertex -3.000000e+001 -1.278925e+001 -1.333812e+000
         vertex -3.000000e+001 -1.141649e+001 -2.157415e+000
         vertex -3.000000e+001 -1.700000e+001 -2.000000e+001
      endloop
   endfacet
   facet normal -1.000000e+000 -0.000000e+000 0.000000e+000
      outer loop
         vertex -3.000000e+001 -1.003537e+001 -3.206637e+000
         vertex -3.000000e+001 -8.634509e+000 -4.517706e+000
         vertex -3.000000e+001 -1.700000e+001 -2.000000e+001
      endloop
   endfacet
   facet normal -1.000000e+000 -0.000000e+000 0.000000e+000
      outer loop
         vertex -3.000000e+001 -7.204491e+000 -6.138031e+000
         vertex -3.000000e+001 -5.737967e+000 -8.127872e+000
         vertex -3.000000e+001 -1.700000e+001 -2.000000e+001
      endloop
   endfacet
   facet normal -1.000000e+000 -0.000000e+000 0.000000e+000
      outer loop
         vertex -3.000000e+001 -4.229874e+000 -1.056258e+001
         vertex -3.000000e+001 -2.677764e+000 -1.353545e+001
         vertex -3.000000e+001 -1.700000e+001 -2.000000e+001
      endloop
   endfacet
   facet normal -1.000000e+000 0.000000e+000 0.000000e+000
      outer loop
         vertex -3.000000e+001 -1.082278e+000 -1.716134e+001
         vertex -3.000000e+001 -1.700000e+001 -2.000000e+001
         vertex -3.000000e+001 -2.677764e+000 -1.353545e+001
      endloop
   endfacet
   facet normal -1.000000e+000 0.000000e+000 -0.000000e+000
      outer loop
         vertex -3.000000e+001 -1.700000e+001 -2.000000e+001
         vertex -3.000000e+001 -1.141649e+001 -2.157415e+000
         vertex -3.000000e+001 -1.003537e+001 -3.206637e+000
      endloop
   endfacet
   facet normal -1.000000e+000 0.000000e+000 -0.000000e+000
      outer loop
         vertex -3.000000e+001 -1.700000e+001 -2.000000e+001
         vertex -3.000000e+001 -5.737967e+000 -8.127872e+000
         vertex -3.000000e+001 -4.229874e+000 -1.056258e+001
      endloop
   endfacet
   facet normal -1.000000e+000 -0.000000e+000 0.000000e+000
      outer loop
         vertex -3.000000e+001 -1.556476e+001 -2.676934e-001
         vertex -3.000000e+001 -1.416693e+001 -7.095797e-001
         vertex -3.000000e+001 -1.700000e+001 -2.000000e+001
      endloop
   endfacet
   facet normal -1.000000e+000 -0.000000e+000 0.000000e+000
      outer loop
         vertex -3.000000e+001 -8.634509e+000 -4.517706e+000
         vertex -3.000000e+001 -7.204491e+000 -6.138031e+000
         vertex -3.000000e+001 -1.700000e+001 -2.000000e+001
      endloop
   endfacet
   facet normal -1.000000e+000 0.000000e+000 -0.000000e+000
      outer loop
         vertex -3.000000e+001 -1.700000e+001 -2.000000e+001
         vertex -3.000000e+001 -1.416693e+001 -7.095797e-001
         vertex -3.000000e+001 -1.278925e+001 -1.333812e+000
      endloop
   endfacet
   facet normal -9.578263e-001 -2.873479e-001 1.000793e-008
      outer loop
         vertex -4.964964e+000 -7.116785e+000 -8.872698e+000
         vertex -5.000000e+000 -7.000000e+000 -1.800000e+001
         vertex -2.000000e+000 -1.700000e+001 -1.800000e+001
      endloop
   endfacet
   facet normal -9.578261e-001 -2.873486e-001 0.000000e+000
      outer loop
         vertex -5.000000e+000 -7.000000e+000 -1.800000e+001
         vertex -4.964964e+000 -7.116785e+000 -8.872698e+000
         vertex -5.000000e+000 -7.000000e+000 -9.000000e+000
      endloop
   endfacet
   facet normal -9.578263e-001 -2.873477e-001 -1.166427e-007
      outer loop
         vertex -2.000000e+000 -1.700000e+001 -1.800000e+001
         vertex -3.947679e+000 -1.050774e+001 -5.778867e+000
         vertex -4.363554e+000 -9.121485e+000 -6.917761e+000
      endloop
   endfacet
   facet normal -9.578263e-001 -2.873480e-001 2.455765e-008
      outer loop
         vertex -2.000000e+000 -1.700000e+001 -1.800000e+001
         vertex -3.040152e+000 -1.353283e+001 -3.748828e+000
         vertex -3.511267e+000 -1.196244e+001 -4.733325e+000
      endloop
   endfacet
   facet normal -9.578263e-001 -2.873480e-001 -0.000000e+000
      outer loop
         vertex -2.000000e+000 -1.700000e+001 -1.800000e+001
         vertex -2.000000e+000 -1.700000e+001 -2.000000e+000
         vertex -2.528661e+000 -1.523780e+001 -2.823214e+000
      endloop
   endfacet
   facet normal -9.578261e-001 -2.873484e-001 4.300913e-007
      outer loop
         vertex -4.482606e+000 -8.724645e+000 -7.273282e+000
         vertex -2.000000e+000 -1.700000e+001 -1.800000e+001
         vertex -4.363554e+000 -9.121485e+000 -6.917761e+000
      endloop
   endfacet
   facet normal -9.578263e-001 -2.873478e-001 -1.727065e-008
      outer loop
         vertex -2.528661e+000 -1.523780e+001 -2.823214e+000
         vertex -3.040152e+000 -1.353283e+001 -3.748828e+000
         vertex -2.000000e+000 -1.700000e+001 -1.800000e+001
      endloop
   endfacet
   facet normal -9.578263e-001 -2.873479e-001 3.443441e-008
      outer loop
         vertex -2.000000e+000 -1.700000e+001 -1.800000e+001
         vertex -4.482606e+000 -8.724645e+000 -7.273282e+000
         vertex -4.964964e+000 -7.116785e+000 -8.872698e+000
      endloop
   endfacet
   facet normal -9.578263e-001 -2.873478e-001 -6.701245e-008
      outer loop
         vertex -3.511267e+000 -1.196244e+001 -4.733325e+000
         vertex -3.947679e+000 -1.050774e+001 -5.778867e+000
         vertex -2.000000e+000 -1.700000e+001 -1.800000e+001
      endloop
   endfacet
   facet normal 9.578264e-001 -2.873476e-001 0.000000e+000
      outer loop
         vertex -2.747134e+001 -1.523780e+001 -2.823214e+000
         vertex -2.800000e+001 -1.700000e+001 -2.000000e+000
         vertex -2.800000e+001 -1.700000e+001 -1.800000e+001
      endloop
   endfacet
   facet normal 9.578250e-001 -2.873522e-001 0.000000e+000
      outer loop
         vertex -2.500000e+001 -7.000000e+000 -1.800000e+001
         vertex -2.500000e+001 -7.000000e+000 -9.000000e+000
         vertex -2.503504e+001 -7.116785e+000 -8.872698e+000
      endloop
   endfacet
   facet normal 9.578259e-001 -2.873490e-001 9.299393e-007
      outer loop
         vertex -2.551739e+001 -8.724645e+000 -7.273282e+000
         vertex -2.563645e+001 -9.121485e+000 -6.917761e+000
         vertex -2.800000e+001 -1.700000e+001 -1.800000e+001
      endloop
   endfacet
   facet normal 9.578262e-001 -2.873482e-001 1.473472e-007
      outer loop
         vertex -2.605232e+001 -1.050774e+001 -5.778867e+000
         vertex -2.648873e+001 -1.196244e+001 -4.733325e+000
         vertex -2.800000e+001 -1.700000e+001 -1.800000e+001
      endloop
   endfacet
   facet normal 9.578263e-001 -2.873479e-001 3.982306e-008
      outer loop
         vertex -2.695985e+001 -1.353283e+001 -3.748828e+000
         vertex -2.747134e+001 -1.523780e+001 -2.823214e+000
         vertex -2.800000e+001 -1.700000e+001 -1.800000e+001
      endloop
   endfacet
   facet normal 9.578264e-001 -2.873476e-001 -2.376375e-007
      outer loop
         vertex -2.551739e+001 -8.724645e+000 -7.273282e+000
         vertex -2.800000e+001 -1.700000e+001 -1.800000e+001
         vertex -2.503504e+001 -7.116785e+000 -8.872698e+000
      endloop
   endfacet
   facet normal 9.578263e-001 -2.873480e-001 5.236483e-008
      outer loop
         vertex -2.800000e+001 -1.700000e+001 -1.800000e+001
         vertex -2.648873e+001 -1.196244e+001 -4.733325e+000
         vertex -2.695985e+001 -1.353283e+001 -3.748828e+000
      endloop
   endfacet
   facet normal 9.578263e-001 -2.873479e-001 6.004760e-008
      outer loop
         vertex -2.800000e+001 -1.700000e+001 -1.800000e+001
         vertex -2.500000e+001 -7.000000e+000 -1.800000e+001
         vertex -2.503504e+001 -7.116785e+000 -8.872698e+000
      endloop
   endfacet
   facet normal 9.578264e-001 -2.873475e-001 -2.645058e-007
      outer loop
         vertex -2.800000e+001 -1.700000e+001 -1.800000e+001
         vertex -2.563645e+001 -9.121485e+000 -6.917761e+000
         vertex -2.605232e+001 -1.050774e+001 -5.778867e+000
      endloop
   endfacet
endsolid
