solid 
   facet normal 0.000000e+000 0.000000e+000 1.000000e+000
      outer loop
         vertex -1.452836e+000 3.731852e-001 3.000000e+001
         vertex -1.479020e+000 2.500000e-001 3.000000e+001
         vertex -1.405869e+000 5.230036e-001 3.000000e+001
      endloop
   endfacet
   facet normal 0.000000e+000 0.000000e+000 1.000000e+000
      outer loop
         vertex 1.479020e+000 2.500000e-001 3.000000e+001
         vertex 1.444786e+000 4.032302e-001 3.000000e+001
         vertex 1.394722e+000 5.520424e-001 3.000000e+001
      endloop
   endfacet
   facet normal 0.000000e+000 0.000000e+000 1.000000e+000
      outer loop
         vertex 1.329377e+000 6.948065e-001 3.000000e+001
         vertex 1.249468e+000 8.299580e-001 3.000000e+001
         vertex 1.394722e+000 5.520424e-001 3.000000e+001
      endloop
   endfacet
   facet normal 0.000000e+000 0.000000e+000 1.000000e+000
      outer loop
         vertex 1.049606e+000 1.071600e+000 3.000000e+001
         vertex 9.318433e-001 1.175444e+000 3.000000e+001
         vertex 8.038713e-001 1.266409e+000 3.000000e+001
      endloop
   endfacet
   facet normal 0.000000e+000 0.000000e+000 1.000000e+000
      outer loop
         vertex 6.670918e-001 1.343499e+000 3.000000e+001
         vertex 5.230036e-001 1.405869e+000 3.000000e+001
         vertex 2.192782e-001 1.483886e+000 3.000000e+001
      endloop
   endfacet
   facet normal 0.000000e+000 0.000000e+000 1.000000e+000
      outer loop
         vertex 3.731852e-001 1.452836e+000 3.000000e+001
         vertex 2.192782e-001 1.483886e+000 3.000000e+001
         vertex 5.230036e-001 1.405869e+000 3.000000e+001
      endloop
   endfacet
   facet normal -0.000000e+000 0.000000e+000 1.000000e+000
      outer loop
         vertex -9.403079e-002 1.497050e+000 3.000000e+001
         vertex -2.500000e-001 1.479020e+000 3.000000e+001
         vertex -6.948065e-001 1.329377e+000 3.000000e+001
      endloop
   endfacet
   facet normal -0.000000e+000 0.000000e+000 1.000000e+000
      outer loop
         vertex -4.032302e-001 1.444786e+000 3.000000e+001
         vertex -5.520424e-001 1.394722e+000 3.000000e+001
         vertex -6.948065e-001 1.329377e+000 3.000000e+001
      endloop
   endfacet
   facet normal -0.000000e+000 0.000000e+000 1.000000e+000
      outer loop
         vertex -8.299580e-001 1.249468e+000 3.000000e+001
         vertex -9.560163e-001 1.155869e+000 3.000000e+001
         vertex -1.071600e+000 1.049606e+000 3.000000e+001
      endloop
   endfacet
   facet normal 0.000000e+000 0.000000e+000 1.000000e+000
      outer loop
         vertex -1.175444e+000 9.318433e-001 3.000000e+001
         vertex -1.266409e+000 8.038713e-001 3.000000e+001
         vertex -1.071600e+000 1.049606e+000 3.000000e+001
      endloop
   endfacet
   facet normal 0.000000e+000 0.000000e+000 1.000000e+000
      outer loop
         vertex -1.405869e+000 5.230036e-001 3.000000e+001
         vertex -1.479020e+000 2.500000e-001 3.000000e+001
         vertex -1.343499e+000 6.670918e-001 3.000000e+001
      endloop
   endfacet
   facet normal 0.000000e+000 0.000000e+000 1.000000e+000
      outer loop
         vertex 1.049606e+000 1.071600e+000 3.000000e+001
         vertex 8.038713e-001 1.266409e+000 3.000000e+001
         vertex 6.670918e-001 1.343499e+000 3.000000e+001
      endloop
   endfacet
   facet normal 0.000000e+000 0.000000e+000 1.000000e+000
      outer loop
         vertex -6.948065e-001 1.329377e+000 3.000000e+001
         vertex -2.500000e-001 1.479020e+000 3.000000e+001
         vertex -4.032302e-001 1.444786e+000 3.000000e+001
      endloop
   endfacet
   facet normal 0.000000e+000 0.000000e+000 1.000000e+000
      outer loop
         vertex -1.343499e+000 6.670918e-001 3.000000e+001
         vertex -1.479020e+000 2.500000e-001 3.000000e+001
         vertex -9.403079e-002 1.497050e+000 3.000000e+001
      endloop
   endfacet
   facet normal 0.000000e+000 0.000000e+000 1.000000e+000
      outer loop
         vertex -1.343499e+000 6.670918e-001 3.000000e+001
         vertex -9.403079e-002 1.497050e+000 3.000000e+001
         vertex -1.071600e+000 1.049606e+000 3.000000e+001
      endloop
   endfacet
   facet normal 0.000000e+000 0.000000e+000 1.000000e+000
      outer loop
         vertex -1.343499e+000 6.670918e-001 3.000000e+001
         vertex -1.071600e+000 1.049606e+000 3.000000e+001
         vertex -1.266409e+000 8.038713e-001 3.000000e+001
      endloop
   endfacet
   facet normal 0.000000e+000 0.000000e+000 1.000000e+000
      outer loop
         vertex -1.479020e+000 2.500000e-001 3.000000e+001
         vertex 1.479020e+000 2.500000e-001 3.000000e+001
         vertex 1.394722e+000 5.520424e-001 3.000000e+001
      endloop
   endfacet
   facet normal 0.000000e+000 0.000000e+000 1.000000e+000
      outer loop
         vertex 1.155869e+000 9.560163e-001 3.000000e+001
         vertex 1.049606e+000 1.071600e+000 3.000000e+001
         vertex 1.249468e+000 8.299580e-001 3.000000e+001
      endloop
   endfacet
   facet normal 0.000000e+000 0.000000e+000 1.000000e+000
      outer loop
         vertex -6.948065e-001 1.329377e+000 3.000000e+001
         vertex -8.299580e-001 1.249468e+000 3.000000e+001
         vertex -9.403079e-002 1.497050e+000 3.000000e+001
      endloop
   endfacet
   facet normal 0.000000e+000 0.000000e+000 1.000000e+000
      outer loop
         vertex 6.670918e-001 1.343499e+000 3.000000e+001
         vertex 2.192782e-001 1.483886e+000 3.000000e+001
         vertex 1.049606e+000 1.071600e+000 3.000000e+001
      endloop
   endfacet
   facet normal 0.000000e+000 0.000000e+000 1.000000e+000
      outer loop
         vertex -9.403079e-002 1.497050e+000 3.000000e+001
         vertex -1.479020e+000 2.500000e-001 3.000000e+001
         vertex 1.394722e+000 5.520424e-001 3.000000e+001
      endloop
   endfacet
   facet normal 0.000000e+000 0.000000e+000 1.000000e+000
      outer loop
         vertex 1.249468e+000 8.299580e-001 3.000000e+001
         vertex 1.049606e+000 1.071600e+000 3.000000e+001
         vertex 1.394722e+000 5.520424e-001 3.000000e+001
      endloop
   endfacet
   facet normal 0.000000e+000 0.000000e+000 1.000000e+000
      outer loop
         vertex -9.403079e-002 1.497050e+000 3.000000e+001
         vertex 1.394722e+000 5.520424e-001 3.000000e+001
         vertex 1.049606e+000 1.071600e+000 3.000000e+001
      endloop
   endfacet
   facet normal -0.000000e+000 0.000000e+000 1.000000e+000
      outer loop
         vertex 6.296863e-002 1.498678e+000 3.000000e+001
         vertex -9.403079e-002 1.497050e+000 3.000000e+001
         vertex 2.192782e-001 1.483886e+000 3.000000e+001
      endloop
   endfacet
   facet normal -0.000000e+000 0.000000e+000 1.000000e+000
      outer loop
         vertex -9.403079e-002 1.497050e+000 3.000000e+001
         vertex -8.299580e-001 1.249468e+000 3.000000e+001
         vertex -1.071600e+000 1.049606e+000 3.000000e+001
      endloop
   endfacet
   facet normal 0.000000e+000 0.000000e+000 1.000000e+000
      outer loop
         vertex 1.049606e+000 1.071600e+000 3.000000e+001
         vertex 2.192782e-001 1.483886e+000 3.000000e+001
         vertex -9.403079e-002 1.497050e+000 3.000000e+001
      endloop
   endfacet
   facet normal 0.000000e+000 0.000000e+000 1.000000e+000
      outer loop
         vertex 1.452836e+000 -3.731852e-001 3.000000e+001
         vertex 1.479020e+000 -2.500000e-001 3.000000e+001
         vertex 1.405869e+000 -5.230036e-001 3.000000e+001
      endloop
   endfacet
   facet normal -0.000000e+000 -0.000000e+000 1.000000e+000
      outer loop
         vertex -1.479020e+000 -2.500000e-001 3.000000e+001
         vertex -1.444786e+000 -4.032302e-001 3.000000e+001
         vertex -1.394722e+000 -5.520424e-001 3.000000e+001
      endloop
   endfacet
   facet normal -0.000000e+000 -0.000000e+000 1.000000e+000
      outer loop
         vertex -1.329377e+000 -6.948065e-001 3.000000e+001
         vertex -1.249468e+000 -8.299580e-001 3.000000e+001
         vertex -1.155869e+000 -9.560163e-001 3.000000e+001
      endloop
   endfacet
   facet normal 0.000000e+000 0.000000e+000 1.000000e+000
      outer loop
         vertex -1.049606e+000 -1.071600e+000 3.000000e+001
         vertex -9.318433e-001 -1.175444e+000 3.000000e+001
         vertex -1.155869e+000 -9.560163e-001 3.000000e+001
      endloop
   endfacet
   facet normal 0.000000e+000 0.000000e+000 1.000000e+000
      outer loop
         vertex -6.670918e-001 -1.343499e+000 3.000000e+001
         vertex -5.230036e-001 -1.405869e+000 3.000000e+001
         vertex -8.038713e-001 -1.266409e+000 3.000000e+001
      endloop
   endfacet
   facet normal 0.000000e+000 -0.000000e+000 1.000000e+000
      outer loop
         vertex -2.192782e-001 -1.483886e+000 3.000000e+001
         vertex -6.296863e-002 -1.498678e+000 3.000000e+001
         vertex 9.403079e-002 -1.497050e+000 3.000000e+001
      endloop
   endfacet
   facet normal 0.000000e+000 0.000000e+000 1.000000e+000
      outer loop
         vertex 2.500000e-001 -1.479020e+000 3.000000e+001
         vertex 4.032302e-001 -1.444786e+000 3.000000e+001
         vertex 9.403079e-002 -1.497050e+000 3.000000e+001
      endloop
   endfacet
   facet normal 0.000000e+000 -0.000000e+000 1.000000e+000
      outer loop
         vertex 6.948065e-001 -1.329377e+000 3.000000e+001
         vertex 8.299580e-001 -1.249468e+000 3.000000e+001
         vertex 9.560163e-001 -1.155869e+000 3.000000e+001
      endloop
   endfacet
   facet normal 0.000000e+000 0.000000e+000 1.000000e+000
      outer loop
         vertex 1.071600e+000 -1.049606e+000 3.000000e+001
         vertex 1.175444e+000 -9.318433e-001 3.000000e+001
         vertex 6.948065e-001 -1.329377e+000 3.000000e+001
      endloop
   endfacet
   facet normal 0.000000e+000 -0.000000e+000 1.000000e+000
      outer loop
         vertex 1.266409e+000 -8.038713e-001 3.000000e+001
         vertex 1.343499e+000 -6.670918e-001 3.000000e+001
         vertex 1.479020e+000 -2.500000e-001 3.000000e+001
      endloop
   endfacet
   facet normal 0.000000e+000 0.000000e+000 1.000000e+000
      outer loop
         vertex 1.405869e+000 -5.230036e-001 3.000000e+001
         vertex 1.479020e+000 -2.500000e-001 3.000000e+001
         vertex 1.343499e+000 -6.670918e-001 3.000000e+001
      endloop
   endfacet
   facet normal 0.000000e+000 0.000000e+000 1.000000e+000
      outer loop
         vertex -1.155869e+000 -9.560163e-001 3.000000e+001
         vertex -9.318433e-001 -1.175444e+000 3.000000e+001
         vertex -1.329377e+000 -6.948065e-001 3.000000e+001
      endloop
   endfacet
   facet normal 0.000000e+000 -0.000000e+000 1.000000e+000
      outer loop
         vertex 9.403079e-002 -1.497050e+000 3.000000e+001
         vertex 4.032302e-001 -1.444786e+000 3.000000e+001
         vertex 1.175444e+000 -9.318433e-001 3.000000e+001
      endloop
   endfacet
   facet normal 0.000000e+000 0.000000e+000 1.000000e+000
      outer loop
         vertex 1.071600e+000 -1.049606e+000 3.000000e+001
         vertex 6.948065e-001 -1.329377e+000 3.000000e+001
         vertex 9.560163e-001 -1.155869e+000 3.000000e+001
      endloop
   endfacet
   facet normal 0.000000e+000 -0.000000e+000 1.000000e+000
      outer loop
         vertex 9.403079e-002 -1.497050e+000 3.000000e+001
         vertex 1.175444e+000 -9.318433e-001 3.000000e+001
         vertex 1.266409e+000 -8.038713e-001 3.000000e+001
      endloop
   endfacet
   facet normal -0.000000e+000 0.000000e+000 1.000000e+000
      outer loop
         vertex 1.479020e+000 -2.500000e-001 3.000000e+001
         vertex -1.479020e+000 -2.500000e-001 3.000000e+001
         vertex -1.329377e+000 -6.948065e-001 3.000000e+001
      endloop
   endfacet
   facet normal 0.000000e+000 0.000000e+000 1.000000e+000
      outer loop
         vertex -9.318433e-001 -1.175444e+000 3.000000e+001
         vertex -8.038713e-001 -1.266409e+000 3.000000e+001
         vertex -1.329377e+000 -6.948065e-001 3.000000e+001
      endloop
   endfacet
   facet normal -0.000000e+000 -0.000000e+000 1.000000e+000
      outer loop
         vertex -3.731852e-001 -1.452836e+000 3.000000e+001
         vertex -2.192782e-001 -1.483886e+000 3.000000e+001
         vertex 9.403079e-002 -1.497050e+000 3.000000e+001
      endloop
   endfacet
   facet normal 0.000000e+000 0.000000e+000 1.000000e+000
      outer loop
         vertex 5.520424e-001 -1.394722e+000 3.000000e+001
         vertex 6.948065e-001 -1.329377e+000 3.000000e+001
         vertex 4.032302e-001 -1.444786e+000 3.000000e+001
      endloop
   endfacet
   facet normal 0.000000e+000 0.000000e+000 1.000000e+000
      outer loop
         vertex 6.948065e-001 -1.329377e+000 3.000000e+001
         vertex 1.175444e+000 -9.318433e-001 3.000000e+001
         vertex 4.032302e-001 -1.444786e+000 3.000000e+001
      endloop
   endfacet
   facet normal 0.000000e+000 0.000000e+000 1.000000e+000
      outer loop
         vertex 9.403079e-002 -1.497050e+000 3.000000e+001
         vertex 1.266409e+000 -8.038713e-001 3.000000e+001
         vertex -3.731852e-001 -1.452836e+000 3.000000e+001
      endloop
   endfacet
   facet normal 0.000000e+000 0.000000e+000 1.000000e+000
      outer loop
         vertex -1.329377e+000 -6.948065e-001 3.000000e+001
         vertex -1.479020e+000 -2.500000e-001 3.000000e+001
         vertex -1.394722e+000 -5.520424e-001 3.000000e+001
      endloop
   endfacet
   facet normal 0.000000e+000 0.000000e+000 1.000000e+000
      outer loop
         vertex -5.230036e-001 -1.405869e+000 3.000000e+001
         vertex -3.731852e-001 -1.452836e+000 3.000000e+001
         vertex -8.038713e-001 -1.266409e+000 3.000000e+001
      endloop
   endfacet
   facet normal -0.000000e+000 0.000000e+000 1.000000e+000
      outer loop
         vertex 1.479020e+000 -2.500000e-001 3.000000e+001
         vertex -1.329377e+000 -6.948065e-001 3.000000e+001
         vertex -3.731852e-001 -1.452836e+000 3.000000e+001
      endloop
   endfacet
   facet normal 0.000000e+000 -0.000000e+000 1.000000e+000
      outer loop
         vertex -3.731852e-001 -1.452836e+000 3.000000e+001
         vertex 1.266409e+000 -8.038713e-001 3.000000e+001
         vertex 1.479020e+000 -2.500000e-001 3.000000e+001
      endloop
   endfacet
   facet normal -0.000000e+000 -0.000000e+000 1.000000e+000
      outer loop
         vertex -1.329377e+000 -6.948065e-001 3.000000e+001
         vertex -8.038713e-001 -1.266409e+000 3.000000e+001
         vertex -3.731852e-001 -1.452836e+000 3.000000e+001
      endloop
   endfacet
   facet normal 9.759393e-001 2.180426e-001 6.583401e-005
      outer loop
         vertex 1.444786e+000 4.032302e-001 3.000000e+001
         vertex 1.479020e+000 2.500000e-001 3.000000e+001
         vertex 1.467221e+000 3.118675e-001 0.000000e+000
      endloop
   endfacet
   facet normal 9.907550e-001 1.356631e-001 0.000000e+000
      outer loop
         vertex 1.479020e+000 2.500000e-001 2.000000e+001
         vertex 1.491783e+000 1.567927e-001 2.000000e+001
         vertex 1.491783e+000 1.567927e-001 0.000000e+000
      endloop
   endfacet
   facet normal 9.986295e-001 5.233633e-002 4.807013e-019
      outer loop
         vertex 1.500000e+000 -1.836970e-016 2.000000e+001
         vertex 1.500000e+000 0.000000e+000 0.000000e+000
         vertex 1.491783e+000 1.567927e-001 2.000000e+001
      endloop
   endfacet
   facet normal 9.659258e-001 2.588192e-001 -6.583668e-005
      outer loop
         vertex 1.467221e+000 3.118675e-001 0.000000e+000
         vertex 1.426585e+000 4.635255e-001 0.000000e+000
         vertex 1.444786e+000 4.032302e-001 3.000000e+001
      endloop
   endfacet
   facet normal 8.910064e-001 4.539907e-001 -6.583667e-005
      outer loop
         vertex 1.370318e+000 6.101050e-001 0.000000e+000
         vertex 1.299038e+000 7.500000e-001 0.000000e+000
         vertex 1.329377e+000 6.948065e-001 3.000000e+001
      endloop
   endfacet
   facet normal 7.771460e-001 6.293203e-001 -6.583517e-005
      outer loop
         vertex 1.213526e+000 8.816779e-001 0.000000e+000
         vertex 1.114717e+000 1.003696e+000 0.000000e+000
         vertex 1.155869e+000 9.560163e-001 3.000000e+001
      endloop
   endfacet
   facet normal 6.293203e-001 7.771460e-001 -6.583533e-005
      outer loop
         vertex 1.003696e+000 1.114717e+000 0.000000e+000
         vertex 8.816779e-001 1.213526e+000 0.000000e+000
         vertex 9.318433e-001 1.175444e+000 3.000000e+001
      endloop
   endfacet
   facet normal 4.539907e-001 8.910064e-001 -6.583624e-005
      outer loop
         vertex 7.500000e-001 1.299038e+000 0.000000e+000
         vertex 6.101050e-001 1.370318e+000 0.000000e+000
         vertex 6.670918e-001 1.343499e+000 3.000000e+001
      endloop
   endfacet
   facet normal 2.588192e-001 9.659258e-001 -6.583813e-005
      outer loop
         vertex 4.635255e-001 1.426585e+000 0.000000e+000
         vertex 3.118675e-001 1.467221e+000 0.000000e+000
         vertex 3.731852e-001 1.452836e+000 3.000000e+001
      endloop
   endfacet
   facet normal 5.233633e-002 9.986295e-001 -6.583632e-005
      outer loop
         vertex 1.567927e-001 1.491783e+000 0.000000e+000
         vertex 4.249154e-016 1.500000e+000 0.000000e+000
         vertex 6.296863e-002 1.498678e+000 3.000000e+001
      endloop
   endfacet
   facet normal -1.564342e-001 9.876884e-001 -6.583863e-005
      outer loop
         vertex -1.567927e-001 1.491783e+000 0.000000e+000
         vertex -3.118675e-001 1.467221e+000 0.000000e+000
         vertex -2.500000e-001 1.479020e+000 3.000000e+001
      endloop
   endfacet
   facet normal -3.583677e-001 9.335805e-001 -6.583554e-005
      outer loop
         vertex -4.635255e-001 1.426585e+000 0.000000e+000
         vertex -6.101050e-001 1.370318e+000 0.000000e+000
         vertex -5.520424e-001 1.394722e+000 3.000000e+001
      endloop
   endfacet
   facet normal -5.446386e-001 8.386708e-001 -6.583711e-005
      outer loop
         vertex -7.500000e-001 1.299038e+000 0.000000e+000
         vertex -8.816779e-001 1.213526e+000 0.000000e+000
         vertex -8.299580e-001 1.249468e+000 3.000000e+001
      endloop
   endfacet
   facet normal -7.071068e-001 7.071068e-001 -6.583338e-005
      outer loop
         vertex -1.003696e+000 1.114717e+000 0.000000e+000
         vertex -1.114717e+000 1.003696e+000 0.000000e+000
         vertex -1.071600e+000 1.049606e+000 3.000000e+001
      endloop
   endfacet
   facet normal -8.386708e-001 5.446386e-001 -6.583697e-005
      outer loop
         vertex -1.213526e+000 8.816779e-001 0.000000e+000
         vertex -1.299038e+000 7.500000e-001 0.000000e+000
         vertex -1.266409e+000 8.038713e-001 3.000000e+001
      endloop
   endfacet
   facet normal -9.335805e-001 3.583677e-001 -6.583817e-005
      outer loop
         vertex -1.370318e+000 6.101050e-001 0.000000e+000
         vertex -1.426585e+000 4.635255e-001 0.000000e+000
         vertex -1.405869e+000 5.230036e-001 3.000000e+001
      endloop
   endfacet
   facet normal -9.876884e-001 1.564342e-001 -9.875795e-005
      outer loop
         vertex -1.467221e+000 3.118675e-001 0.000000e+000
         vertex -1.491783e+000 1.567927e-001 0.000000e+000
         vertex -1.479020e+000 2.500000e-001 2.000000e+001
      endloop
   endfacet
   facet normal -9.986295e-001 -5.233633e-002 -9.875448e-005
      outer loop
         vertex -1.500000e+000 -8.155037e-016 0.000000e+000
         vertex -1.491783e+000 -1.567927e-001 0.000000e+000
         vertex -1.498678e+000 -6.296863e-002 2.000000e+001
      endloop
   endfacet
   facet normal -9.659258e-001 -2.588192e-001 -6.583668e-005
      outer loop
         vertex -1.467221e+000 -3.118675e-001 0.000000e+000
         vertex -1.426585e+000 -4.635255e-001 0.000000e+000
         vertex -1.444786e+000 -4.032302e-001 3.000000e+001
      endloop
   endfacet
   facet normal -8.910064e-001 -4.539907e-001 -6.583667e-005
      outer loop
         vertex -1.370318e+000 -6.101050e-001 0.000000e+000
         vertex -1.299038e+000 -7.500000e-001 0.000000e+000
         vertex -1.329377e+000 -6.948065e-001 3.000000e+001
      endloop
   endfacet
   facet normal -7.771460e-001 -6.293203e-001 -6.583517e-005
      outer loop
         vertex -1.213526e+000 -8.816779e-001 0.000000e+000
         vertex -1.114717e+000 -1.003696e+000 0.000000e+000
         vertex -1.155869e+000 -9.560163e-001 3.000000e+001
      endloop
   endfacet
   facet normal -6.293203e-001 -7.771460e-001 -6.583533e-005
      outer loop
         vertex -1.003696e+000 -1.114717e+000 0.000000e+000
         vertex -8.816779e-001 -1.213526e+000 0.000000e+000
         vertex -9.318433e-001 -1.175444e+000 3.000000e+001
      endloop
   endfacet
   facet normal -4.539907e-001 -8.910064e-001 -6.583624e-005
      outer loop
         vertex -7.500000e-001 -1.299038e+000 0.000000e+000
         vertex -6.101050e-001 -1.370318e+000 0.000000e+000
         vertex -6.670918e-001 -1.343499e+000 3.000000e+001
      endloop
   endfacet
   facet normal -2.588192e-001 -9.659258e-001 -6.583813e-005
      outer loop
         vertex -4.635255e-001 -1.426585e+000 0.000000e+000
         vertex -3.118675e-001 -1.467221e+000 0.000000e+000
         vertex -3.731852e-001 -1.452836e+000 3.000000e+001
      endloop
   endfacet
   facet normal -5.233633e-002 -9.986295e-001 -6.583632e-005
      outer loop
         vertex -1.567927e-001 -1.491783e+000 0.000000e+000
         vertex -2.755455e-016 -1.500000e+000 0.000000e+000
         vertex -6.296863e-002 -1.498678e+000 3.000000e+001
      endloop
   endfacet
   facet normal 1.564342e-001 -9.876884e-001 -6.583863e-005
      outer loop
         vertex 1.567927e-001 -1.491783e+000 0.000000e+000
         vertex 3.118675e-001 -1.467221e+000 0.000000e+000
         vertex 2.500000e-001 -1.479020e+000 3.000000e+001
      endloop
   endfacet
   facet normal 3.583677e-001 -9.335805e-001 -6.583554e-005
      outer loop
         vertex 4.635255e-001 -1.426585e+000 0.000000e+000
         vertex 6.101050e-001 -1.370318e+000 0.000000e+000
         vertex 5.520424e-001 -1.394722e+000 3.000000e+001
      endloop
   endfacet
   facet normal 5.446386e-001 -8.386708e-001 -6.583711e-005
      outer loop
         vertex 7.500000e-001 -1.299038e+000 0.000000e+000
         vertex 8.816779e-001 -1.213526e+000 0.000000e+000
         vertex 8.299580e-001 -1.249468e+000 3.000000e+001
      endloop
   endfacet
   facet normal 7.071068e-001 -7.071068e-001 -6.583338e-005
      outer loop
         vertex 1.003696e+000 -1.114717e+000 0.000000e+000
         vertex 1.114717e+000 -1.003696e+000 0.000000e+000
         vertex 1.071600e+000 -1.049606e+000 3.000000e+001
      endloop
   endfacet
   facet normal 8.386708e-001 -5.446386e-001 -6.583697e-005
      outer loop
         vertex 1.213526e+000 -8.816779e-001 0.000000e+000
         vertex 1.299038e+000 -7.500000e-001 0.000000e+000
         vertex 1.266409e+000 -8.038713e-001 3.000000e+001
      endloop
   endfacet
   facet normal 9.335805e-001 -3.583677e-001 -6.583817e-005
      outer loop
         vertex 1.370318e+000 -6.101050e-001 0.000000e+000
         vertex 1.426585e+000 -4.635255e-001 0.000000e+000
         vertex 1.405869e+000 -5.230036e-001 3.000000e+001
      endloop
   endfacet
   facet normal 9.876884e-001 -1.564342e-001 -9.875795e-005
      outer loop
         vertex 1.467221e+000 -3.118675e-001 0.000000e+000
         vertex 1.491783e+000 -1.567927e-001 0.000000e+000
         vertex 1.479020e+000 -2.500000e-001 2.000000e+001
      endloop
   endfacet
   facet normal 9.995082e-001 -3.135931e-002 -2.880306e-019
      outer loop
         vertex 1.500000e+000 0.000000e+000 0.000000e+000
         vertex 1.500000e+000 -1.836970e-016 2.000000e+001
         vertex 1.497050e+000 -9.403079e-002 2.000000e+001
      endloop
   endfacet
   facet normal 9.822967e-001 -1.873316e-001 0.000000e+000
      outer loop
         vertex 1.479020e+000 -2.500000e-001 2.000000e+001
         vertex 1.479020e+000 -2.500000e-001 3.000000e+001
         vertex 1.467221e+000 -3.118675e-001 0.000000e+000
      endloop
   endfacet
   facet normal 9.542094e-001 -2.991396e-001 6.583263e-005
      outer loop
         vertex 1.452836e+000 -3.731852e-001 3.000000e+001
         vertex 1.405869e+000 -5.230036e-001 3.000000e+001
         vertex 1.426585e+000 -4.635255e-001 0.000000e+000
      endloop
   endfacet
   facet normal 8.711631e-001 -4.909938e-001 6.583375e-005
      outer loop
         vertex 1.343499e+000 -6.670918e-001 3.000000e+001
         vertex 1.266409e+000 -8.038713e-001 3.000000e+001
         vertex 1.299038e+000 -7.500000e-001 0.000000e+000
      endloop
   endfacet
   facet normal 7.500424e-001 -6.613897e-001 6.583735e-005
      outer loop
         vertex 1.175444e+000 -9.318433e-001 3.000000e+001
         vertex 1.071600e+000 -1.049606e+000 3.000000e+001
         vertex 1.114717e+000 -1.003696e+000 0.000000e+000
      endloop
   endfacet
   facet normal 5.961419e-001 -8.028791e-001 6.583547e-005
      outer loop
         vertex 9.560163e-001 -1.155869e+000 3.000000e+001
         vertex 8.299580e-001 -1.249468e+000 3.000000e+001
         vertex 8.816779e-001 -1.213526e+000 0.000000e+000
      endloop
   endfacet
   facet normal 4.161865e-001 -9.092793e-001 6.583604e-005
      outer loop
         vertex 6.948065e-001 -1.329377e+000 3.000000e+001
         vertex 5.520424e-001 -1.394722e+000 3.000000e+001
         vertex 6.101050e-001 -1.370318e+000 0.000000e+000
      endloop
   endfacet
   facet normal 2.180426e-001 -9.759393e-001 6.583401e-005
      outer loop
         vertex 4.032302e-001 -1.444786e+000 3.000000e+001
         vertex 2.500000e-001 -1.479020e+000 3.000000e+001
         vertex 3.118675e-001 -1.467221e+000 0.000000e+000
      endloop
   endfacet
   facet normal 1.036841e-002 -9.999462e-001 6.583610e-005
      outer loop
         vertex 9.403079e-002 -1.497050e+000 3.000000e+001
         vertex -6.296863e-002 -1.498678e+000 3.000000e+001
         vertex -2.755455e-016 -1.500000e+000 0.000000e+000
      endloop
   endfacet
   facet normal -1.977583e-001 -9.802508e-001 6.583464e-005
      outer loop
         vertex -2.192782e-001 -1.483886e+000 3.000000e+001
         vertex -3.731852e-001 -1.452836e+000 3.000000e+001
         vertex -3.118675e-001 -1.467221e+000 0.000000e+000
      endloop
   endfacet
   facet normal -3.972432e-001 -9.177134e-001 6.583495e-005
      outer loop
         vertex -5.230036e-001 -1.405869e+000 3.000000e+001
         vertex -6.670918e-001 -1.343499e+000 3.000000e+001
         vertex -6.101050e-001 -1.370318e+000 0.000000e+000
      endloop
   endfacet
   facet normal -5.793656e-001 -8.150678e-001 6.583577e-005
      outer loop
         vertex -8.038713e-001 -1.266409e+000 3.000000e+001
         vertex -9.318433e-001 -1.175444e+000 3.000000e+001
         vertex -8.816779e-001 -1.213526e+000 0.000000e+000
      endloop
   endfacet
   facet normal -7.361670e-001 -6.767999e-001 6.583707e-005
      outer loop
         vertex -1.049606e+000 -1.071600e+000 3.000000e+001
         vertex -1.155869e+000 -9.560163e-001 3.000000e+001
         vertex -1.114717e+000 -1.003696e+000 0.000000e+000
      endloop
   endfacet
   facet normal -8.607949e-001 -5.089521e-001 6.583352e-005
      outer loop
         vertex -1.249468e+000 -8.299580e-001 3.000000e+001
         vertex -1.329377e+000 -6.948065e-001 3.000000e+001
         vertex -1.299038e+000 -7.500000e-001 0.000000e+000
      endloop
   endfacet
   facet normal -9.478014e-001 -3.188613e-001 6.583459e-005
      outer loop
         vertex -1.394722e+000 -5.520424e-001 3.000000e+001
         vertex -1.444786e+000 -4.032302e-001 3.000000e+001
         vertex -1.426585e+000 -4.635255e-001 0.000000e+000
      endloop
   endfacet
   facet normal -9.822967e-001 -1.873316e-001 0.000000e+000
      outer loop
         vertex -1.479020e+000 -2.500000e-001 3.000000e+001
         vertex -1.479020e+000 -2.500000e-001 2.000000e+001
         vertex -1.467221e+000 -3.118675e-001 0.000000e+000
      endloop
   endfacet
   facet normal -9.955522e-001 -9.421161e-002 9.875190e-005
      outer loop
         vertex -1.483886e+000 -2.192782e-001 2.000000e+001
         vertex -1.498678e+000 -6.296863e-002 2.000000e+001
         vertex -1.491783e+000 -1.567927e-001 0.000000e+000
      endloop
   endfacet
   facet normal -9.933847e-001 1.148338e-001 9.875037e-005
      outer loop
         vertex -1.497050e+000 9.403079e-002 2.000000e+001
         vertex -1.479020e+000 2.500000e-001 2.000000e+001
         vertex -1.491783e+000 1.567927e-001 0.000000e+000
      endloop
   endfacet
   facet normal -9.781476e-001 2.079118e-001 4.407324e-005
      outer loop
         vertex -1.479020e+000 2.500000e-001 3.000000e+001
         vertex -1.452836e+000 3.731852e-001 3.000000e+001
         vertex -1.467221e+000 3.118675e-001 0.000000e+000
      endloop
   endfacet
   facet normal -9.177134e-001 3.972432e-001 6.583495e-005
      outer loop
         vertex -1.405869e+000 5.230036e-001 3.000000e+001
         vertex -1.343499e+000 6.670918e-001 3.000000e+001
         vertex -1.370318e+000 6.101050e-001 0.000000e+000
      endloop
   endfacet
   facet normal -8.150678e-001 5.793656e-001 6.583577e-005
      outer loop
         vertex -1.266409e+000 8.038713e-001 3.000000e+001
         vertex -1.175444e+000 9.318433e-001 3.000000e+001
         vertex -1.213526e+000 8.816779e-001 0.000000e+000
      endloop
   endfacet
   facet normal -6.767999e-001 7.361670e-001 6.583707e-005
      outer loop
         vertex -1.071600e+000 1.049606e+000 3.000000e+001
         vertex -9.560163e-001 1.155869e+000 3.000000e+001
         vertex -1.003696e+000 1.114717e+000 0.000000e+000
      endloop
   endfacet
   facet normal -5.089521e-001 8.607949e-001 6.583352e-005
      outer loop
         vertex -8.299580e-001 1.249468e+000 3.000000e+001
         vertex -6.948065e-001 1.329377e+000 3.000000e+001
         vertex -7.500000e-001 1.299038e+000 0.000000e+000
      endloop
   endfacet
   facet normal -3.188613e-001 9.478014e-001 6.583459e-005
      outer loop
         vertex -5.520424e-001 1.394722e+000 3.000000e+001
         vertex -4.032302e-001 1.444786e+000 3.000000e+001
         vertex -4.635255e-001 1.426585e+000 0.000000e+000
      endloop
   endfacet
   facet normal -1.148338e-001 9.933847e-001 6.583358e-005
      outer loop
         vertex -2.500000e-001 1.479020e+000 3.000000e+001
         vertex -9.403079e-002 1.497050e+000 3.000000e+001
         vertex -1.567927e-001 1.491783e+000 0.000000e+000
      endloop
   endfacet
   facet normal 9.421161e-002 9.955522e-001 6.583460e-005
      outer loop
         vertex 6.296863e-002 1.498678e+000 3.000000e+001
         vertex 2.192782e-001 1.483886e+000 3.000000e+001
         vertex 1.567927e-001 1.491783e+000 0.000000e+000
      endloop
   endfacet
   facet normal 2.991396e-001 9.542094e-001 6.583263e-005
      outer loop
         vertex 3.731852e-001 1.452836e+000 3.000000e+001
         vertex 5.230036e-001 1.405869e+000 3.000000e+001
         vertex 4.635255e-001 1.426585e+000 0.000000e+000
      endloop
   endfacet
   facet normal 4.909938e-001 8.711631e-001 6.583375e-005
      outer loop
         vertex 6.670918e-001 1.343499e+000 3.000000e+001
         vertex 8.038713e-001 1.266409e+000 3.000000e+001
         vertex 7.500000e-001 1.299038e+000 0.000000e+000
      endloop
   endfacet
   facet normal 6.613897e-001 7.500424e-001 6.583735e-005
      outer loop
         vertex 9.318433e-001 1.175444e+000 3.000000e+001
         vertex 1.049606e+000 1.071600e+000 3.000000e+001
         vertex 1.003696e+000 1.114717e+000 0.000000e+000
      endloop
   endfacet
   facet normal 8.028791e-001 5.961419e-001 6.583547e-005
      outer loop
         vertex 1.155869e+000 9.560163e-001 3.000000e+001
         vertex 1.249468e+000 8.299580e-001 3.000000e+001
         vertex 1.213526e+000 8.816779e-001 0.000000e+000
      endloop
   endfacet
   facet normal 9.092793e-001 4.161865e-001 6.583604e-005
      outer loop
         vertex 1.329377e+000 6.948065e-001 3.000000e+001
         vertex 1.394722e+000 5.520424e-001 3.000000e+001
         vertex 1.370318e+000 6.101050e-001 0.000000e+000
      endloop
   endfacet
   facet normal 9.822967e-001 1.873316e-001 0.000000e+000
      outer loop
         vertex 1.467221e+000 3.118675e-001 0.000000e+000
         vertex 1.479020e+000 2.500000e-001 3.000000e+001
         vertex 1.479020e+000 2.500000e-001 2.000000e+001
      endloop
   endfacet
   facet normal 9.986295e-001 5.233633e-002 0.000000e+000
      outer loop
         vertex 1.491783e+000 1.567927e-001 2.000000e+001
         vertex 1.500000e+000 0.000000e+000 0.000000e+000
         vertex 1.491783e+000 1.567927e-001 0.000000e+000
      endloop
   endfacet
   facet normal 5.793656e-001 8.150678e-001 6.583577e-005
      outer loop
         vertex 9.318433e-001 1.175444e+000 3.000000e+001
         vertex 8.816779e-001 1.213526e+000 0.000000e+000
         vertex 8.038713e-001 1.266409e+000 3.000000e+001
      endloop
   endfacet
   facet normal -1.036841e-002 9.999462e-001 6.583610e-005
      outer loop
         vertex 6.296863e-002 1.498678e+000 3.000000e+001
         vertex 4.249154e-016 1.500000e+000 0.000000e+000
         vertex -9.403079e-002 1.497050e+000 3.000000e+001
      endloop
   endfacet
   facet normal -5.961419e-001 8.028791e-001 6.583547e-005
      outer loop
         vertex -8.299580e-001 1.249468e+000 3.000000e+001
         vertex -8.816779e-001 1.213526e+000 0.000000e+000
         vertex -9.560163e-001 1.155869e+000 3.000000e+001
      endloop
   endfacet
   facet normal -9.542094e-001 2.991396e-001 6.583263e-005
      outer loop
         vertex -1.405869e+000 5.230036e-001 3.000000e+001
         vertex -1.426585e+000 4.635255e-001 0.000000e+000
         vertex -1.452836e+000 3.731852e-001 3.000000e+001
      endloop
   endfacet
   facet normal -9.759393e-001 -2.180426e-001 6.583401e-005
      outer loop
         vertex -1.467221e+000 -3.118675e-001 0.000000e+000
         vertex -1.444786e+000 -4.032302e-001 3.000000e+001
         vertex -1.479020e+000 -2.500000e-001 3.000000e+001
      endloop
   endfacet
   facet normal -6.613897e-001 -7.500424e-001 6.583735e-005
      outer loop
         vertex -1.003696e+000 -1.114717e+000 0.000000e+000
         vertex -9.318433e-001 -1.175444e+000 3.000000e+001
         vertex -1.049606e+000 -1.071600e+000 3.000000e+001
      endloop
   endfacet
   facet normal -9.421161e-002 -9.955522e-001 6.583460e-005
      outer loop
         vertex -1.567927e-001 -1.491783e+000 0.000000e+000
         vertex -6.296863e-002 -1.498678e+000 3.000000e+001
         vertex -2.192782e-001 -1.483886e+000 3.000000e+001
      endloop
   endfacet
   facet normal 5.089521e-001 -8.607949e-001 6.583352e-005
      outer loop
         vertex 7.500000e-001 -1.299038e+000 0.000000e+000
         vertex 8.299580e-001 -1.249468e+000 3.000000e+001
         vertex 6.948065e-001 -1.329377e+000 3.000000e+001
      endloop
   endfacet
   facet normal 9.177134e-001 -3.972432e-001 6.583495e-005
      outer loop
         vertex 1.370318e+000 -6.101050e-001 0.000000e+000
         vertex 1.405869e+000 -5.230036e-001 3.000000e+001
         vertex 1.343499e+000 -6.670918e-001 3.000000e+001
      endloop
   endfacet
   facet normal 9.781476e-001 -2.079118e-001 4.407324e-005
      outer loop
         vertex 1.467221e+000 -3.118675e-001 0.000000e+000
         vertex 1.479020e+000 -2.500000e-001 3.000000e+001
         vertex 1.452836e+000 -3.731852e-001 3.000000e+001
      endloop
   endfacet
   facet normal 7.771460e-001 -6.293203e-001 -6.583533e-005
      outer loop
         vertex 1.175444e+000 -9.318433e-001 3.000000e+001
         vertex 1.114717e+000 -1.003696e+000 0.000000e+000
         vertex 1.213526e+000 -8.816779e-001 0.000000e+000
      endloop
   endfacet
   facet normal 2.588192e-001 -9.659258e-001 -6.583668e-005
      outer loop
         vertex 4.032302e-001 -1.444786e+000 3.000000e+001
         vertex 3.118675e-001 -1.467221e+000 0.000000e+000
         vertex 4.635255e-001 -1.426585e+000 0.000000e+000
      endloop
   endfacet
   facet normal -3.583677e-001 -9.335805e-001 -6.583817e-005
      outer loop
         vertex -5.230036e-001 -1.405869e+000 3.000000e+001
         vertex -6.101050e-001 -1.370318e+000 0.000000e+000
         vertex -4.635255e-001 -1.426585e+000 0.000000e+000
      endloop
   endfacet
   facet normal -8.386708e-001 -5.446386e-001 -6.583711e-005
      outer loop
         vertex -1.249468e+000 -8.299580e-001 3.000000e+001
         vertex -1.299038e+000 -7.500000e-001 0.000000e+000
         vertex -1.213526e+000 -8.816779e-001 0.000000e+000
      endloop
   endfacet
   facet normal -9.876888e-001 -1.564315e-001 -9.874497e-005
      outer loop
         vertex -1.483886e+000 -2.192782e-001 2.000000e+001
         vertex -1.491783e+000 -1.567927e-001 0.000000e+000
         vertex -1.479020e+000 -2.500000e-001 2.000000e+001
      endloop
   endfacet
   facet normal -9.659258e-001 2.588192e-001 -6.583813e-005
      outer loop
         vertex -1.467221e+000 3.118675e-001 0.000000e+000
         vertex -1.452836e+000 3.731852e-001 3.000000e+001
         vertex -1.426585e+000 4.635255e-001 0.000000e+000
      endloop
   endfacet
   facet normal -6.293203e-001 7.771460e-001 -6.583517e-005
      outer loop
         vertex -1.003696e+000 1.114717e+000 0.000000e+000
         vertex -9.560163e-001 1.155869e+000 3.000000e+001
         vertex -8.816779e-001 1.213526e+000 0.000000e+000
      endloop
   endfacet
   facet normal -5.233633e-002 9.986295e-001 -6.583593e-005
      outer loop
         vertex -1.567927e-001 1.491783e+000 0.000000e+000
         vertex -9.403079e-002 1.497050e+000 3.000000e+001
         vertex 4.249154e-016 1.500000e+000 0.000000e+000
      endloop
   endfacet
   facet normal 5.446386e-001 8.386708e-001 -6.583697e-005
      outer loop
         vertex 7.500000e-001 1.299038e+000 0.000000e+000
         vertex 8.038713e-001 1.266409e+000 3.000000e+001
         vertex 8.816779e-001 1.213526e+000 0.000000e+000
      endloop
   endfacet
   facet normal 9.335805e-001 3.583677e-001 -6.583554e-005
      outer loop
         vertex 1.370318e+000 6.101050e-001 0.000000e+000
         vertex 1.394722e+000 5.520424e-001 3.000000e+001
         vertex 1.426585e+000 4.635255e-001 0.000000e+000
      endloop
   endfacet
   facet normal -1.564342e-001 -9.876884e-001 -6.583577e-005
      outer loop
         vertex -1.567927e-001 -1.491783e+000 0.000000e+000
         vertex -2.192782e-001 -1.483886e+000 3.000000e+001
         vertex -3.118675e-001 -1.467221e+000 0.000000e+000
      endloop
   endfacet
   facet normal 8.150678e-001 -5.793656e-001 6.583577e-005
      outer loop
         vertex 1.175444e+000 -9.318433e-001 3.000000e+001
         vertex 1.213526e+000 -8.816779e-001 0.000000e+000
         vertex 1.266409e+000 -8.038713e-001 3.000000e+001
      endloop
   endfacet
   facet normal -9.876884e-001 -1.564342e-001 -9.875795e-005
      outer loop
         vertex -1.479020e+000 -2.500000e-001 2.000000e+001
         vertex -1.491783e+000 -1.567927e-001 0.000000e+000
         vertex -1.467221e+000 -3.118675e-001 0.000000e+000
      endloop
   endfacet
   facet normal 9.876884e-001 1.564342e-001 -9.875795e-005
      outer loop
         vertex 1.491783e+000 1.567927e-001 0.000000e+000
         vertex 1.467221e+000 3.118675e-001 0.000000e+000
         vertex 1.479020e+000 2.500000e-001 2.000000e+001
      endloop
   endfacet
   facet normal 7.071068e-001 7.071068e-001 -6.583338e-005
      outer loop
         vertex 1.114717e+000 1.003696e+000 0.000000e+000
         vertex 1.003696e+000 1.114717e+000 0.000000e+000
         vertex 1.049606e+000 1.071600e+000 3.000000e+001
      endloop
   endfacet
   facet normal 1.564342e-001 9.876884e-001 -6.583577e-005
      outer loop
         vertex 3.118675e-001 1.467221e+000 0.000000e+000
         vertex 1.567927e-001 1.491783e+000 0.000000e+000
         vertex 2.192782e-001 1.483886e+000 3.000000e+001
      endloop
   endfacet
   facet normal -4.539907e-001 8.910064e-001 -6.583667e-005
      outer loop
         vertex -6.101050e-001 1.370318e+000 0.000000e+000
         vertex -7.500000e-001 1.299038e+000 0.000000e+000
         vertex -6.948065e-001 1.329377e+000 3.000000e+001
      endloop
   endfacet
   facet normal -8.910064e-001 4.539907e-001 -6.583624e-005
      outer loop
         vertex -1.299038e+000 7.500000e-001 0.000000e+000
         vertex -1.370318e+000 6.101050e-001 0.000000e+000
         vertex -1.343499e+000 6.670918e-001 3.000000e+001
      endloop
   endfacet
   facet normal -9.335805e-001 -3.583677e-001 -6.583554e-005
      outer loop
         vertex -1.426585e+000 -4.635255e-001 0.000000e+000
         vertex -1.370318e+000 -6.101050e-001 0.000000e+000
         vertex -1.394722e+000 -5.520424e-001 3.000000e+001
      endloop
   endfacet
   facet normal -5.446386e-001 -8.386708e-001 -6.583697e-005
      outer loop
         vertex -8.816779e-001 -1.213526e+000 0.000000e+000
         vertex -7.500000e-001 -1.299038e+000 0.000000e+000
         vertex -8.038713e-001 -1.266409e+000 3.000000e+001
      endloop
   endfacet
   facet normal 4.539907e-001 -8.910064e-001 -6.583667e-005
      outer loop
         vertex 6.101050e-001 -1.370318e+000 0.000000e+000
         vertex 7.500000e-001 -1.299038e+000 0.000000e+000
         vertex 6.948065e-001 -1.329377e+000 3.000000e+001
      endloop
   endfacet
   facet normal 8.910064e-001 -4.539907e-001 -6.583624e-005
      outer loop
         vertex 1.299038e+000 -7.500000e-001 0.000000e+000
         vertex 1.370318e+000 -6.101050e-001 0.000000e+000
         vertex 1.343499e+000 -6.670918e-001 3.000000e+001
      endloop
   endfacet
   facet normal 9.986295e-001 -5.233633e-002 -9.875389e-005
      outer loop
         vertex 1.491783e+000 -1.567927e-001 0.000000e+000
         vertex 1.500000e+000 0.000000e+000 0.000000e+000
         vertex 1.497050e+000 -9.403079e-002 2.000000e+001
      endloop
   endfacet
   facet normal 6.767999e-001 -7.361670e-001 6.583707e-005
      outer loop
         vertex 1.071600e+000 -1.049606e+000 3.000000e+001
         vertex 9.560163e-001 -1.155869e+000 3.000000e+001
         vertex 1.003696e+000 -1.114717e+000 0.000000e+000
      endloop
   endfacet
   facet normal 1.148338e-001 -9.933847e-001 6.583358e-005
      outer loop
         vertex 2.500000e-001 -1.479020e+000 3.000000e+001
         vertex 9.403079e-002 -1.497050e+000 3.000000e+001
         vertex 1.567927e-001 -1.491783e+000 0.000000e+000
      endloop
   endfacet
   facet normal -4.909938e-001 -8.711631e-001 6.583375e-005
      outer loop
         vertex -6.670918e-001 -1.343499e+000 3.000000e+001
         vertex -8.038713e-001 -1.266409e+000 3.000000e+001
         vertex -7.500000e-001 -1.299038e+000 0.000000e+000
      endloop
   endfacet
   facet normal -9.092793e-001 -4.161865e-001 6.583604e-005
      outer loop
         vertex -1.329377e+000 -6.948065e-001 3.000000e+001
         vertex -1.394722e+000 -5.520424e-001 3.000000e+001
         vertex -1.370318e+000 -6.101050e-001 0.000000e+000
      endloop
   endfacet
   facet normal -9.822967e-001 1.873316e-001 0.000000e+000
      outer loop
         vertex -1.479020e+000 2.500000e-001 2.000000e+001
         vertex -1.479020e+000 2.500000e-001 3.000000e+001
         vertex -1.467221e+000 3.118675e-001 0.000000e+000
      endloop
   endfacet
   facet normal -7.500424e-001 6.613897e-001 6.583735e-005
      outer loop
         vertex -1.175444e+000 9.318433e-001 3.000000e+001
         vertex -1.071600e+000 1.049606e+000 3.000000e+001
         vertex -1.114717e+000 1.003696e+000 0.000000e+000
      endloop
   endfacet
   facet normal -2.180426e-001 9.759393e-001 6.583401e-005
      outer loop
         vertex -4.032302e-001 1.444786e+000 3.000000e+001
         vertex -2.500000e-001 1.479020e+000 3.000000e+001
         vertex -3.118675e-001 1.467221e+000 0.000000e+000
      endloop
   endfacet
   facet normal 3.972432e-001 9.177134e-001 6.583495e-005
      outer loop
         vertex 5.230036e-001 1.405869e+000 3.000000e+001
         vertex 6.670918e-001 1.343499e+000 3.000000e+001
         vertex 6.101050e-001 1.370318e+000 0.000000e+000
      endloop
   endfacet
   facet normal 8.607949e-001 5.089521e-001 6.583352e-005
      outer loop
         vertex 1.249468e+000 8.299580e-001 3.000000e+001
         vertex 1.329377e+000 6.948065e-001 3.000000e+001
         vertex 1.299038e+000 7.500000e-001 0.000000e+000
      endloop
   endfacet
   facet normal 9.478014e-001 3.188613e-001 6.583459e-005
      outer loop
         vertex 1.444786e+000 4.032302e-001 3.000000e+001
         vertex 1.426585e+000 4.635255e-001 0.000000e+000
         vertex 1.394722e+000 5.520424e-001 3.000000e+001
      endloop
   endfacet
   facet normal -4.161865e-001 9.092793e-001 6.583604e-005
      outer loop
         vertex -5.520424e-001 1.394722e+000 3.000000e+001
         vertex -6.101050e-001 1.370318e+000 0.000000e+000
         vertex -6.948065e-001 1.329377e+000 3.000000e+001
      endloop
   endfacet
   facet normal -8.028791e-001 -5.961419e-001 6.583547e-005
      outer loop
         vertex -1.213526e+000 -8.816779e-001 0.000000e+000
         vertex -1.155869e+000 -9.560163e-001 3.000000e+001
         vertex -1.249468e+000 -8.299580e-001 3.000000e+001
      endloop
   endfacet
   facet normal 9.933847e-001 -1.148338e-001 9.875037e-005
      outer loop
         vertex 1.479020e+000 -2.500000e-001 2.000000e+001
         vertex 1.491783e+000 -1.567927e-001 0.000000e+000
         vertex 1.497050e+000 -9.403079e-002 2.000000e+001
      endloop
   endfacet
   facet normal 5.233633e-002 -9.986295e-001 -6.583593e-005
      outer loop
         vertex 9.403079e-002 -1.497050e+000 3.000000e+001
         vertex -2.755455e-016 -1.500000e+000 0.000000e+000
         vertex 1.567927e-001 -1.491783e+000 0.000000e+000
      endloop
   endfacet
   facet normal -7.771460e-001 6.293203e-001 -6.583533e-005
      outer loop
         vertex -1.213526e+000 8.816779e-001 0.000000e+000
         vertex -1.175444e+000 9.318433e-001 3.000000e+001
         vertex -1.114717e+000 1.003696e+000 0.000000e+000
      endloop
   endfacet
   facet normal 8.386708e-001 5.446386e-001 -6.583711e-005
      outer loop
         vertex 1.213526e+000 8.816779e-001 0.000000e+000
         vertex 1.249468e+000 8.299580e-001 3.000000e+001
         vertex 1.299038e+000 7.500000e-001 0.000000e+000
      endloop
   endfacet
   facet normal 3.188613e-001 -9.478014e-001 6.583459e-005
      outer loop
         vertex 4.032302e-001 -1.444786e+000 3.000000e+001
         vertex 4.635255e-001 -1.426585e+000 0.000000e+000
         vertex 5.520424e-001 -1.394722e+000 3.000000e+001
      endloop
   endfacet
   facet normal -8.711631e-001 4.909938e-001 6.583375e-005
      outer loop
         vertex -1.299038e+000 7.500000e-001 0.000000e+000
         vertex -1.343499e+000 6.670918e-001 3.000000e+001
         vertex -1.266409e+000 8.038713e-001 3.000000e+001
      endloop
   endfacet
   facet normal 3.583677e-001 9.335805e-001 -6.583817e-005
      outer loop
         vertex 6.101050e-001 1.370318e+000 0.000000e+000
         vertex 4.635255e-001 1.426585e+000 0.000000e+000
         vertex 5.230036e-001 1.405869e+000 3.000000e+001
      endloop
   endfacet
   facet normal -9.986295e-001 5.233633e-002 -9.875389e-005
      outer loop
         vertex -1.491783e+000 1.567927e-001 0.000000e+000
         vertex -1.500000e+000 -8.155037e-016 0.000000e+000
         vertex -1.497050e+000 9.403079e-002 2.000000e+001
      endloop
   endfacet
   facet normal 6.293203e-001 -7.771460e-001 -6.583517e-005
      outer loop
         vertex 8.816779e-001 -1.213526e+000 0.000000e+000
         vertex 1.003696e+000 -1.114717e+000 0.000000e+000
         vertex 9.560163e-001 -1.155869e+000 3.000000e+001
      endloop
   endfacet
   facet normal -2.991396e-001 -9.542094e-001 6.583263e-005
      outer loop
         vertex -3.731852e-001 -1.452836e+000 3.000000e+001
         vertex -5.230036e-001 -1.405869e+000 3.000000e+001
         vertex -4.635255e-001 -1.426585e+000 0.000000e+000
      endloop
   endfacet
   facet normal 1.977583e-001 9.802508e-001 6.583464e-005
      outer loop
         vertex 2.192782e-001 1.483886e+000 3.000000e+001
         vertex 3.731852e-001 1.452836e+000 3.000000e+001
         vertex 3.118675e-001 1.467221e+000 0.000000e+000
      endloop
   endfacet
   facet normal 7.361670e-001 6.767999e-001 6.583707e-005
      outer loop
         vertex 1.155869e+000 9.560163e-001 3.000000e+001
         vertex 1.114717e+000 1.003696e+000 0.000000e+000
         vertex 1.049606e+000 1.071600e+000 3.000000e+001
      endloop
   endfacet
   facet normal -7.071068e-001 -7.071068e-001 -6.583338e-005
      outer loop
         vertex -1.049606e+000 -1.071600e+000 3.000000e+001
         vertex -1.114717e+000 -1.003696e+000 0.000000e+000
         vertex -1.003696e+000 -1.114717e+000 0.000000e+000
      endloop
   endfacet
   facet normal -2.588192e-001 9.659258e-001 -6.583668e-005
      outer loop
         vertex -4.032302e-001 1.444786e+000 3.000000e+001
         vertex -3.118675e-001 1.467221e+000 0.000000e+000
         vertex -4.635255e-001 1.426585e+000 0.000000e+000
      endloop
   endfacet
   facet normal 9.659258e-001 -2.588192e-001 -6.583813e-005
      outer loop
         vertex 1.426585e+000 -4.635255e-001 0.000000e+000
         vertex 1.467221e+000 -3.118675e-001 0.000000e+000
         vertex 1.452836e+000 -3.731852e-001 3.000000e+001
      endloop
   endfacet
   facet normal -9.999462e-001 1.036841e-002 9.875415e-005
      outer loop
         vertex -1.500000e+000 -8.155037e-016 0.000000e+000
         vertex -1.498678e+000 -6.296863e-002 2.000000e+001
         vertex -1.497050e+000 9.403079e-002 2.000000e+001
      endloop
   endfacet
   facet normal 0.000000e+000 0.000000e+000 1.000000e+000
      outer loop
         vertex 1.497050e+000 -9.403079e-002 2.000000e+001
         vertex 1.500000e+000 -1.836970e-016 2.000000e+001
         vertex 1.491783e+000 1.567927e-001 2.000000e+001
      endloop
   endfacet
   facet normal -0.000000e+000 0.000000e+000 1.000000e+000
      outer loop
         vertex 1.479020e+000 2.500000e-001 2.000000e+001
         vertex -1.479020e+000 2.500000e-001 2.000000e+001
         vertex -1.497050e+000 9.403079e-002 2.000000e+001
      endloop
   endfacet
   facet normal 0.000000e+000 0.000000e+000 1.000000e+000
      outer loop
         vertex -1.498678e+000 -6.296863e-002 2.000000e+001
         vertex -1.483886e+000 -2.192782e-001 2.000000e+001
         vertex -1.497050e+000 9.403079e-002 2.000000e+001
      endloop
   endfacet
   facet normal 0.000000e+000 0.000000e+000 1.000000e+000
      outer loop
         vertex 1.479020e+000 -2.500000e-001 2.000000e+001
         vertex 1.497050e+000 -9.403079e-002 2.000000e+001
         vertex 1.491783e+000 1.567927e-001 2.000000e+001
      endloop
   endfacet
   facet normal -0.000000e+000 -0.000000e+000 1.000000e+000
      outer loop
         vertex -1.497050e+000 9.403079e-002 2.000000e+001
         vertex -1.483886e+000 -2.192782e-001 2.000000e+001
         vertex -1.479020e+000 -2.500000e-001 2.000000e+001
      endloop
   endfacet
   facet normal 0.000000e+000 0.000000e+000 1.000000e+000
      outer loop
         vertex 1.491783e+000 1.567927e-001 2.000000e+001
         vertex 1.479020e+000 2.500000e-001 2.000000e+001
         vertex -1.497050e+000 9.403079e-002 2.000000e+001
      endloop
   endfacet
   facet normal 0.000000e+000 0.000000e+000 1.000000e+000
      outer loop
         vertex 1.479020e+000 -2.500000e-001 2.000000e+001
         vertex 1.491783e+000 1.567927e-001 2.000000e+001
         vertex -1.479020e+000 -2.500000e-001 2.000000e+001
      endloop
   endfacet
   facet normal 0.000000e+000 0.000000e+000 1.000000e+000
      outer loop
         vertex -1.479020e+000 -2.500000e-001 2.000000e+001
         vertex 1.491783e+000 1.567927e-001 2.000000e+001
         vertex -1.497050e+000 9.403079e-002 2.000000e+001
      endloop
   endfacet
   facet normal 0.000000e+000 1.000000e+000 0.000000e+000
      outer loop
         vertex -1.479020e+000 -2.500000e-001 3.000000e+001
         vertex 1.479020e+000 -2.500000e-001 2.000000e+001
         vertex -1.479020e+000 -2.500000e-001 2.000000e+001
      endloop
   endfacet
   facet normal -0.000000e+000 1.000000e+000 0.000000e+000
      outer loop
         vertex 1.479020e+000 -2.500000e-001 2.000000e+001
         vertex -1.479020e+000 -2.500000e-001 3.000000e+001
         vertex 1.479020e+000 -2.500000e-001 3.000000e+001
      endloop
   endfacet
   facet normal 0.000000e+000 -1.000000e+000 0.000000e+000
      outer loop
         vertex 1.479020e+000 2.500000e-001 3.000000e+001
         vertex -1.479020e+000 2.500000e-001 2.000000e+001
         vertex 1.479020e+000 2.500000e-001 2.000000e+001
      endloop
   endfacet
   facet normal -0.000000e+000 -1.000000e+000 0.000000e+000
      outer loop
         vertex -1.479020e+000 2.500000e-001 2.000000e+001
         vertex 1.479020e+000 2.500000e-001 3.000000e+001
         vertex -1.479020e+000 2.500000e-001 3.000000e+001
      endloop
   endfacet
   facet normal 0.000000e+000 0.000000e+000 -1.000000e+000
      outer loop
         vertex 1.491783e+000 -1.567927e-001 0.000000e+000
         vertex 1.491783e+000 1.567927e-001 0.000000e+000
         vertex 1.500000e+000 0.000000e+000 0.000000e+000
      endloop
   endfacet
   facet normal 0.000000e+000 0.000000e+000 -1.000000e+000
      outer loop
         vertex 1.491783e+000 1.567927e-001 0.000000e+000
         vertex 1.426585e+000 4.635255e-001 0.000000e+000
         vertex 1.467221e+000 3.118675e-001 0.000000e+000
      endloop
   endfacet
   facet normal 0.000000e+000 0.000000e+000 -1.000000e+000
      outer loop
         vertex 1.426585e+000 4.635255e-001 0.000000e+000
         vertex 1.213526e+000 8.816779e-001 0.000000e+000
         vertex 1.299038e+000 7.500000e-001 0.000000e+000
      endloop
   endfacet
   facet normal -0.000000e+000 -0.000000e+000 -1.000000e+000
      outer loop
         vertex 7.500000e-001 1.299038e+000 0.000000e+000
         vertex 1.003696e+000 1.114717e+000 0.000000e+000
         vertex 1.114717e+000 1.003696e+000 0.000000e+000
      endloop
   endfacet
   facet normal 0.000000e+000 0.000000e+000 -1.000000e+000
      outer loop
         vertex 1.003696e+000 1.114717e+000 0.000000e+000
         vertex 7.500000e-001 1.299038e+000 0.000000e+000
         vertex 8.816779e-001 1.213526e+000 0.000000e+000
      endloop
   endfacet
   facet normal -0.000000e+000 -0.000000e+000 -1.000000e+000
      outer loop
         vertex 1.567927e-001 1.491783e+000 0.000000e+000
         vertex 3.118675e-001 1.467221e+000 0.000000e+000
         vertex 4.635255e-001 1.426585e+000 0.000000e+000
      endloop
   endfacet
   facet normal 0.000000e+000 0.000000e+000 -1.000000e+000
      outer loop
         vertex 1.567927e-001 1.491783e+000 0.000000e+000
         vertex -1.567927e-001 1.491783e+000 0.000000e+000
         vertex 4.249154e-016 1.500000e+000 0.000000e+000
      endloop
   endfacet
   facet normal 0.000000e+000 0.000000e+000 -1.000000e+000
      outer loop
         vertex -3.118675e-001 1.467221e+000 0.000000e+000
         vertex -6.101050e-001 1.370318e+000 0.000000e+000
         vertex -4.635255e-001 1.426585e+000 0.000000e+000
      endloop
   endfacet
   facet normal 0.000000e+000 0.000000e+000 -1.000000e+000
      outer loop
         vertex -6.101050e-001 1.370318e+000 0.000000e+000
         vertex -1.003696e+000 1.114717e+000 0.000000e+000
         vertex -8.816779e-001 1.213526e+000 0.000000e+000
      endloop
   endfacet
   facet normal 0.000000e+000 0.000000e+000 -1.000000e+000
      outer loop
         vertex -1.003696e+000 1.114717e+000 0.000000e+000
         vertex -1.213526e+000 8.816779e-001 0.000000e+000
         vertex -1.114717e+000 1.003696e+000 0.000000e+000
      endloop
   endfacet
   facet normal 0.000000e+000 -0.000000e+000 -1.000000e+000
      outer loop
         vertex -1.467221e+000 3.118675e-001 0.000000e+000
         vertex -1.426585e+000 4.635255e-001 0.000000e+000
         vertex -1.370318e+000 6.101050e-001 0.000000e+000
      endloop
   endfacet
   facet normal 0.000000e+000 0.000000e+000 -1.000000e+000
      outer loop
         vertex -1.491783e+000 -1.567927e-001 0.000000e+000
         vertex -1.500000e+000 -8.155037e-016 0.000000e+000
         vertex -1.491783e+000 1.567927e-001 0.000000e+000
      endloop
   endfacet
   facet normal 0.000000e+000 0.000000e+000 -1.000000e+000
      outer loop
         vertex -1.370318e+000 -6.101050e-001 0.000000e+000
         vertex -1.426585e+000 -4.635255e-001 0.000000e+000
         vertex -1.467221e+000 -3.118675e-001 0.000000e+000
      endloop
   endfacet
   facet normal 0.000000e+000 0.000000e+000 -1.000000e+000
      outer loop
         vertex -1.370318e+000 -6.101050e-001 0.000000e+000
         vertex -1.213526e+000 -8.816779e-001 0.000000e+000
         vertex -1.299038e+000 -7.500000e-001 0.000000e+000
      endloop
   endfacet
   facet normal 0.000000e+000 0.000000e+000 -1.000000e+000
      outer loop
         vertex -7.500000e-001 -1.299038e+000 0.000000e+000
         vertex -8.816779e-001 -1.213526e+000 0.000000e+000
         vertex -1.003696e+000 -1.114717e+000 0.000000e+000
      endloop
   endfacet
   facet normal 0.000000e+000 0.000000e+000 -1.000000e+000
      outer loop
         vertex -7.500000e-001 -1.299038e+000 0.000000e+000
         vertex -4.635255e-001 -1.426585e+000 0.000000e+000
         vertex -6.101050e-001 -1.370318e+000 0.000000e+000
      endloop
   endfacet
   facet normal 0.000000e+000 0.000000e+000 -1.000000e+000
      outer loop
         vertex -3.118675e-001 -1.467221e+000 0.000000e+000
         vertex -2.755455e-016 -1.500000e+000 0.000000e+000
         vertex -1.567927e-001 -1.491783e+000 0.000000e+000
      endloop
   endfacet
   facet normal 0.000000e+000 0.000000e+000 -1.000000e+000
      outer loop
         vertex 1.567927e-001 -1.491783e+000 0.000000e+000
         vertex 4.635255e-001 -1.426585e+000 0.000000e+000
         vertex 3.118675e-001 -1.467221e+000 0.000000e+000
      endloop
   endfacet
   facet normal -0.000000e+000 0.000000e+000 -1.000000e+000
      outer loop
         vertex 1.003696e+000 -1.114717e+000 0.000000e+000
         vertex 8.816779e-001 -1.213526e+000 0.000000e+000
         vertex 7.500000e-001 -1.299038e+000 0.000000e+000
      endloop
   endfacet
   facet normal 0.000000e+000 0.000000e+000 -1.000000e+000
      outer loop
         vertex 1.003696e+000 -1.114717e+000 0.000000e+000
         vertex 1.213526e+000 -8.816779e-001 0.000000e+000
         vertex 1.114717e+000 -1.003696e+000 0.000000e+000
      endloop
   endfacet
   facet normal 0.000000e+000 0.000000e+000 -1.000000e+000
      outer loop
         vertex 1.299038e+000 -7.500000e-001 0.000000e+000
         vertex 1.426585e+000 -4.635255e-001 0.000000e+000
         vertex 1.370318e+000 -6.101050e-001 0.000000e+000
      endloop
   endfacet
   facet normal 0.000000e+000 -0.000000e+000 -1.000000e+000
      outer loop
         vertex 1.467221e+000 -3.118675e-001 0.000000e+000
         vertex 1.491783e+000 1.567927e-001 0.000000e+000
         vertex 1.491783e+000 -1.567927e-001 0.000000e+000
      endloop
   endfacet
   facet normal -0.000000e+000 -0.000000e+000 -1.000000e+000
      outer loop
         vertex 7.500000e-001 1.299038e+000 0.000000e+000
         vertex 1.213526e+000 8.816779e-001 0.000000e+000
         vertex 1.426585e+000 4.635255e-001 0.000000e+000
      endloop
   endfacet
   facet normal 0.000000e+000 0.000000e+000 -1.000000e+000
      outer loop
         vertex 1.491783e+000 1.567927e-001 0.000000e+000
         vertex 1.567927e-001 1.491783e+000 0.000000e+000
         vertex 4.635255e-001 1.426585e+000 0.000000e+000
      endloop
   endfacet
   facet normal 0.000000e+000 0.000000e+000 -1.000000e+000
      outer loop
         vertex 1.567927e-001 1.491783e+000 0.000000e+000
         vertex -6.101050e-001 1.370318e+000 0.000000e+000
         vertex -3.118675e-001 1.467221e+000 0.000000e+000
      endloop
   endfacet
   facet normal 0.000000e+000 -0.000000e+000 -1.000000e+000
      outer loop
         vertex -1.213526e+000 8.816779e-001 0.000000e+000
         vertex -1.003696e+000 1.114717e+000 0.000000e+000
         vertex -6.101050e-001 1.370318e+000 0.000000e+000
      endloop
   endfacet
   facet normal 0.000000e+000 0.000000e+000 -1.000000e+000
      outer loop
         vertex -1.467221e+000 -3.118675e-001 0.000000e+000
         vertex -1.491783e+000 -1.567927e-001 0.000000e+000
         vertex -1.491783e+000 1.567927e-001 0.000000e+000
      endloop
   endfacet
   facet normal 0.000000e+000 0.000000e+000 -1.000000e+000
      outer loop
         vertex -1.213526e+000 -8.816779e-001 0.000000e+000
         vertex -7.500000e-001 -1.299038e+000 0.000000e+000
         vertex -1.003696e+000 -1.114717e+000 0.000000e+000
      endloop
   endfacet
   facet normal 0.000000e+000 0.000000e+000 -1.000000e+000
      outer loop
         vertex 1.567927e-001 -1.491783e+000 0.000000e+000
         vertex -2.755455e-016 -1.500000e+000 0.000000e+000
         vertex -3.118675e-001 -1.467221e+000 0.000000e+000
      endloop
   endfacet
   facet normal -0.000000e+000 0.000000e+000 -1.000000e+000
      outer loop
         vertex -1.213526e+000 -8.816779e-001 0.000000e+000
         vertex 1.213526e+000 -8.816779e-001 0.000000e+000
         vertex 1.003696e+000 -1.114717e+000 0.000000e+000
      endloop
   endfacet
   facet normal 0.000000e+000 0.000000e+000 -1.000000e+000
      outer loop
         vertex 1.213526e+000 -8.816779e-001 0.000000e+000
         vertex 1.491783e+000 1.567927e-001 0.000000e+000
         vertex 1.467221e+000 -3.118675e-001 0.000000e+000
      endloop
   endfacet
   facet normal 0.000000e+000 0.000000e+000 -1.000000e+000
      outer loop
         vertex 1.114717e+000 1.003696e+000 0.000000e+000
         vertex 1.213526e+000 8.816779e-001 0.000000e+000
         vertex 7.500000e-001 1.299038e+000 0.000000e+000
      endloop
   endfacet
   facet normal 0.000000e+000 -0.000000e+000 -1.000000e+000
      outer loop
         vertex -1.370318e+000 -6.101050e-001 0.000000e+000
         vertex -6.101050e-001 1.370318e+000 0.000000e+000
         vertex 1.567927e-001 1.491783e+000 0.000000e+000
      endloop
   endfacet
   facet normal 0.000000e+000 0.000000e+000 -1.000000e+000
      outer loop
         vertex -1.370318e+000 -6.101050e-001 0.000000e+000
         vertex -1.467221e+000 -3.118675e-001 0.000000e+000
         vertex -1.491783e+000 1.567927e-001 0.000000e+000
      endloop
   endfacet
   facet normal 0.000000e+000 0.000000e+000 -1.000000e+000
      outer loop
         vertex -7.500000e-001 -1.299038e+000 0.000000e+000
         vertex -1.213526e+000 -8.816779e-001 0.000000e+000
         vertex 1.003696e+000 -1.114717e+000 0.000000e+000
      endloop
   endfacet
   facet normal 0.000000e+000 0.000000e+000 -1.000000e+000
      outer loop
         vertex -1.213526e+000 -8.816779e-001 0.000000e+000
         vertex 1.491783e+000 1.567927e-001 0.000000e+000
         vertex 1.213526e+000 -8.816779e-001 0.000000e+000
      endloop
   endfacet
   facet normal 0.000000e+000 0.000000e+000 -1.000000e+000
      outer loop
         vertex -1.213526e+000 8.816779e-001 0.000000e+000
         vertex -1.370318e+000 -6.101050e-001 0.000000e+000
         vertex -1.491783e+000 1.567927e-001 0.000000e+000
      endloop
   endfacet
   facet normal 0.000000e+000 0.000000e+000 -1.000000e+000
      outer loop
         vertex -1.370318e+000 -6.101050e-001 0.000000e+000
         vertex 1.491783e+000 1.567927e-001 0.000000e+000
         vertex -1.213526e+000 -8.816779e-001 0.000000e+000
      endloop
   endfacet
   facet normal -0.000000e+000 0.000000e+000 -1.000000e+000
      outer loop
         vertex 1.567927e-001 1.491783e+000 0.000000e+000
         vertex 1.491783e+000 1.567927e-001 0.000000e+000
         vertex -1.370318e+000 -6.101050e-001 0.000000e+000
      endloop
   endfacet
   facet normal -0.000000e+000 -0.000000e+000 -1.000000e+000
      outer loop
         vertex 1.299038e+000 7.500000e-001 0.000000e+000
         vertex 1.370318e+000 6.101050e-001 0.000000e+000
         vertex 1.426585e+000 4.635255e-001 0.000000e+000
      endloop
   endfacet
   facet normal 0.000000e+000 0.000000e+000 -1.000000e+000
      outer loop
         vertex 7.500000e-001 1.299038e+000 0.000000e+000
         vertex 4.635255e-001 1.426585e+000 0.000000e+000
         vertex 6.101050e-001 1.370318e+000 0.000000e+000
      endloop
   endfacet
   facet normal 0.000000e+000 0.000000e+000 -1.000000e+000
      outer loop
         vertex -6.101050e-001 1.370318e+000 0.000000e+000
         vertex -8.816779e-001 1.213526e+000 0.000000e+000
         vertex -7.500000e-001 1.299038e+000 0.000000e+000
      endloop
   endfacet
   facet normal 0.000000e+000 0.000000e+000 -1.000000e+000
      outer loop
         vertex -1.370318e+000 6.101050e-001 0.000000e+000
         vertex -1.491783e+000 1.567927e-001 0.000000e+000
         vertex -1.467221e+000 3.118675e-001 0.000000e+000
      endloop
   endfacet
   facet normal 0.000000e+000 0.000000e+000 -1.000000e+000
      outer loop
         vertex -1.213526e+000 -8.816779e-001 0.000000e+000
         vertex -1.003696e+000 -1.114717e+000 0.000000e+000
         vertex -1.114717e+000 -1.003696e+000 0.000000e+000
      endloop
   endfacet
   facet normal -0.000000e+000 0.000000e+000 -1.000000e+000
      outer loop
         vertex 1.003696e+000 -1.114717e+000 0.000000e+000
         vertex 7.500000e-001 -1.299038e+000 0.000000e+000
         vertex 6.101050e-001 -1.370318e+000 0.000000e+000
      endloop
   endfacet
   facet normal 0.000000e+000 0.000000e+000 -1.000000e+000
      outer loop
         vertex 1.213526e+000 -8.816779e-001 0.000000e+000
         vertex 1.467221e+000 -3.118675e-001 0.000000e+000
         vertex 1.426585e+000 -4.635255e-001 0.000000e+000
      endloop
   endfacet
   facet normal 0.000000e+000 -0.000000e+000 -1.000000e+000
      outer loop
         vertex -3.118675e-001 1.467221e+000 0.000000e+000
         vertex -1.567927e-001 1.491783e+000 0.000000e+000
         vertex 1.567927e-001 1.491783e+000 0.000000e+000
      endloop
   endfacet
   facet normal 0.000000e+000 0.000000e+000 -1.000000e+000
      outer loop
         vertex 1.213526e+000 -8.816779e-001 0.000000e+000
         vertex 1.426585e+000 -4.635255e-001 0.000000e+000
         vertex 1.299038e+000 -7.500000e-001 0.000000e+000
      endloop
   endfacet
   facet normal 0.000000e+000 0.000000e+000 -1.000000e+000
      outer loop
         vertex 1.003696e+000 -1.114717e+000 0.000000e+000
         vertex 1.567927e-001 -1.491783e+000 0.000000e+000
         vertex -3.118675e-001 -1.467221e+000 0.000000e+000
      endloop
   endfacet
   facet normal 0.000000e+000 0.000000e+000 -1.000000e+000
      outer loop
         vertex -3.118675e-001 -1.467221e+000 0.000000e+000
         vertex -7.500000e-001 -1.299038e+000 0.000000e+000
         vertex 1.003696e+000 -1.114717e+000 0.000000e+000
      endloop
   endfacet
   facet normal 0.000000e+000 0.000000e+000 -1.000000e+000
      outer loop
         vertex 1.491783e+000 1.567927e-001 0.000000e+000
         vertex 4.635255e-001 1.426585e+000 0.000000e+000
         vertex 7.500000e-001 1.299038e+000 0.000000e+000
      endloop
   endfacet
   facet normal 0.000000e+000 0.000000e+000 -1.000000e+000
      outer loop
         vertex 4.635255e-001 -1.426585e+000 0.000000e+000
         vertex 1.567927e-001 -1.491783e+000 0.000000e+000
         vertex 1.003696e+000 -1.114717e+000 0.000000e+000
      endloop
   endfacet
   facet normal 0.000000e+000 0.000000e+000 -1.000000e+000
      outer loop
         vertex 6.101050e-001 -1.370318e+000 0.000000e+000
         vertex 4.635255e-001 -1.426585e+000 0.000000e+000
         vertex 1.003696e+000 -1.114717e+000 0.000000e+000
      endloop
   endfacet
   facet normal 0.000000e+000 -0.000000e+000 -1.000000e+000
      outer loop
         vertex -1.370318e+000 6.101050e-001 0.000000e+000
         vertex -1.299038e+000 7.500000e-001 0.000000e+000
         vertex -1.213526e+000 8.816779e-001 0.000000e+000
      endloop
   endfacet
   facet normal -0.000000e+000 -0.000000e+000 -1.000000e+000
      outer loop
         vertex 7.500000e-001 1.299038e+000 0.000000e+000
         vertex 1.426585e+000 4.635255e-001 0.000000e+000
         vertex 1.491783e+000 1.567927e-001 0.000000e+000
      endloop
   endfacet
   facet normal 0.000000e+000 0.000000e+000 -1.000000e+000
      outer loop
         vertex -1.213526e+000 8.816779e-001 0.000000e+000
         vertex -6.101050e-001 1.370318e+000 0.000000e+000
         vertex -1.370318e+000 -6.101050e-001 0.000000e+000
      endloop
   endfacet
   facet normal 0.000000e+000 0.000000e+000 -1.000000e+000
      outer loop
         vertex -4.635255e-001 -1.426585e+000 0.000000e+000
         vertex -7.500000e-001 -1.299038e+000 0.000000e+000
         vertex -3.118675e-001 -1.467221e+000 0.000000e+000
      endloop
   endfacet
   facet normal 0.000000e+000 0.000000e+000 -1.000000e+000
      outer loop
         vertex -1.370318e+000 6.101050e-001 0.000000e+000
         vertex -1.213526e+000 8.816779e-001 0.000000e+000
         vertex -1.491783e+000 1.567927e-001 0.000000e+000
      endloop
   endfacet
endsolid
