solid 
   facet normal 0.000000e+000 0.000000e+000 1.000000e+000
      outer loop
         vertex 5.162157e-017 3.000000e+000 2.000000e+000
         vertex 8.500000e+000 3.000000e+000 2.000000e+000
         vertex 3.441438e-016 1.000000e+001 2.000000e+000
      endloop
   endfacet
   facet normal 0.000000e+000 -0.000000e+000 1.000000e+000
      outer loop
         vertex 3.441438e-016 1.000000e+001 2.000000e+000
         vertex 8.500000e+000 3.000000e+000 2.000000e+000
         vertex 8.500000e+000 1.000000e+001 2.000000e+000
      endloop
   endfacet
   facet normal 0.000000e+000 1.000000e+000 0.000000e+000
      outer loop
         vertex 3.441438e-016 1.000000e+001 2.000000e+000
         vertex 8.500000e+000 1.000000e+001 2.000000e+000
         vertex 3.441438e-016 1.000000e+001 0.000000e+000
      endloop
   endfacet
   facet normal -0.000000e+000 1.000000e+000 0.000000e+000
      outer loop
         vertex 3.441438e-016 1.000000e+001 0.000000e+000
         vertex 8.500000e+000 1.000000e+001 2.000000e+000
         vertex 1.650000e+001 1.000000e+001 2.000000e+000
      endloop
   endfacet
   facet normal 0.000000e+000 1.000000e+000 0.000000e+000
      outer loop
         vertex 3.441438e-016 1.000000e+001 0.000000e+000
         vertex 1.650000e+001 1.000000e+001 2.000000e+000
         vertex 2.500000e+001 1.000000e+001 0.000000e+000
      endloop
   endfacet
   facet normal -0.000000e+000 1.000000e+000 0.000000e+000
      outer loop
         vertex 2.500000e+001 1.000000e+001 0.000000e+000
         vertex 1.650000e+001 1.000000e+001 2.000000e+000
         vertex 2.500000e+001 1.000000e+001 2.000000e+000
      endloop
   endfacet
   facet normal 0.000000e+000 -1.000000e+000 0.000000e+000
      outer loop
         vertex 2.382614e+001 0.000000e+000 8.315599e+000
         vertex 2.500000e+001 0.000000e+000 1.300000e+001
         vertex 2.315839e+001 0.000000e+000 9.130379e+000
      endloop
   endfacet
   facet normal 0.000000e+000 -1.000000e+000 0.000000e+000
      outer loop
         vertex 2.315839e+001 0.000000e+000 9.130379e+000
         vertex 2.500000e+001 0.000000e+000 1.300000e+001
         vertex 2.216925e+001 0.000000e+000 9.492826e+000
      endloop
   endfacet
   facet normal 0.000000e+000 -1.000000e+000 0.000000e+000
      outer loop
         vertex 2.216925e+001 0.000000e+000 9.492826e+000
         vertex 2.500000e+001 0.000000e+000 1.300000e+001
         vertex 2.113316e+001 0.000000e+000 9.302383e+000
      endloop
   endfacet
   facet normal 0.000000e+000 -1.000000e+000 0.000000e+000
      outer loop
         vertex 2.382614e+001 0.000000e+000 8.315599e+000
         vertex 2.400000e+001 0.000000e+000 7.500000e+000
         vertex 2.500000e+001 0.000000e+000 1.300000e+001
      endloop
   endfacet
   facet normal 0.000000e+000 -1.000000e+000 0.000000e+000
      outer loop
         vertex 2.500000e+001 0.000000e+000 1.300000e+001
         vertex 2.400000e+001 0.000000e+000 7.500000e+000
         vertex 2.500000e+001 0.000000e+000 0.000000e+000
      endloop
   endfacet
   facet normal 0.000000e+000 -1.000000e+000 -0.000000e+000
      outer loop
         vertex 2.500000e+001 0.000000e+000 0.000000e+000
         vertex 2.400000e+001 0.000000e+000 7.500000e+000
         vertex 2.372256e+001 0.000000e+000 6.483739e+000
      endloop
   endfacet
   facet normal 0.000000e+000 -1.000000e+000 -0.000000e+000
      outer loop
         vertex 2.500000e+001 0.000000e+000 0.000000e+000
         vertex 2.372256e+001 0.000000e+000 6.483739e+000
         vertex 1.900000e+001 0.000000e+000 0.000000e+000
      endloop
   endfacet
   facet normal 0.000000e+000 -1.000000e+000 0.000000e+000
      outer loop
         vertex 1.900000e+001 0.000000e+000 0.000000e+000
         vertex 2.372256e+001 0.000000e+000 6.483739e+000
         vertex 2.296721e+001 0.000000e+000 5.749429e+000
      endloop
   endfacet
   facet normal 0.000000e+000 -1.000000e+000 0.000000e+000
      outer loop
         vertex 1.900000e+001 0.000000e+000 0.000000e+000
         vertex 2.296721e+001 0.000000e+000 5.749429e+000
         vertex 2.194352e+001 0.000000e+000 5.500798e+000
      endloop
   endfacet
   facet normal -0.000000e+000 -1.000000e+000 0.000000e+000
      outer loop
         vertex 1.900000e+001 0.000000e+000 0.000000e+000
         vertex 2.194352e+001 0.000000e+000 5.500798e+000
         vertex 2.093550e+001 0.000000e+000 5.806825e+000
      endloop
   endfacet
   facet normal -0.000000e+000 -1.000000e+000 0.000000e+000
      outer loop
         vertex 1.900000e+001 0.000000e+000 0.000000e+000
         vertex 2.093550e+001 0.000000e+000 5.806825e+000
         vertex 2.022281e+001 0.000000e+000 6.582607e+000
      endloop
   endfacet
   facet normal -0.000000e+000 -1.000000e+000 0.000000e+000
      outer loop
         vertex 1.900000e+001 0.000000e+000 0.000000e+000
         vertex 2.022281e+001 0.000000e+000 6.582607e+000
         vertex 2.000319e+001 0.000000e+000 7.612910e+000
      endloop
   endfacet
   facet normal -0.000000e+000 -1.000000e+000 0.000000e+000
      outer loop
         vertex 1.900000e+001 0.000000e+000 0.000000e+000
         vertex 2.000319e+001 0.000000e+000 7.612910e+000
         vertex 1.900000e+001 0.000000e+000 1.300000e+001
      endloop
   endfacet
   facet normal 0.000000e+000 -1.000000e+000 0.000000e+000
      outer loop
         vertex 1.900000e+001 0.000000e+000 1.300000e+001
         vertex 2.000319e+001 0.000000e+000 7.612910e+000
         vertex 2.033756e+001 0.000000e+000 8.611888e+000
      endloop
   endfacet
   facet normal 0.000000e+000 -1.000000e+000 0.000000e+000
      outer loop
         vertex 1.900000e+001 0.000000e+000 1.300000e+001
         vertex 2.033756e+001 0.000000e+000 8.611888e+000
         vertex 2.500000e+001 0.000000e+000 1.300000e+001
      endloop
   endfacet
   facet normal 0.000000e+000 -1.000000e+000 0.000000e+000
      outer loop
         vertex 2.500000e+001 0.000000e+000 1.300000e+001
         vertex 2.033756e+001 0.000000e+000 8.611888e+000
         vertex 2.113316e+001 0.000000e+000 9.302383e+000
      endloop
   endfacet
   facet normal -1.000000e+000 4.178889e-017 0.000000e+000
      outer loop
         vertex 3.441438e-016 1.000000e+001 2.000000e+000
         vertex 3.441438e-016 1.000000e+001 0.000000e+000
         vertex 5.162157e-017 3.000000e+000 2.000000e+000
      endloop
   endfacet
   facet normal -1.000000e+000 3.441438e-017 -2.581078e-017
      outer loop
         vertex 5.162157e-017 3.000000e+000 2.000000e+000
         vertex 3.441438e-016 1.000000e+001 0.000000e+000
         vertex 0.000000e+000 0.000000e+000 0.000000e+000
      endloop
   endfacet
   facet normal -1.000000e+000 1.720719e-017 0.000000e+000
      outer loop
         vertex 5.162157e-017 3.000000e+000 2.000000e+000
         vertex 0.000000e+000 0.000000e+000 0.000000e+000
         vertex 0.000000e+000 0.000000e+000 1.300000e+001
      endloop
   endfacet
   facet normal -1.000000e+000 2.294292e-017 1.564290e-018
      outer loop
         vertex 5.162157e-017 3.000000e+000 2.000000e+000
         vertex 0.000000e+000 0.000000e+000 1.300000e+001
         vertex 6.882876e-017 3.000000e+000 1.300000e+001
      endloop
   endfacet
   facet normal -0.000000e+000 0.000000e+000 1.000000e+000
      outer loop
         vertex 2.500000e+001 1.000000e+001 2.000000e+000
         vertex 1.650000e+001 1.000000e+001 2.000000e+000
         vertex 2.500000e+001 3.000000e+000 2.000000e+000
      endloop
   endfacet
   facet normal 0.000000e+000 0.000000e+000 1.000000e+000
      outer loop
         vertex 2.500000e+001 3.000000e+000 2.000000e+000
         vertex 1.650000e+001 1.000000e+001 2.000000e+000
         vertex 1.650000e+001 3.000000e+000 2.000000e+000
      endloop
   endfacet
   facet normal 0.000000e+000 -1.000000e+000 0.000000e+000
      outer loop
         vertex 1.222814e+000 0.000000e+000 6.582607e+000
         vertex 0.000000e+000 0.000000e+000 0.000000e+000
         vertex 1.935501e+000 0.000000e+000 5.806825e+000
      endloop
   endfacet
   facet normal 0.000000e+000 -1.000000e+000 0.000000e+000
      outer loop
         vertex 1.935501e+000 0.000000e+000 5.806825e+000
         vertex 0.000000e+000 0.000000e+000 0.000000e+000
         vertex 2.943522e+000 0.000000e+000 5.500798e+000
      endloop
   endfacet
   facet normal 0.000000e+000 -1.000000e+000 0.000000e+000
      outer loop
         vertex 2.943522e+000 0.000000e+000 5.500798e+000
         vertex 0.000000e+000 0.000000e+000 0.000000e+000
         vertex 3.967213e+000 0.000000e+000 5.749429e+000
      endloop
   endfacet
   facet normal 0.000000e+000 -1.000000e+000 -0.000000e+000
      outer loop
         vertex 1.222814e+000 0.000000e+000 6.582607e+000
         vertex 1.003190e+000 0.000000e+000 7.612910e+000
         vertex 0.000000e+000 0.000000e+000 0.000000e+000
      endloop
   endfacet
   facet normal -0.000000e+000 -1.000000e+000 0.000000e+000
      outer loop
         vertex 0.000000e+000 0.000000e+000 0.000000e+000
         vertex 1.003190e+000 0.000000e+000 7.612910e+000
         vertex 0.000000e+000 0.000000e+000 1.300000e+001
      endloop
   endfacet
   facet normal 0.000000e+000 -1.000000e+000 0.000000e+000
      outer loop
         vertex 0.000000e+000 0.000000e+000 1.300000e+001
         vertex 1.003190e+000 0.000000e+000 7.612910e+000
         vertex 1.337560e+000 0.000000e+000 8.611888e+000
      endloop
   endfacet
   facet normal 0.000000e+000 -1.000000e+000 0.000000e+000
      outer loop
         vertex 0.000000e+000 0.000000e+000 1.300000e+001
         vertex 1.337560e+000 0.000000e+000 8.611888e+000
         vertex 6.000000e+000 0.000000e+000 1.300000e+001
      endloop
   endfacet
   facet normal 0.000000e+000 -1.000000e+000 0.000000e+000
      outer loop
         vertex 6.000000e+000 0.000000e+000 1.300000e+001
         vertex 1.337560e+000 0.000000e+000 8.611888e+000
         vertex 2.133158e+000 0.000000e+000 9.302383e+000
      endloop
   endfacet
   facet normal 0.000000e+000 -1.000000e+000 0.000000e+000
      outer loop
         vertex 6.000000e+000 0.000000e+000 1.300000e+001
         vertex 2.133158e+000 0.000000e+000 9.302383e+000
         vertex 3.169253e+000 0.000000e+000 9.492826e+000
      endloop
   endfacet
   facet normal 0.000000e+000 -1.000000e+000 0.000000e+000
      outer loop
         vertex 6.000000e+000 0.000000e+000 1.300000e+001
         vertex 3.169253e+000 0.000000e+000 9.492826e+000
         vertex 4.158390e+000 0.000000e+000 9.130379e+000
      endloop
   endfacet
   facet normal 0.000000e+000 -1.000000e+000 0.000000e+000
      outer loop
         vertex 6.000000e+000 0.000000e+000 1.300000e+001
         vertex 4.158390e+000 0.000000e+000 9.130379e+000
         vertex 4.826143e+000 0.000000e+000 8.315599e+000
      endloop
   endfacet
   facet normal 0.000000e+000 -1.000000e+000 0.000000e+000
      outer loop
         vertex 6.000000e+000 0.000000e+000 1.300000e+001
         vertex 4.826143e+000 0.000000e+000 8.315599e+000
         vertex 5.000000e+000 0.000000e+000 7.500000e+000
      endloop
   endfacet
   facet normal 0.000000e+000 -1.000000e+000 0.000000e+000
      outer loop
         vertex 6.000000e+000 0.000000e+000 1.300000e+001
         vertex 5.000000e+000 0.000000e+000 7.500000e+000
         vertex 6.000000e+000 0.000000e+000 0.000000e+000
      endloop
   endfacet
   facet normal 0.000000e+000 -1.000000e+000 -0.000000e+000
      outer loop
         vertex 6.000000e+000 0.000000e+000 0.000000e+000
         vertex 5.000000e+000 0.000000e+000 7.500000e+000
         vertex 4.722560e+000 0.000000e+000 6.483739e+000
      endloop
   endfacet
   facet normal 0.000000e+000 -1.000000e+000 -0.000000e+000
      outer loop
         vertex 6.000000e+000 0.000000e+000 0.000000e+000
         vertex 4.722560e+000 0.000000e+000 6.483739e+000
         vertex 0.000000e+000 0.000000e+000 0.000000e+000
      endloop
   endfacet
   facet normal 0.000000e+000 -1.000000e+000 0.000000e+000
      outer loop
         vertex 0.000000e+000 0.000000e+000 0.000000e+000
         vertex 4.722560e+000 0.000000e+000 6.483739e+000
         vertex 3.967213e+000 0.000000e+000 5.749429e+000
      endloop
   endfacet
   facet normal 1.000000e+000 0.000000e+000 0.000000e+000
      outer loop
         vertex 2.500000e+001 0.000000e+000 1.300000e+001
         vertex 2.500000e+001 0.000000e+000 0.000000e+000
         vertex 2.500000e+001 3.000000e+000 1.300000e+001
      endloop
   endfacet
   facet normal 1.000000e+000 0.000000e+000 0.000000e+000
      outer loop
         vertex 2.500000e+001 3.000000e+000 1.300000e+001
         vertex 2.500000e+001 0.000000e+000 0.000000e+000
         vertex 2.500000e+001 3.000000e+000 2.000000e+000
      endloop
   endfacet
   facet normal 1.000000e+000 0.000000e+000 0.000000e+000
      outer loop
         vertex 2.500000e+001 3.000000e+000 2.000000e+000
         vertex 2.500000e+001 0.000000e+000 0.000000e+000
         vertex 2.500000e+001 1.000000e+001 0.000000e+000
      endloop
   endfacet
   facet normal 1.000000e+000 0.000000e+000 -0.000000e+000
      outer loop
         vertex 2.500000e+001 3.000000e+000 2.000000e+000
         vertex 2.500000e+001 1.000000e+001 0.000000e+000
         vertex 2.500000e+001 1.000000e+001 2.000000e+000
      endloop
   endfacet
   facet normal 0.000000e+000 0.000000e+000 -1.000000e+000
      outer loop
         vertex 6.000000e+000 0.000000e+000 0.000000e+000
         vertex 0.000000e+000 0.000000e+000 0.000000e+000
         vertex 6.000000e+000 1.000000e+000 0.000000e+000
      endloop
   endfacet
   facet normal 0.000000e+000 0.000000e+000 -1.000000e+000
      outer loop
         vertex 6.000000e+000 1.000000e+000 0.000000e+000
         vertex 0.000000e+000 0.000000e+000 0.000000e+000
         vertex 3.441438e-016 1.000000e+001 0.000000e+000
      endloop
   endfacet
   facet normal 0.000000e+000 0.000000e+000 -1.000000e+000
      outer loop
         vertex 6.000000e+000 1.000000e+000 0.000000e+000
         vertex 3.441438e-016 1.000000e+001 0.000000e+000
         vertex 2.500000e+001 1.000000e+001 0.000000e+000
      endloop
   endfacet
   facet normal 0.000000e+000 0.000000e+000 -1.000000e+000
      outer loop
         vertex 6.000000e+000 1.000000e+000 0.000000e+000
         vertex 2.500000e+001 1.000000e+001 0.000000e+000
         vertex 1.900000e+001 1.000000e+000 0.000000e+000
      endloop
   endfacet
   facet normal 0.000000e+000 -0.000000e+000 -1.000000e+000
      outer loop
         vertex 1.900000e+001 1.000000e+000 0.000000e+000
         vertex 2.500000e+001 1.000000e+001 0.000000e+000
         vertex 2.500000e+001 0.000000e+000 0.000000e+000
      endloop
   endfacet
   facet normal 0.000000e+000 0.000000e+000 -1.000000e+000
      outer loop
         vertex 1.900000e+001 1.000000e+000 0.000000e+000
         vertex 2.500000e+001 0.000000e+000 0.000000e+000
         vertex 1.900000e+001 0.000000e+000 0.000000e+000
      endloop
   endfacet
   facet normal 0.000000e+000 0.000000e+000 1.000000e+000
      outer loop
         vertex 0.000000e+000 0.000000e+000 1.300000e+001
         vertex 6.000000e+000 0.000000e+000 1.300000e+001
         vertex 6.882876e-017 3.000000e+000 1.300000e+001
      endloop
   endfacet
   facet normal 0.000000e+000 -0.000000e+000 1.000000e+000
      outer loop
         vertex 6.882876e-017 3.000000e+000 1.300000e+001
         vertex 6.000000e+000 0.000000e+000 1.300000e+001
         vertex 6.000000e+000 1.000000e+000 1.300000e+001
      endloop
   endfacet
   facet normal 0.000000e+000 -0.000000e+000 1.000000e+000
      outer loop
         vertex 6.882876e-017 3.000000e+000 1.300000e+001
         vertex 6.000000e+000 1.000000e+000 1.300000e+001
         vertex 8.500000e+000 3.000000e+000 1.300000e+001
      endloop
   endfacet
   facet normal 0.000000e+000 0.000000e+000 1.000000e+000
      outer loop
         vertex 8.500000e+000 3.000000e+000 1.300000e+001
         vertex 6.000000e+000 1.000000e+000 1.300000e+001
         vertex 1.900000e+001 1.000000e+000 1.300000e+001
      endloop
   endfacet
   facet normal 0.000000e+000 0.000000e+000 1.000000e+000
      outer loop
         vertex 8.500000e+000 3.000000e+000 1.300000e+001
         vertex 1.900000e+001 1.000000e+000 1.300000e+001
         vertex 1.650000e+001 3.000000e+000 1.300000e+001
      endloop
   endfacet
   facet normal -0.000000e+000 -0.000000e+000 1.000000e+000
      outer loop
         vertex 1.650000e+001 3.000000e+000 1.300000e+001
         vertex 1.900000e+001 1.000000e+000 1.300000e+001
         vertex 2.500000e+001 0.000000e+000 1.300000e+001
      endloop
   endfacet
   facet normal 0.000000e+000 0.000000e+000 1.000000e+000
      outer loop
         vertex 2.500000e+001 0.000000e+000 1.300000e+001
         vertex 1.900000e+001 1.000000e+000 1.300000e+001
         vertex 1.900000e+001 0.000000e+000 1.300000e+001
      endloop
   endfacet
   facet normal 0.000000e+000 0.000000e+000 1.000000e+000
      outer loop
         vertex 2.500000e+001 0.000000e+000 1.300000e+001
         vertex 2.500000e+001 3.000000e+000 1.300000e+001
         vertex 1.650000e+001 3.000000e+000 1.300000e+001
      endloop
   endfacet
   facet normal 0.000000e+000 1.000000e+000 -0.000000e+000
      outer loop
         vertex 1.337560e+000 3.000000e+000 8.611888e+000
         vertex 1.003190e+000 3.000000e+000 7.612910e+000
         vertex 6.882876e-017 3.000000e+000 1.300000e+001
      endloop
   endfacet
   facet normal 0.000000e+000 1.000000e+000 0.000000e+000
      outer loop
         vertex 6.882876e-017 3.000000e+000 1.300000e+001
         vertex 1.003190e+000 3.000000e+000 7.612910e+000
         vertex 5.162157e-017 3.000000e+000 2.000000e+000
      endloop
   endfacet
   facet normal 0.000000e+000 1.000000e+000 0.000000e+000
      outer loop
         vertex 5.162157e-017 3.000000e+000 2.000000e+000
         vertex 1.003190e+000 3.000000e+000 7.612910e+000
         vertex 1.222814e+000 3.000000e+000 6.582607e+000
      endloop
   endfacet
   facet normal 0.000000e+000 1.000000e+000 0.000000e+000
      outer loop
         vertex 5.162157e-017 3.000000e+000 2.000000e+000
         vertex 1.222814e+000 3.000000e+000 6.582607e+000
         vertex 1.935501e+000 3.000000e+000 5.806825e+000
      endloop
   endfacet
   facet normal 0.000000e+000 1.000000e+000 0.000000e+000
      outer loop
         vertex 5.162157e-017 3.000000e+000 2.000000e+000
         vertex 1.935501e+000 3.000000e+000 5.806825e+000
         vertex 8.500000e+000 3.000000e+000 2.000000e+000
      endloop
   endfacet
   facet normal 0.000000e+000 1.000000e+000 0.000000e+000
      outer loop
         vertex 8.500000e+000 3.000000e+000 2.000000e+000
         vertex 1.935501e+000 3.000000e+000 5.806825e+000
         vertex 2.943522e+000 3.000000e+000 5.500798e+000
      endloop
   endfacet
   facet normal -0.000000e+000 1.000000e+000 0.000000e+000
      outer loop
         vertex 8.500000e+000 3.000000e+000 2.000000e+000
         vertex 2.943522e+000 3.000000e+000 5.500798e+000
         vertex 3.967213e+000 3.000000e+000 5.749429e+000
      endloop
   endfacet
   facet normal -0.000000e+000 1.000000e+000 0.000000e+000
      outer loop
         vertex 8.500000e+000 3.000000e+000 2.000000e+000
         vertex 3.967213e+000 3.000000e+000 5.749429e+000
         vertex 4.722560e+000 3.000000e+000 6.483739e+000
      endloop
   endfacet
   facet normal -0.000000e+000 1.000000e+000 0.000000e+000
      outer loop
         vertex 8.500000e+000 3.000000e+000 2.000000e+000
         vertex 4.722560e+000 3.000000e+000 6.483739e+000
         vertex 8.500000e+000 3.000000e+000 1.300000e+001
      endloop
   endfacet
   facet normal 0.000000e+000 1.000000e+000 0.000000e+000
      outer loop
         vertex 8.500000e+000 3.000000e+000 1.300000e+001
         vertex 4.722560e+000 3.000000e+000 6.483739e+000
         vertex 5.000000e+000 3.000000e+000 7.500000e+000
      endloop
   endfacet
   facet normal 0.000000e+000 1.000000e+000 -0.000000e+000
      outer loop
         vertex 8.500000e+000 3.000000e+000 1.300000e+001
         vertex 5.000000e+000 3.000000e+000 7.500000e+000
         vertex 4.826143e+000 3.000000e+000 8.315599e+000
      endloop
   endfacet
   facet normal 0.000000e+000 1.000000e+000 -0.000000e+000
      outer loop
         vertex 8.500000e+000 3.000000e+000 1.300000e+001
         vertex 4.826143e+000 3.000000e+000 8.315599e+000
         vertex 4.158390e+000 3.000000e+000 9.130379e+000
      endloop
   endfacet
   facet normal 0.000000e+000 1.000000e+000 -0.000000e+000
      outer loop
         vertex 8.500000e+000 3.000000e+000 1.300000e+001
         vertex 4.158390e+000 3.000000e+000 9.130379e+000
         vertex 6.882876e-017 3.000000e+000 1.300000e+001
      endloop
   endfacet
   facet normal 0.000000e+000 1.000000e+000 0.000000e+000
      outer loop
         vertex 6.882876e-017 3.000000e+000 1.300000e+001
         vertex 4.158390e+000 3.000000e+000 9.130379e+000
         vertex 3.169253e+000 3.000000e+000 9.492826e+000
      endloop
   endfacet
   facet normal 0.000000e+000 1.000000e+000 0.000000e+000
      outer loop
         vertex 6.882876e-017 3.000000e+000 1.300000e+001
         vertex 3.169253e+000 3.000000e+000 9.492826e+000
         vertex 2.133158e+000 3.000000e+000 9.302383e+000
      endloop
   endfacet
   facet normal 0.000000e+000 1.000000e+000 0.000000e+000
      outer loop
         vertex 6.882876e-017 3.000000e+000 1.300000e+001
         vertex 2.133158e+000 3.000000e+000 9.302383e+000
         vertex 1.337560e+000 3.000000e+000 8.611888e+000
      endloop
   endfacet
   facet normal 0.000000e+000 1.000000e+000 0.000000e+000
      outer loop
         vertex 2.372256e+001 3.000000e+000 6.483739e+000
         vertex 2.400000e+001 3.000000e+000 7.500000e+000
         vertex 2.500000e+001 3.000000e+000 2.000000e+000
      endloop
   endfacet
   facet normal -0.000000e+000 1.000000e+000 0.000000e+000
      outer loop
         vertex 2.500000e+001 3.000000e+000 2.000000e+000
         vertex 2.400000e+001 3.000000e+000 7.500000e+000
         vertex 2.500000e+001 3.000000e+000 1.300000e+001
      endloop
   endfacet
   facet normal 0.000000e+000 1.000000e+000 -0.000000e+000
      outer loop
         vertex 2.500000e+001 3.000000e+000 1.300000e+001
         vertex 2.400000e+001 3.000000e+000 7.500000e+000
         vertex 2.382614e+001 3.000000e+000 8.315599e+000
      endloop
   endfacet
   facet normal 0.000000e+000 1.000000e+000 -0.000000e+000
      outer loop
         vertex 2.500000e+001 3.000000e+000 1.300000e+001
         vertex 2.382614e+001 3.000000e+000 8.315599e+000
         vertex 2.315839e+001 3.000000e+000 9.130379e+000
      endloop
   endfacet
   facet normal 0.000000e+000 1.000000e+000 -0.000000e+000
      outer loop
         vertex 2.500000e+001 3.000000e+000 1.300000e+001
         vertex 2.315839e+001 3.000000e+000 9.130379e+000
         vertex 1.650000e+001 3.000000e+000 1.300000e+001
      endloop
   endfacet
   facet normal 0.000000e+000 1.000000e+000 0.000000e+000
      outer loop
         vertex 1.650000e+001 3.000000e+000 1.300000e+001
         vertex 2.315839e+001 3.000000e+000 9.130379e+000
         vertex 2.216925e+001 3.000000e+000 9.492826e+000
      endloop
   endfacet
   facet normal 0.000000e+000 1.000000e+000 0.000000e+000
      outer loop
         vertex 1.650000e+001 3.000000e+000 1.300000e+001
         vertex 2.216925e+001 3.000000e+000 9.492826e+000
         vertex 2.113316e+001 3.000000e+000 9.302383e+000
      endloop
   endfacet
   facet normal 0.000000e+000 1.000000e+000 0.000000e+000
      outer loop
         vertex 1.650000e+001 3.000000e+000 1.300000e+001
         vertex 2.113316e+001 3.000000e+000 9.302383e+000
         vertex 2.033756e+001 3.000000e+000 8.611888e+000
      endloop
   endfacet
   facet normal 0.000000e+000 1.000000e+000 0.000000e+000
      outer loop
         vertex 1.650000e+001 3.000000e+000 1.300000e+001
         vertex 2.033756e+001 3.000000e+000 8.611888e+000
         vertex 1.650000e+001 3.000000e+000 2.000000e+000
      endloop
   endfacet
   facet normal 0.000000e+000 1.000000e+000 0.000000e+000
      outer loop
         vertex 1.650000e+001 3.000000e+000 2.000000e+000
         vertex 2.033756e+001 3.000000e+000 8.611888e+000
         vertex 2.000319e+001 3.000000e+000 7.612910e+000
      endloop
   endfacet
   facet normal 0.000000e+000 1.000000e+000 0.000000e+000
      outer loop
         vertex 1.650000e+001 3.000000e+000 2.000000e+000
         vertex 2.000319e+001 3.000000e+000 7.612910e+000
         vertex 2.022281e+001 3.000000e+000 6.582607e+000
      endloop
   endfacet
   facet normal 0.000000e+000 1.000000e+000 0.000000e+000
      outer loop
         vertex 1.650000e+001 3.000000e+000 2.000000e+000
         vertex 2.022281e+001 3.000000e+000 6.582607e+000
         vertex 2.093550e+001 3.000000e+000 5.806825e+000
      endloop
   endfacet
   facet normal 0.000000e+000 1.000000e+000 0.000000e+000
      outer loop
         vertex 1.650000e+001 3.000000e+000 2.000000e+000
         vertex 2.093550e+001 3.000000e+000 5.806825e+000
         vertex 2.500000e+001 3.000000e+000 2.000000e+000
      endloop
   endfacet
   facet normal 0.000000e+000 1.000000e+000 0.000000e+000
      outer loop
         vertex 2.500000e+001 3.000000e+000 2.000000e+000
         vertex 2.093550e+001 3.000000e+000 5.806825e+000
         vertex 2.194352e+001 3.000000e+000 5.500798e+000
      endloop
   endfacet
   facet normal -0.000000e+000 1.000000e+000 0.000000e+000
      outer loop
         vertex 2.500000e+001 3.000000e+000 2.000000e+000
         vertex 2.194352e+001 3.000000e+000 5.500798e+000
         vertex 2.296721e+001 3.000000e+000 5.749429e+000
      endloop
   endfacet
   facet normal -0.000000e+000 1.000000e+000 0.000000e+000
      outer loop
         vertex 2.500000e+001 3.000000e+000 2.000000e+000
         vertex 2.296721e+001 3.000000e+000 5.749429e+000
         vertex 2.372256e+001 3.000000e+000 6.483739e+000
      endloop
   endfacet
   facet normal -9.780264e-001 0.000000e+000 -2.084810e-001
      outer loop
         vertex 5.000000e+000 0.000000e+000 7.500000e+000
         vertex 4.826143e+000 0.000000e+000 8.315599e+000
         vertex 4.826143e+000 3.000000e+000 8.315599e+000
      endloop
   endfacet
   facet normal -9.780264e-001 -0.000000e+000 -2.084810e-001
      outer loop
         vertex 4.826143e+000 3.000000e+000 8.315599e+000
         vertex 5.000000e+000 3.000000e+000 7.500000e+000
         vertex 5.000000e+000 0.000000e+000 7.500000e+000
      endloop
   endfacet
   facet normal -7.734380e-001 0.000000e+000 -6.338719e-001
      outer loop
         vertex 4.826143e+000 3.000000e+000 8.315599e+000
         vertex 4.826143e+000 0.000000e+000 8.315599e+000
         vertex 4.158390e+000 3.000000e+000 9.130379e+000
      endloop
   endfacet
   facet normal -7.734380e-001 0.000000e+000 -6.338719e-001
      outer loop
         vertex 4.826143e+000 0.000000e+000 8.315599e+000
         vertex 4.158390e+000 0.000000e+000 9.130379e+000
         vertex 4.158390e+000 3.000000e+000 9.130379e+000
      endloop
   endfacet
   facet normal -3.440565e-001 0.000000e+000 -9.389489e-001
      outer loop
         vertex 4.158390e+000 3.000000e+000 9.130379e+000
         vertex 4.158390e+000 0.000000e+000 9.130379e+000
         vertex 3.169253e+000 3.000000e+000 9.492826e+000
      endloop
   endfacet
   facet normal -3.440565e-001 0.000000e+000 -9.389489e-001
      outer loop
         vertex 4.158390e+000 0.000000e+000 9.130379e+000
         vertex 3.169253e+000 0.000000e+000 9.492826e+000
         vertex 3.169253e+000 3.000000e+000 9.492826e+000
      endloop
   endfacet
   facet normal 1.807792e-001 0.000000e+000 -9.835237e-001
      outer loop
         vertex 3.169253e+000 3.000000e+000 9.492826e+000
         vertex 3.169253e+000 0.000000e+000 9.492826e+000
         vertex 2.133158e+000 3.000000e+000 9.302383e+000
      endloop
   endfacet
   facet normal 1.807792e-001 0.000000e+000 -9.835237e-001
      outer loop
         vertex 3.169253e+000 0.000000e+000 9.492826e+000
         vertex 2.133158e+000 0.000000e+000 9.302383e+000
         vertex 2.133158e+000 3.000000e+000 9.302383e+000
      endloop
   endfacet
   facet normal 6.554602e-001 0.000000e+000 -7.552297e-001
      outer loop
         vertex 2.133158e+000 3.000000e+000 9.302383e+000
         vertex 2.133158e+000 0.000000e+000 9.302383e+000
         vertex 1.337560e+000 3.000000e+000 8.611888e+000
      endloop
   endfacet
   facet normal 6.554602e-001 0.000000e+000 -7.552297e-001
      outer loop
         vertex 2.133158e+000 0.000000e+000 9.302383e+000
         vertex 1.337560e+000 0.000000e+000 8.611888e+000
         vertex 1.337560e+000 3.000000e+000 8.611888e+000
      endloop
   endfacet
   facet normal 9.482901e-001 0.000000e+000 -3.174048e-001
      outer loop
         vertex 1.337560e+000 3.000000e+000 8.611888e+000
         vertex 1.337560e+000 0.000000e+000 8.611888e+000
         vertex 1.003190e+000 3.000000e+000 7.612910e+000
      endloop
   endfacet
   facet normal 9.482901e-001 0.000000e+000 -3.174048e-001
      outer loop
         vertex 1.337560e+000 0.000000e+000 8.611888e+000
         vertex 1.003190e+000 0.000000e+000 7.612910e+000
         vertex 1.003190e+000 3.000000e+000 7.612910e+000
      endloop
   endfacet
   facet normal 9.780264e-001 -0.000000e+000 2.084809e-001
      outer loop
         vertex 1.003190e+000 3.000000e+000 7.612910e+000
         vertex 1.003190e+000 0.000000e+000 7.612910e+000
         vertex 1.222814e+000 3.000000e+000 6.582607e+000
      endloop
   endfacet
   facet normal 9.780264e-001 -0.000000e+000 2.084809e-001
      outer loop
         vertex 1.003190e+000 0.000000e+000 7.612910e+000
         vertex 1.222814e+000 0.000000e+000 6.582607e+000
         vertex 1.222814e+000 3.000000e+000 6.582607e+000
      endloop
   endfacet
   facet normal 7.364193e-001 -0.000000e+000 6.765254e-001
      outer loop
         vertex 1.222814e+000 3.000000e+000 6.582607e+000
         vertex 1.222814e+000 0.000000e+000 6.582607e+000
         vertex 1.935501e+000 3.000000e+000 5.806825e+000
      endloop
   endfacet
   facet normal 7.364193e-001 -0.000000e+000 6.765254e-001
      outer loop
         vertex 1.222814e+000 0.000000e+000 6.582607e+000
         vertex 1.935501e+000 0.000000e+000 5.806825e+000
         vertex 1.935501e+000 3.000000e+000 5.806825e+000
      endloop
   endfacet
   facet normal 2.904993e-001 -0.000000e+000 9.568752e-001
      outer loop
         vertex 1.935501e+000 3.000000e+000 5.806825e+000
         vertex 1.935501e+000 0.000000e+000 5.806825e+000
         vertex 2.943522e+000 3.000000e+000 5.500798e+000
      endloop
   endfacet
   facet normal 2.904993e-001 -0.000000e+000 9.568752e-001
      outer loop
         vertex 1.935501e+000 0.000000e+000 5.806825e+000
         vertex 2.943522e+000 0.000000e+000 5.500798e+000
         vertex 2.943522e+000 3.000000e+000 5.500798e+000
      endloop
   endfacet
   facet normal -2.360157e-001 0.000000e+000 9.717492e-001
      outer loop
         vertex 2.943522e+000 3.000000e+000 5.500798e+000
         vertex 2.943522e+000 0.000000e+000 5.500798e+000
         vertex 3.967213e+000 3.000000e+000 5.749429e+000
      endloop
   endfacet
   facet normal -2.360157e-001 0.000000e+000 9.717492e-001
      outer loop
         vertex 2.943522e+000 0.000000e+000 5.500798e+000
         vertex 3.967213e+000 0.000000e+000 5.749429e+000
         vertex 3.967213e+000 3.000000e+000 5.749429e+000
      endloop
   endfacet
   facet normal -6.970516e-001 0.000000e+000 7.170210e-001
      outer loop
         vertex 3.967213e+000 3.000000e+000 5.749429e+000
         vertex 3.967213e+000 0.000000e+000 5.749429e+000
         vertex 4.722560e+000 3.000000e+000 6.483739e+000
      endloop
   endfacet
   facet normal -6.970516e-001 0.000000e+000 7.170210e-001
      outer loop
         vertex 3.967213e+000 0.000000e+000 5.749429e+000
         vertex 4.722560e+000 0.000000e+000 6.483739e+000
         vertex 4.722560e+000 3.000000e+000 6.483739e+000
      endloop
   endfacet
   facet normal -9.646968e-001 0.000000e+000 2.633630e-001
      outer loop
         vertex 4.722560e+000 3.000000e+000 6.483739e+000
         vertex 4.722560e+000 0.000000e+000 6.483739e+000
         vertex 5.000000e+000 3.000000e+000 7.500000e+000
      endloop
   endfacet
   facet normal -9.646968e-001 0.000000e+000 2.633630e-001
      outer loop
         vertex 4.722560e+000 0.000000e+000 6.483739e+000
         vertex 5.000000e+000 0.000000e+000 7.500000e+000
         vertex 5.000000e+000 3.000000e+000 7.500000e+000
      endloop
   endfacet
   facet normal -9.646970e-001 0.000000e+000 2.633621e-001
      outer loop
         vertex 2.400000e+001 0.000000e+000 7.500000e+000
         vertex 2.400000e+001 3.000000e+000 7.500000e+000
         vertex 2.372256e+001 0.000000e+000 6.483739e+000
      endloop
   endfacet
   facet normal -9.646970e-001 0.000000e+000 2.633621e-001
      outer loop
         vertex 2.400000e+001 3.000000e+000 7.500000e+000
         vertex 2.372256e+001 3.000000e+000 6.483739e+000
         vertex 2.372256e+001 0.000000e+000 6.483739e+000
      endloop
   endfacet
   facet normal -6.970510e-001 0.000000e+000 7.170216e-001
      outer loop
         vertex 2.372256e+001 0.000000e+000 6.483739e+000
         vertex 2.372256e+001 3.000000e+000 6.483739e+000
         vertex 2.296721e+001 0.000000e+000 5.749429e+000
      endloop
   endfacet
   facet normal -6.970510e-001 0.000000e+000 7.170216e-001
      outer loop
         vertex 2.372256e+001 3.000000e+000 6.483739e+000
         vertex 2.296721e+001 3.000000e+000 5.749429e+000
         vertex 2.296721e+001 0.000000e+000 5.749429e+000
      endloop
   endfacet
   facet normal -2.360155e-001 0.000000e+000 9.717493e-001
      outer loop
         vertex 2.296721e+001 0.000000e+000 5.749429e+000
         vertex 2.296721e+001 3.000000e+000 5.749429e+000
         vertex 2.194352e+001 0.000000e+000 5.500798e+000
      endloop
   endfacet
   facet normal -2.360155e-001 0.000000e+000 9.717493e-001
      outer loop
         vertex 2.296721e+001 3.000000e+000 5.749429e+000
         vertex 2.194352e+001 3.000000e+000 5.500798e+000
         vertex 2.194352e+001 0.000000e+000 5.500798e+000
      endloop
   endfacet
   facet normal 2.904996e-001 0.000000e+000 9.568751e-001
      outer loop
         vertex 2.194352e+001 0.000000e+000 5.500798e+000
         vertex 2.194352e+001 3.000000e+000 5.500798e+000
         vertex 2.093550e+001 0.000000e+000 5.806825e+000
      endloop
   endfacet
   facet normal 2.904996e-001 0.000000e+000 9.568751e-001
      outer loop
         vertex 2.194352e+001 3.000000e+000 5.500798e+000
         vertex 2.093550e+001 3.000000e+000 5.806825e+000
         vertex 2.093550e+001 0.000000e+000 5.806825e+000
      endloop
   endfacet
   facet normal 7.364194e-001 0.000000e+000 6.765253e-001
      outer loop
         vertex 2.093550e+001 0.000000e+000 5.806825e+000
         vertex 2.093550e+001 3.000000e+000 5.806825e+000
         vertex 2.022281e+001 0.000000e+000 6.582607e+000
      endloop
   endfacet
   facet normal 7.364194e-001 0.000000e+000 6.765253e-001
      outer loop
         vertex 2.093550e+001 3.000000e+000 5.806825e+000
         vertex 2.022281e+001 3.000000e+000 6.582607e+000
         vertex 2.022281e+001 0.000000e+000 6.582607e+000
      endloop
   endfacet
   facet normal 9.780263e-001 0.000000e+000 2.084818e-001
      outer loop
         vertex 2.022281e+001 0.000000e+000 6.582607e+000
         vertex 2.022281e+001 3.000000e+000 6.582607e+000
         vertex 2.000319e+001 0.000000e+000 7.612910e+000
      endloop
   endfacet
   facet normal 9.780263e-001 0.000000e+000 2.084818e-001
      outer loop
         vertex 2.022281e+001 3.000000e+000 6.582607e+000
         vertex 2.000319e+001 3.000000e+000 7.612910e+000
         vertex 2.000319e+001 0.000000e+000 7.612910e+000
      endloop
   endfacet
   facet normal 9.482899e-001 0.000000e+000 -3.174057e-001
      outer loop
         vertex 2.000319e+001 0.000000e+000 7.612910e+000
         vertex 2.000319e+001 3.000000e+000 7.612910e+000
         vertex 2.033756e+001 0.000000e+000 8.611888e+000
      endloop
   endfacet
   facet normal 9.482899e-001 0.000000e+000 -3.174057e-001
      outer loop
         vertex 2.000319e+001 3.000000e+000 7.612910e+000
         vertex 2.033756e+001 3.000000e+000 8.611888e+000
         vertex 2.033756e+001 0.000000e+000 8.611888e+000
      endloop
   endfacet
   facet normal 6.554606e-001 0.000000e+000 -7.552294e-001
      outer loop
         vertex 2.033756e+001 0.000000e+000 8.611888e+000
         vertex 2.033756e+001 3.000000e+000 8.611888e+000
         vertex 2.113316e+001 0.000000e+000 9.302383e+000
      endloop
   endfacet
   facet normal 6.554606e-001 0.000000e+000 -7.552294e-001
      outer loop
         vertex 2.033756e+001 3.000000e+000 8.611888e+000
         vertex 2.113316e+001 3.000000e+000 9.302383e+000
         vertex 2.113316e+001 0.000000e+000 9.302383e+000
      endloop
   endfacet
   facet normal 1.807791e-001 0.000000e+000 -9.835237e-001
      outer loop
         vertex 2.113316e+001 0.000000e+000 9.302383e+000
         vertex 2.113316e+001 3.000000e+000 9.302383e+000
         vertex 2.216925e+001 0.000000e+000 9.492826e+000
      endloop
   endfacet
   facet normal 1.807791e-001 0.000000e+000 -9.835237e-001
      outer loop
         vertex 2.113316e+001 3.000000e+000 9.302383e+000
         vertex 2.216925e+001 3.000000e+000 9.492826e+000
         vertex 2.216925e+001 0.000000e+000 9.492826e+000
      endloop
   endfacet
   facet normal -3.440563e-001 -0.000000e+000 -9.389490e-001
      outer loop
         vertex 2.216925e+001 0.000000e+000 9.492826e+000
         vertex 2.216925e+001 3.000000e+000 9.492826e+000
         vertex 2.315839e+001 0.000000e+000 9.130379e+000
      endloop
   endfacet
   facet normal -3.440563e-001 -0.000000e+000 -9.389490e-001
      outer loop
         vertex 2.216925e+001 3.000000e+000 9.492826e+000
         vertex 2.315839e+001 3.000000e+000 9.130379e+000
         vertex 2.315839e+001 0.000000e+000 9.130379e+000
      endloop
   endfacet
   facet normal -7.734380e-001 -0.000000e+000 -6.338719e-001
      outer loop
         vertex 2.315839e+001 0.000000e+000 9.130379e+000
         vertex 2.315839e+001 3.000000e+000 9.130379e+000
         vertex 2.382614e+001 0.000000e+000 8.315599e+000
      endloop
   endfacet
   facet normal -7.734380e-001 -0.000000e+000 -6.338719e-001
      outer loop
         vertex 2.315839e+001 3.000000e+000 9.130379e+000
         vertex 2.382614e+001 3.000000e+000 8.315599e+000
         vertex 2.382614e+001 0.000000e+000 8.315599e+000
      endloop
   endfacet
   facet normal -9.780265e-001 -0.000000e+000 -2.084804e-001
      outer loop
         vertex 2.382614e+001 0.000000e+000 8.315599e+000
         vertex 2.382614e+001 3.000000e+000 8.315599e+000
         vertex 2.400000e+001 0.000000e+000 7.500000e+000
      endloop
   endfacet
   facet normal -9.780265e-001 -0.000000e+000 -2.084804e-001
      outer loop
         vertex 2.382614e+001 3.000000e+000 8.315599e+000
         vertex 2.400000e+001 3.000000e+000 7.500000e+000
         vertex 2.400000e+001 0.000000e+000 7.500000e+000
      endloop
   endfacet
   facet normal 1.000000e+000 0.000000e+000 0.000000e+000
      outer loop
         vertex 1.650000e+001 3.000000e+000 2.000000e+000
         vertex 1.650000e+001 1.000000e+001 2.000000e+000
         vertex 1.650000e+001 3.000000e+000 1.300000e+001
      endloop
   endfacet
   facet normal -1.000000e+000 0.000000e+000 0.000000e+000
      outer loop
         vertex 8.500000e+000 3.000000e+000 2.000000e+000
         vertex 8.500000e+000 3.000000e+000 1.300000e+001
         vertex 8.500000e+000 1.000000e+001 2.000000e+000
      endloop
   endfacet
   facet normal 0.000000e+000 8.436615e-001 5.368755e-001
      outer loop
         vertex 8.500000e+000 1.000000e+001 2.000000e+000
         vertex 8.500000e+000 3.000000e+000 1.300000e+001
         vertex 1.650000e+001 1.000000e+001 2.000000e+000
      endloop
   endfacet
   facet normal -0.000000e+000 8.436615e-001 5.368755e-001
      outer loop
         vertex 1.650000e+001 1.000000e+001 2.000000e+000
         vertex 8.500000e+000 3.000000e+000 1.300000e+001
         vertex 1.650000e+001 3.000000e+000 1.300000e+001
      endloop
   endfacet
   facet normal -1.000000e+000 0.000000e+000 0.000000e+000
      outer loop
         vertex 1.900000e+001 0.000000e+000 0.000000e+000
         vertex 1.900000e+001 0.000000e+000 1.300000e+001
         vertex 1.900000e+001 1.000000e+000 0.000000e+000
      endloop
   endfacet
   facet normal -1.000000e+000 0.000000e+000 0.000000e+000
      outer loop
         vertex 1.900000e+001 1.000000e+000 0.000000e+000
         vertex 1.900000e+001 0.000000e+000 1.300000e+001
         vertex 1.900000e+001 1.000000e+000 1.300000e+001
      endloop
   endfacet
   facet normal 0.000000e+000 -1.000000e+000 -0.000000e+000
      outer loop
         vertex 1.900000e+001 1.000000e+000 0.000000e+000
         vertex 1.900000e+001 1.000000e+000 1.300000e+001
         vertex 6.000000e+000 1.000000e+000 0.000000e+000
      endloop
   endfacet
   facet normal -0.000000e+000 -1.000000e+000 0.000000e+000
      outer loop
         vertex 6.000000e+000 1.000000e+000 0.000000e+000
         vertex 1.900000e+001 1.000000e+000 1.300000e+001
         vertex 6.000000e+000 1.000000e+000 1.300000e+001
      endloop
   endfacet
   facet normal 1.000000e+000 0.000000e+000 0.000000e+000
      outer loop
         vertex 6.000000e+000 1.000000e+000 0.000000e+000
         vertex 6.000000e+000 1.000000e+000 1.300000e+001
         vertex 6.000000e+000 0.000000e+000 0.000000e+000
      endloop
   endfacet
   facet normal 1.000000e+000 0.000000e+000 0.000000e+000
      outer loop
         vertex 6.000000e+000 0.000000e+000 0.000000e+000
         vertex 6.000000e+000 1.000000e+000 1.300000e+001
         vertex 6.000000e+000 0.000000e+000 1.300000e+001
      endloop
   endfacet
endsolid
