solid 
   facet normal -1.000000e+000 3.214785e-017 0.000000e+000
      outer loop
         vertex 3.857742e-016 1.200000e+001 6.000000e+000
         vertex 3.857742e-016 1.200000e+001 0.000000e+000
         vertex 0.000000e+000 0.000000e+000 6.000000e+000
      endloop
   endfacet
   facet normal -1.000000e+000 3.214785e-017 0.000000e+000
      outer loop
         vertex 0.000000e+000 0.000000e+000 6.000000e+000
         vertex 3.857742e-016 1.200000e+001 0.000000e+000
         vertex 0.000000e+000 0.000000e+000 0.000000e+000
      endloop
   endfacet
   facet normal 0.000000e+000 0.000000e+000 1.000000e+000
      outer loop
         vertex 1.000000e+000 3.995384e-033 6.000000e+000
         vertex 7.526600e+000 3.729486e+000 6.000000e+000
         vertex 0.000000e+000 0.000000e+000 6.000000e+000
      endloop
   endfacet
   facet normal 0.000000e+000 -0.000000e+000 1.000000e+000
      outer loop
         vertex 0.000000e+000 0.000000e+000 6.000000e+000
         vertex 7.526600e+000 3.729486e+000 6.000000e+000
         vertex 7.574925e+000 3.758945e+000 6.000000e+000
      endloop
   endfacet
   facet normal -0.000000e+000 0.000000e+000 1.000000e+000
      outer loop
         vertex 8.015230e+000 4.423864e+000 6.000000e+000
         vertex 4.987516e+000 3.958207e+000 6.000000e+000
         vertex 7.574925e+000 3.758945e+000 6.000000e+000
      endloop
   endfacet
   facet normal 0.000000e+000 0.000000e+000 1.000000e+000
      outer loop
         vertex 7.574925e+000 3.758945e+000 6.000000e+000
         vertex 4.987516e+000 3.958207e+000 6.000000e+000
         vertex 3.870940e+000 3.521349e+000 6.000000e+000
      endloop
   endfacet
   facet normal -0.000000e+000 0.000000e+000 1.000000e+000
      outer loop
         vertex 7.574925e+000 3.758945e+000 6.000000e+000
         vertex 3.870940e+000 3.521349e+000 6.000000e+000
         vertex 0.000000e+000 0.000000e+000 6.000000e+000
      endloop
   endfacet
   facet normal 0.000000e+000 0.000000e+000 1.000000e+000
      outer loop
         vertex 0.000000e+000 0.000000e+000 6.000000e+000
         vertex 3.870940e+000 3.521349e+000 6.000000e+000
         vertex 2.679376e+000 3.654614e+000 6.000000e+000
      endloop
   endfacet
   facet normal 0.000000e+000 0.000000e+000 1.000000e+000
      outer loop
         vertex 0.000000e+000 0.000000e+000 6.000000e+000
         vertex 2.679376e+000 3.654614e+000 6.000000e+000
         vertex 1.686899e+000 4.327351e+000 6.000000e+000
      endloop
   endfacet
   facet normal 0.000000e+000 0.000000e+000 1.000000e+000
      outer loop
         vertex 0.000000e+000 0.000000e+000 6.000000e+000
         vertex 1.686899e+000 4.327351e+000 6.000000e+000
         vertex 1.121792e+000 5.384819e+000 6.000000e+000
      endloop
   endfacet
   facet normal 0.000000e+000 0.000000e+000 1.000000e+000
      outer loop
         vertex 0.000000e+000 0.000000e+000 6.000000e+000
         vertex 1.121792e+000 5.384819e+000 6.000000e+000
         vertex 3.857742e-016 1.200000e+001 6.000000e+000
      endloop
   endfacet
   facet normal 0.000000e+000 0.000000e+000 1.000000e+000
      outer loop
         vertex 3.857742e-016 1.200000e+001 6.000000e+000
         vertex 1.121792e+000 5.384819e+000 6.000000e+000
         vertex 1.114037e+000 6.583787e+000 6.000000e+000
      endloop
   endfacet
   facet normal 0.000000e+000 0.000000e+000 1.000000e+000
      outer loop
         vertex 3.857742e-016 1.200000e+001 6.000000e+000
         vertex 1.114037e+000 6.583787e+000 6.000000e+000
         vertex 1.000000e+000 1.200000e+001 6.000000e+000
      endloop
   endfacet
   facet normal 0.000000e+000 -0.000000e+000 1.000000e+000
      outer loop
         vertex 1.000000e+000 1.200000e+001 6.000000e+000
         vertex 1.114037e+000 6.583787e+000 6.000000e+000
         vertex 1.665419e+000 7.648477e+000 6.000000e+000
      endloop
   endfacet
   facet normal 0.000000e+000 -0.000000e+000 1.000000e+000
      outer loop
         vertex 1.000000e+000 1.200000e+001 6.000000e+000
         vertex 1.665419e+000 7.648477e+000 6.000000e+000
         vertex 2.649111e+000 8.333994e+000 6.000000e+000
      endloop
   endfacet
   facet normal 0.000000e+000 -0.000000e+000 1.000000e+000
      outer loop
         vertex 1.000000e+000 1.200000e+001 6.000000e+000
         vertex 2.649111e+000 8.333994e+000 6.000000e+000
         vertex 3.838852e+000 8.482660e+000 6.000000e+000
      endloop
   endfacet
   facet normal -0.000000e+000 -0.000000e+000 1.000000e+000
      outer loop
         vertex 1.000000e+000 1.200000e+001 6.000000e+000
         vertex 3.838852e+000 8.482660e+000 6.000000e+000
         vertex 7.526600e+000 8.270514e+000 6.000000e+000
      endloop
   endfacet
   facet normal 0.000000e+000 0.000000e+000 1.000000e+000
      outer loop
         vertex 7.526600e+000 8.270514e+000 6.000000e+000
         vertex 3.838852e+000 8.482660e+000 6.000000e+000
         vertex 4.960985e+000 8.060282e+000 6.000000e+000
      endloop
   endfacet
   facet normal -0.000000e+000 0.000000e+000 1.000000e+000
      outer loop
         vertex 7.526600e+000 8.270514e+000 6.000000e+000
         vertex 4.960985e+000 8.060282e+000 6.000000e+000
         vertex 8.003817e+000 7.631569e+000 6.000000e+000
      endloop
   endfacet
   facet normal 0.000000e+000 0.000000e+000 1.000000e+000
      outer loop
         vertex 8.003817e+000 7.631569e+000 6.000000e+000
         vertex 4.960985e+000 8.060282e+000 6.000000e+000
         vertex 5.757403e+000 7.164010e+000 6.000000e+000
      endloop
   endfacet
   facet normal 0.000000e+000 0.000000e+000 1.000000e+000
      outer loop
         vertex 8.003817e+000 7.631569e+000 6.000000e+000
         vertex 5.757403e+000 7.164010e+000 6.000000e+000
         vertex 8.015230e+000 7.576136e+000 6.000000e+000
      endloop
   endfacet
   facet normal -0.000000e+000 0.000000e+000 1.000000e+000
      outer loop
         vertex 8.015230e+000 7.576136e+000 6.000000e+000
         vertex 5.757403e+000 7.164010e+000 6.000000e+000
         vertex 6.044920e+000 6.000000e+000 6.000000e+000
      endloop
   endfacet
   facet normal 0.000000e+000 0.000000e+000 1.000000e+000
      outer loop
         vertex 8.015230e+000 7.576136e+000 6.000000e+000
         vertex 6.044920e+000 6.000000e+000 6.000000e+000
         vertex 8.383585e+000 6.962578e+000 6.000000e+000
      endloop
   endfacet
   facet normal -0.000000e+000 0.000000e+000 1.000000e+000
      outer loop
         vertex 8.383585e+000 6.962578e+000 6.000000e+000
         vertex 6.044920e+000 6.000000e+000 6.000000e+000
         vertex 5.772274e+000 4.864706e+000 6.000000e+000
      endloop
   endfacet
   facet normal 0.000000e+000 0.000000e+000 1.000000e+000
      outer loop
         vertex 8.383585e+000 6.962578e+000 6.000000e+000
         vertex 5.772274e+000 4.864706e+000 6.000000e+000
         vertex 9.000000e+000 6.750000e+000 6.000000e+000
      endloop
   endfacet
   facet normal -0.000000e+000 0.000000e+000 1.000000e+000
      outer loop
         vertex 9.000000e+000 6.750000e+000 6.000000e+000
         vertex 5.772274e+000 4.864706e+000 6.000000e+000
         vertex 4.987516e+000 3.958207e+000 6.000000e+000
      endloop
   endfacet
   facet normal 0.000000e+000 0.000000e+000 1.000000e+000
      outer loop
         vertex 9.000000e+000 6.750000e+000 6.000000e+000
         vertex 4.987516e+000 3.958207e+000 6.000000e+000
         vertex 8.015230e+000 4.423864e+000 6.000000e+000
      endloop
   endfacet
   facet normal 0.000000e+000 0.000000e+000 1.000000e+000
      outer loop
         vertex 9.000000e+000 6.750000e+000 6.000000e+000
         vertex 8.015230e+000 4.423864e+000 6.000000e+000
         vertex 8.331744e+000 4.993931e+000 6.000000e+000
      endloop
   endfacet
   facet normal 0.000000e+000 0.000000e+000 1.000000e+000
      outer loop
         vertex 9.000000e+000 6.750000e+000 6.000000e+000
         vertex 8.331744e+000 4.993931e+000 6.000000e+000
         vertex 9.000000e+000 5.250000e+000 6.000000e+000
      endloop
   endfacet
   facet normal 0.000000e+000 0.000000e+000 1.000000e+000
      outer loop
         vertex 9.000000e+000 6.750000e+000 6.000000e+000
         vertex 9.000000e+000 5.250000e+000 6.000000e+000
         vertex 1.800000e+001 6.750000e+000 6.000000e+000
      endloop
   endfacet
   facet normal 0.000000e+000 0.000000e+000 1.000000e+000
      outer loop
         vertex 1.800000e+001 6.750000e+000 6.000000e+000
         vertex 9.000000e+000 5.250000e+000 6.000000e+000
         vertex 1.800000e+001 5.250000e+000 6.000000e+000
      endloop
   endfacet
   facet normal 0.000000e+000 1.000000e+000 0.000000e+000
      outer loop
         vertex 3.857742e-016 1.200000e+001 6.000000e+000
         vertex 1.000000e+000 1.200000e+001 6.000000e+000
         vertex 3.857742e-016 1.200000e+001 0.000000e+000
      endloop
   endfacet
   facet normal 0.000000e+000 1.000000e+000 0.000000e+000
      outer loop
         vertex 3.857742e-016 1.200000e+001 0.000000e+000
         vertex 1.000000e+000 1.200000e+001 6.000000e+000
         vertex 1.000000e+000 1.200000e+001 -3.197442e-016
      endloop
   endfacet
   facet normal 1.000000e+000 0.000000e+000 0.000000e+000
      outer loop
         vertex 1.800000e+001 5.250000e+000 6.000000e+000
         vertex 1.800000e+001 5.250000e+000 0.000000e+000
         vertex 1.800000e+001 6.750000e+000 6.000000e+000
      endloop
   endfacet
   facet normal 1.000000e+000 0.000000e+000 0.000000e+000
      outer loop
         vertex 1.800000e+001 6.750000e+000 6.000000e+000
         vertex 1.800000e+001 5.250000e+000 0.000000e+000
         vertex 1.800000e+001 6.750000e+000 0.000000e+000
      endloop
   endfacet
   facet normal 9.124038e-016 -1.878601e-016 -1.000000e+000
      outer loop
         vertex 8.003817e+000 4.368431e+000 0.000000e+000
         vertex 7.526600e+000 3.729486e+000 -3.153821e-016
         vertex 8.015230e+000 4.423864e+000 0.000000e+000
      endloop
   endfacet
   facet normal 4.395351e-015 -2.638790e-015 -1.000000e+000
      outer loop
         vertex 8.015230e+000 4.423864e+000 0.000000e+000
         vertex 7.526600e+000 3.729486e+000 -3.153821e-016
         vertex 8.383585e+000 5.037422e+000 0.000000e+000
      endloop
   endfacet
   facet normal -2.249862e-016 3.885449e-016 -1.000000e+000
      outer loop
         vertex 8.383585e+000 5.037422e+000 0.000000e+000
         vertex 7.526600e+000 3.729486e+000 -3.153821e-016
         vertex 1.000000e+000 3.139231e-033 -2.960595e-016
      endloop
   endfacet
   facet normal -2.960595e-016 4.927203e-016 -1.000000e+000
      outer loop
         vertex 8.383585e+000 5.037422e+000 0.000000e+000
         vertex 1.000000e+000 3.139231e-033 -2.960595e-016
         vertex 0.000000e+000 0.000000e+000 0.000000e+000
      endloop
   endfacet
   facet normal 4.464322e-016 -7.429797e-016 -1.000000e+000
      outer loop
         vertex 8.383585e+000 5.037422e+000 0.000000e+000
         vertex 0.000000e+000 0.000000e+000 0.000000e+000
         vertex 3.870940e+000 3.521349e+000 -8.881784e-016
      endloop
   endfacet
   facet normal 1.215736e-014 -3.560096e-014 -1.000000e+000
      outer loop
         vertex 8.383585e+000 5.037422e+000 0.000000e+000
         vertex 3.870940e+000 3.521349e+000 -8.881784e-016
         vertex 9.000000e+000 5.250000e+000 -7.401487e-017
      endloop
   endfacet
   facet normal 1.145480e-015 -2.927757e-015 -1.000000e+000
      outer loop
         vertex 9.000000e+000 5.250000e+000 -7.401487e-017
         vertex 3.870940e+000 3.521349e+000 -8.881784e-016
         vertex 4.987516e+000 3.958207e+000 -8.881784e-016
      endloop
   endfacet
   facet normal 2.813111e-016 -2.435319e-016 -1.000000e+000
      outer loop
         vertex 9.000000e+000 5.250000e+000 -7.401487e-017
         vertex 4.987516e+000 3.958207e+000 -8.881784e-016
         vertex 5.772274e+000 4.864706e+000 -8.881784e-016
      endloop
   endfacet
   facet normal 3.558286e-016 -8.677867e-016 -1.000000e+000
      outer loop
         vertex 9.000000e+000 5.250000e+000 -7.401487e-017
         vertex 5.772274e+000 4.864706e+000 -8.881784e-016
         vertex 6.044920e+000 6.000000e+000 -1.776357e-015
      endloop
   endfacet
   facet normal 8.223875e-018 -2.237386e-015 -1.000000e+000
      outer loop
         vertex 9.000000e+000 5.250000e+000 -7.401487e-017
         vertex 6.044920e+000 6.000000e+000 -1.776357e-015
         vertex 1.800000e+001 5.250000e+000 0.000000e+000
      endloop
   endfacet
   facet normal 1.995469e-016 8.123225e-016 -1.000000e+000
      outer loop
         vertex 1.800000e+001 5.250000e+000 0.000000e+000
         vertex 6.044920e+000 6.000000e+000 -1.776357e-015
         vertex 5.757403e+000 7.164010e+000 -8.881784e-016
      endloop
   endfacet
   facet normal 1.046403e-015 6.229073e-015 -1.000000e+000
      outer loop
         vertex 1.800000e+001 5.250000e+000 0.000000e+000
         vertex 5.757403e+000 7.164010e+000 -8.881784e-016
         vertex 9.000000e+000 6.750000e+000 -7.401487e-017
      endloop
   endfacet
   facet normal 8.223875e-018 0.000000e+000 -1.000000e+000
      outer loop
         vertex 1.800000e+001 5.250000e+000 0.000000e+000
         vertex 9.000000e+000 6.750000e+000 -7.401487e-017
         vertex 1.800000e+001 6.750000e+000 0.000000e+000
      endloop
   endfacet
   facet normal 2.832157e-016 2.516627e-016 -1.000000e+000
      outer loop
         vertex 5.757403e+000 7.164010e+000 -8.881784e-016
         vertex 4.960985e+000 8.060282e+000 -8.881784e-016
         vertex 9.000000e+000 6.750000e+000 -7.401487e-017
      endloop
   endfacet
   facet normal 1.925238e-015 5.313286e-015 -1.000000e+000
      outer loop
         vertex 9.000000e+000 6.750000e+000 -7.401487e-017
         vertex 4.960985e+000 8.060282e+000 -8.881784e-016
         vertex 8.331744e+000 7.006069e+000 0.000000e+000
      endloop
   endfacet
   facet normal 1.558118e-015 4.139449e-015 -1.000000e+000
      outer loop
         vertex 8.331744e+000 7.006069e+000 0.000000e+000
         vertex 4.960985e+000 8.060282e+000 -8.881784e-016
         vertex 3.838852e+000 8.482660e+000 -8.881784e-016
      endloop
   endfacet
   facet normal 2.418092e-016 1.342579e-016 -1.000000e+000
      outer loop
         vertex 8.331744e+000 7.006069e+000 0.000000e+000
         vertex 3.838852e+000 8.482660e+000 -8.881784e-016
         vertex 8.015230e+000 7.576136e+000 0.000000e+000
      endloop
   endfacet
   facet normal -2.512079e-017 -2.246120e-016 -1.000000e+000
      outer loop
         vertex 3.870940e+000 3.521349e+000 -8.881784e-016
         vertex 0.000000e+000 0.000000e+000 0.000000e+000
         vertex 2.679376e+000 3.654614e+000 -8.881784e-016
      endloop
   endfacet
   facet normal -1.100460e-016 -1.623492e-016 -1.000000e+000
      outer loop
         vertex 2.679376e+000 3.654614e+000 -8.881784e-016
         vertex 0.000000e+000 0.000000e+000 0.000000e+000
         vertex 1.686899e+000 4.327351e+000 -8.881784e-016
      endloop
   endfacet
   facet normal -2.220768e-016 -1.186771e-016 -1.000000e+000
      outer loop
         vertex 1.686899e+000 4.327351e+000 -8.881784e-016
         vertex 0.000000e+000 0.000000e+000 0.000000e+000
         vertex 1.121792e+000 5.384819e+000 -8.881784e-016
      endloop
   endfacet
   facet normal -7.679093e-016 -4.966604e-018 -1.000000e+000
      outer loop
         vertex 1.121792e+000 5.384819e+000 -8.881784e-016
         vertex 0.000000e+000 0.000000e+000 0.000000e+000
         vertex 1.114037e+000 6.583787e+000 -8.881784e-016
      endloop
   endfacet
   facet normal -7.972611e-016 2.563023e-032 -1.000000e+000
      outer loop
         vertex 1.114037e+000 6.583787e+000 -8.881784e-016
         vertex 0.000000e+000 0.000000e+000 0.000000e+000
         vertex 3.857742e-016 1.200000e+001 0.000000e+000
      endloop
   endfacet
   facet normal -2.266347e-016 1.173696e-016 -1.000000e+000
      outer loop
         vertex 1.114037e+000 6.583787e+000 -8.881784e-016
         vertex 3.857742e-016 1.200000e+001 0.000000e+000
         vertex 1.665419e+000 7.648477e+000 -8.881784e-016
      endloop
   endfacet
   facet normal -3.197442e-016 8.173468e-017 -1.000000e+000
      outer loop
         vertex 1.665419e+000 7.648477e+000 -8.881784e-016
         vertex 3.857742e-016 1.200000e+001 0.000000e+000
         vertex 1.000000e+000 1.200000e+001 -3.197442e-016
      endloop
   endfacet
   facet normal -8.226615e-017 1.180489e-016 -1.000000e+000
      outer loop
         vertex 1.665419e+000 7.648477e+000 -8.881784e-016
         vertex 1.000000e+000 1.200000e+001 -3.197442e-016
         vertex 2.649111e+000 8.333994e+000 -8.881784e-016
      endloop
   endfacet
   facet normal -1.834412e-017 1.468035e-016 -1.000000e+000
      outer loop
         vertex 2.649111e+000 8.333994e+000 -8.881784e-016
         vertex 1.000000e+000 1.200000e+001 -3.197442e-016
         vertex 3.838852e+000 8.482660e+000 -8.881784e-016
      endloop
   endfacet
   facet normal 3.003672e-016 4.040361e-016 -1.000000e+000
      outer loop
         vertex 3.838852e+000 8.482660e+000 -8.881784e-016
         vertex 1.000000e+000 1.200000e+001 -3.197442e-016
         vertex 8.015230e+000 7.576136e+000 0.000000e+000
      endloop
   endfacet
   facet normal -4.040419e-016 -7.129946e-016 -1.000000e+000
      outer loop
         vertex 8.015230e+000 7.576136e+000 0.000000e+000
         vertex 1.000000e+000 1.200000e+001 -3.197442e-016
         vertex 7.526600e+000 8.270514e+000 -2.976612e-016
      endloop
   endfacet
   facet normal 8.611373e-016 1.773045e-016 -1.000000e+000
      outer loop
         vertex 8.015230e+000 7.576136e+000 0.000000e+000
         vertex 7.526600e+000 8.270514e+000 -2.976612e-016
         vertex 8.003817e+000 7.631569e+000 0.000000e+000
      endloop
   endfacet
   facet normal 0.000000e+000 -1.000000e+000 0.000000e+000
      outer loop
         vertex 1.800000e+001 5.250000e+000 6.000000e+000
         vertex 9.000000e+000 5.250000e+000 6.000000e+000
         vertex 1.800000e+001 5.250000e+000 0.000000e+000
      endloop
   endfacet
   facet normal 0.000000e+000 -1.000000e+000 0.000000e+000
      outer loop
         vertex 1.800000e+001 5.250000e+000 0.000000e+000
         vertex 9.000000e+000 5.250000e+000 6.000000e+000
         vertex 9.000000e+000 5.250000e+000 -7.401487e-017
      endloop
   endfacet
   facet normal 3.139231e-033 -1.000000e+000 0.000000e+000
      outer loop
         vertex 0.000000e+000 0.000000e+000 0.000000e+000
         vertex 1.000000e+000 3.139231e-033 -2.960595e-016
         vertex 0.000000e+000 0.000000e+000 6.000000e+000
      endloop
   endfacet
   facet normal 3.995384e-033 -1.000000e+000 1.426923e-034
      outer loop
         vertex 0.000000e+000 0.000000e+000 6.000000e+000
         vertex 1.000000e+000 3.139231e-033 -2.960595e-016
         vertex 1.000000e+000 3.995384e-033 6.000000e+000
      endloop
   endfacet
   facet normal 0.000000e+000 1.000000e+000 0.000000e+000
      outer loop
         vertex 1.800000e+001 6.750000e+000 0.000000e+000
         vertex 9.000000e+000 6.750000e+000 -7.401487e-017
         vertex 1.800000e+001 6.750000e+000 6.000000e+000
      endloop
   endfacet
   facet normal 0.000000e+000 1.000000e+000 0.000000e+000
      outer loop
         vertex 1.800000e+001 6.750000e+000 6.000000e+000
         vertex 9.000000e+000 6.750000e+000 -7.401487e-017
         vertex 9.000000e+000 6.750000e+000 6.000000e+000
      endloop
   endfacet
   facet normal 4.961389e-001 8.682431e-001 0.000000e+000
      outer loop
         vertex 1.000000e+000 1.200000e+001 6.000000e+000
         vertex 7.526600e+000 8.270514e+000 6.000000e+000
         vertex 1.000000e+000 1.200000e+001 -3.197442e-016
      endloop
   endfacet
   facet normal 4.961389e-001 8.682431e-001 0.000000e+000
      outer loop
         vertex 1.000000e+000 1.200000e+001 -3.197442e-016
         vertex 7.526600e+000 8.270514e+000 6.000000e+000
         vertex 7.526600e+000 8.270514e+000 -2.976612e-016
      endloop
   endfacet
   facet normal 4.961389e-001 -8.682431e-001 0.000000e+000
      outer loop
         vertex 1.000000e+000 3.139231e-033 -2.960595e-016
         vertex 7.526600e+000 3.729486e+000 -3.153821e-016
         vertex 1.000000e+000 3.995384e-033 6.000000e+000
      endloop
   endfacet
   facet normal 4.961389e-001 -8.682431e-001 0.000000e+000
      outer loop
         vertex 1.000000e+000 3.995384e-033 6.000000e+000
         vertex 7.526600e+000 3.729486e+000 -3.153821e-016
         vertex 7.526600e+000 3.729486e+000 6.000000e+000
      endloop
   endfacet
   facet normal 8.573512e-001 -5.147187e-001 3.676738e-003
      outer loop
         vertex 8.015230e+000 4.423864e+000 0.000000e+000
         vertex 8.383585e+000 5.037422e+000 0.000000e+000
         vertex 8.331744e+000 4.993931e+000 6.000000e+000
      endloop
   endfacet
   facet normal 8.742808e-001 -4.854204e-001 0.000000e+000
      outer loop
         vertex 8.331744e+000 4.993931e+000 6.000000e+000
         vertex 8.015230e+000 4.423864e+000 6.000000e+000
         vertex 8.015230e+000 4.423864e+000 0.000000e+000
      endloop
   endfacet
   facet normal 3.578166e-001 -9.337846e-001 -3.676864e-003
      outer loop
         vertex 8.331744e+000 4.993931e+000 6.000000e+000
         vertex 8.383585e+000 5.037422e+000 0.000000e+000
         vertex 9.000000e+000 5.250000e+000 6.000000e+000
      endloop
   endfacet
   facet normal 3.260200e-001 -9.453629e-001 0.000000e+000
      outer loop
         vertex 8.383585e+000 5.037422e+000 0.000000e+000
         vertex 9.000000e+000 5.250000e+000 -7.401487e-017
         vertex 9.000000e+000 5.250000e+000 6.000000e+000
      endloop
   endfacet
   facet normal 3.578166e-001 9.337846e-001 3.676864e-003
      outer loop
         vertex 9.000000e+000 6.750000e+000 -7.401487e-017
         vertex 8.331744e+000 7.006069e+000 0.000000e+000
         vertex 8.383585e+000 6.962578e+000 6.000000e+000
      endloop
   endfacet
   facet normal 3.260200e-001 9.453629e-001 0.000000e+000
      outer loop
         vertex 8.383585e+000 6.962578e+000 6.000000e+000
         vertex 9.000000e+000 6.750000e+000 6.000000e+000
         vertex 9.000000e+000 6.750000e+000 -7.401487e-017
      endloop
   endfacet
   facet normal 8.573512e-001 5.147187e-001 -3.676738e-003
      outer loop
         vertex 8.383585e+000 6.962578e+000 6.000000e+000
         vertex 8.331744e+000 7.006069e+000 0.000000e+000
         vertex 8.015230e+000 7.576136e+000 6.000000e+000
      endloop
   endfacet
   facet normal 8.742808e-001 4.854204e-001 -0.000000e+000
      outer loop
         vertex 8.331744e+000 7.006069e+000 0.000000e+000
         vertex 8.015230e+000 7.576136e+000 0.000000e+000
         vertex 8.015230e+000 7.576136e+000 6.000000e+000
      endloop
   endfacet
   facet normal 9.794544e-001 2.016655e-001 -0.000000e+000
      outer loop
         vertex 8.015230e+000 7.576136e+000 0.000000e+000
         vertex 8.003817e+000 7.631569e+000 0.000000e+000
         vertex 8.003817e+000 7.631569e+000 6.000000e+000
      endloop
   endfacet
   facet normal 9.794544e-001 2.016655e-001 0.000000e+000
      outer loop
         vertex 8.003817e+000 7.631569e+000 6.000000e+000
         vertex 8.015230e+000 7.576136e+000 6.000000e+000
         vertex 8.015230e+000 7.576136e+000 0.000000e+000
      endloop
   endfacet
   facet normal 8.011974e-001 5.984001e-001 -0.000000e+000
      outer loop
         vertex 8.003817e+000 7.631569e+000 6.000000e+000
         vertex 8.003817e+000 7.631569e+000 0.000000e+000
         vertex 7.526600e+000 8.270514e+000 6.000000e+000
      endloop
   endfacet
   facet normal 8.011974e-001 5.984001e-001 -0.000000e+000
      outer loop
         vertex 8.003817e+000 7.631569e+000 0.000000e+000
         vertex 7.526600e+000 8.270514e+000 -2.976612e-016
         vertex 7.526600e+000 8.270514e+000 6.000000e+000
      endloop
   endfacet
   facet normal 5.198766e-001 -8.528079e-001 -4.946727e-002
      outer loop
         vertex 8.003817e+000 4.368431e+000 0.000000e+000
         vertex 7.574925e+000 3.758945e+000 6.000000e+000
         vertex 7.526600e+000 3.729486e+000 6.000000e+000
      endloop
   endfacet
   facet normal 8.011974e-001 -5.984001e-001 0.000000e+000
      outer loop
         vertex 8.003817e+000 4.368431e+000 0.000000e+000
         vertex 7.526600e+000 3.729486e+000 6.000000e+000
         vertex 7.526600e+000 3.729486e+000 -3.153821e-016
      endloop
   endfacet
   facet normal 9.782553e-001 -2.014186e-001 4.946729e-002
      outer loop
         vertex 7.574925e+000 3.758945e+000 6.000000e+000
         vertex 8.003817e+000 4.368431e+000 0.000000e+000
         vertex 8.015230e+000 4.423864e+000 0.000000e+000
      endloop
   endfacet
   facet normal 8.337678e-001 -5.521153e-001 0.000000e+000
      outer loop
         vertex 7.574925e+000 3.758945e+000 6.000000e+000
         vertex 8.015230e+000 4.423864e+000 0.000000e+000
         vertex 8.015230e+000 4.423864e+000 6.000000e+000
      endloop
   endfacet
   facet normal -9.708226e-001 -2.397987e-001 -0.000000e+000
      outer loop
         vertex 6.044920e+000 6.000000e+000 -1.776357e-015
         vertex 6.044920e+000 6.000000e+000 6.000000e+000
         vertex 5.757403e+000 7.164010e+000 -8.881784e-016
      endloop
   endfacet
   facet normal -9.708226e-001 -2.397987e-001 -0.000000e+000
      outer loop
         vertex 6.044920e+000 6.000000e+000 6.000000e+000
         vertex 5.757403e+000 7.164010e+000 6.000000e+000
         vertex 5.757403e+000 7.164010e+000 -8.881784e-016
      endloop
   endfacet
   facet normal -7.475202e-001 -6.642391e-001 -0.000000e+000
      outer loop
         vertex 5.757403e+000 7.164010e+000 -8.881784e-016
         vertex 5.757403e+000 7.164010e+000 6.000000e+000
         vertex 4.960985e+000 8.060282e+000 -8.881784e-016
      endloop
   endfacet
   facet normal -7.475202e-001 -6.642391e-001 -0.000000e+000
      outer loop
         vertex 5.757403e+000 7.164010e+000 6.000000e+000
         vertex 4.960985e+000 8.060282e+000 6.000000e+000
         vertex 4.960985e+000 8.060282e+000 -8.881784e-016
      endloop
   endfacet
   facet normal -3.522776e-001 -9.358955e-001 -0.000000e+000
      outer loop
         vertex 4.960985e+000 8.060282e+000 -8.881784e-016
         vertex 4.960985e+000 8.060282e+000 6.000000e+000
         vertex 3.838852e+000 8.482660e+000 -8.881784e-016
      endloop
   endfacet
   facet normal -3.522776e-001 -9.358955e-001 -0.000000e+000
      outer loop
         vertex 4.960985e+000 8.060282e+000 6.000000e+000
         vertex 3.838852e+000 8.482660e+000 6.000000e+000
         vertex 3.838852e+000 8.482660e+000 -8.881784e-016
      endloop
   endfacet
   facet normal 1.239927e-001 -9.922831e-001 0.000000e+000
      outer loop
         vertex 3.838852e+000 8.482660e+000 -8.881784e-016
         vertex 3.838852e+000 8.482660e+000 6.000000e+000
         vertex 2.649111e+000 8.333994e+000 -8.881784e-016
      endloop
   endfacet
   facet normal 1.239927e-001 -9.922831e-001 0.000000e+000
      outer loop
         vertex 3.838852e+000 8.482660e+000 6.000000e+000
         vertex 2.649111e+000 8.333994e+000 6.000000e+000
         vertex 2.649111e+000 8.333994e+000 -8.881784e-016
      endloop
   endfacet
   facet normal 5.717441e-001 -8.204320e-001 0.000000e+000
      outer loop
         vertex 2.649111e+000 8.333994e+000 -8.881784e-016
         vertex 2.649111e+000 8.333994e+000 6.000000e+000
         vertex 1.665419e+000 7.648477e+000 -8.881784e-016
      endloop
   endfacet
   facet normal 5.717441e-001 -8.204320e-001 0.000000e+000
      outer loop
         vertex 2.649111e+000 8.333994e+000 6.000000e+000
         vertex 1.665419e+000 7.648477e+000 6.000000e+000
         vertex 1.665419e+000 7.648477e+000 -8.881784e-016
      endloop
   endfacet
   facet normal 8.879860e-001 -4.598704e-001 0.000000e+000
      outer loop
         vertex 1.665419e+000 7.648477e+000 -8.881784e-016
         vertex 1.665419e+000 7.648477e+000 6.000000e+000
         vertex 1.114037e+000 6.583787e+000 -8.881784e-016
      endloop
   endfacet
   facet normal 8.879860e-001 -4.598704e-001 0.000000e+000
      outer loop
         vertex 1.665419e+000 7.648477e+000 6.000000e+000
         vertex 1.114037e+000 6.583787e+000 6.000000e+000
         vertex 1.114037e+000 6.583787e+000 -8.881784e-016
      endloop
   endfacet
   facet normal 9.999791e-001 6.467562e-003 0.000000e+000
      outer loop
         vertex 1.114037e+000 6.583787e+000 -8.881784e-016
         vertex 1.114037e+000 6.583787e+000 6.000000e+000
         vertex 1.121792e+000 5.384819e+000 -8.881784e-016
      endloop
   endfacet
   facet normal 9.999791e-001 6.467562e-003 0.000000e+000
      outer loop
         vertex 1.114037e+000 6.583787e+000 6.000000e+000
         vertex 1.121792e+000 5.384819e+000 6.000000e+000
         vertex 1.121792e+000 5.384819e+000 -8.881784e-016
      endloop
   endfacet
   facet normal 8.819633e-001 4.713181e-001 0.000000e+000
      outer loop
         vertex 1.121792e+000 5.384819e+000 -8.881784e-016
         vertex 1.121792e+000 5.384819e+000 6.000000e+000
         vertex 1.686899e+000 4.327351e+000 -8.881784e-016
      endloop
   endfacet
   facet normal 8.819633e-001 4.713181e-001 0.000000e+000
      outer loop
         vertex 1.121792e+000 5.384819e+000 6.000000e+000
         vertex 1.686899e+000 4.327351e+000 6.000000e+000
         vertex 1.686899e+000 4.327351e+000 -8.881784e-016
      endloop
   endfacet
   facet normal 5.610841e-001 8.277588e-001 0.000000e+000
      outer loop
         vertex 1.686899e+000 4.327351e+000 -8.881784e-016
         vertex 1.686899e+000 4.327351e+000 6.000000e+000
         vertex 2.679376e+000 3.654614e+000 -8.881784e-016
      endloop
   endfacet
   facet normal 5.610841e-001 8.277588e-001 0.000000e+000
      outer loop
         vertex 1.686899e+000 4.327351e+000 6.000000e+000
         vertex 2.679376e+000 3.654614e+000 6.000000e+000
         vertex 2.679376e+000 3.654614e+000 -8.881784e-016
      endloop
   endfacet
   facet normal 1.111478e-001 9.938039e-001 0.000000e+000
      outer loop
         vertex 2.679376e+000 3.654614e+000 -8.881784e-016
         vertex 2.679376e+000 3.654614e+000 6.000000e+000
         vertex 3.870940e+000 3.521349e+000 -8.881784e-016
      endloop
   endfacet
   facet normal 1.111478e-001 9.938039e-001 0.000000e+000
      outer loop
         vertex 2.679376e+000 3.654614e+000 6.000000e+000
         vertex 3.870940e+000 3.521349e+000 6.000000e+000
         vertex 3.870940e+000 3.521349e+000 -8.881784e-016
      endloop
   endfacet
   facet normal -3.643540e-001 9.312605e-001 0.000000e+000
      outer loop
         vertex 3.870940e+000 3.521349e+000 -8.881784e-016
         vertex 3.870940e+000 3.521349e+000 6.000000e+000
         vertex 4.987516e+000 3.958207e+000 -8.881784e-016
      endloop
   endfacet
   facet normal -3.643540e-001 9.312605e-001 0.000000e+000
      outer loop
         vertex 3.870940e+000 3.521349e+000 6.000000e+000
         vertex 4.987516e+000 3.958207e+000 6.000000e+000
         vertex 4.987516e+000 3.958207e+000 -8.881784e-016
      endloop
   endfacet
   facet normal -7.560495e-001 6.545144e-001 0.000000e+000
      outer loop
         vertex 4.987516e+000 3.958207e+000 -8.881784e-016
         vertex 4.987516e+000 3.958207e+000 6.000000e+000
         vertex 5.772274e+000 4.864706e+000 -8.881784e-016
      endloop
   endfacet
   facet normal -7.560495e-001 6.545144e-001 0.000000e+000
      outer loop
         vertex 4.987516e+000 3.958207e+000 6.000000e+000
         vertex 5.772274e+000 4.864706e+000 6.000000e+000
         vertex 5.772274e+000 4.864706e+000 -8.881784e-016
      endloop
   endfacet
   facet normal -9.723533e-001 2.335145e-001 0.000000e+000
      outer loop
         vertex 5.772274e+000 4.864706e+000 -8.881784e-016
         vertex 5.772274e+000 4.864706e+000 6.000000e+000
         vertex 6.044920e+000 6.000000e+000 -1.776357e-015
      endloop
   endfacet
   facet normal -9.723533e-001 2.335145e-001 0.000000e+000
      outer loop
         vertex 5.772274e+000 4.864706e+000 6.000000e+000
         vertex 6.044920e+000 6.000000e+000 6.000000e+000
         vertex 6.044920e+000 6.000000e+000 -1.776357e-015
      endloop
   endfacet
endsolid
